G04 start of page 6 for group -4063 idx -4063 *
G04 Title: (unknown), componentmask *
G04 Creator: pcb 20110918 *
G04 CreationDate: Tue 27 May 2014 02:17:58 AM GMT UTC *
G04 For: railfan *
G04 Format: Gerber/RS-274X *
G04 PCB-Dimensions: 290000 290000 *
G04 PCB-Coordinate-Origin: lower left *
%MOIN*%
%FSLAX25Y25*%
%LNTOPMASK*%
%ADD76R,0.0460X0.0460*%
%ADD75R,0.2324X0.2324*%
%ADD74R,0.0400X0.0400*%
%ADD73R,0.0611X0.0611*%
%ADD72R,0.0572X0.0572*%
%ADD71R,0.0529X0.0529*%
%ADD70R,0.0769X0.0769*%
%ADD69R,0.0530X0.0530*%
%ADD68R,0.1460X0.1460*%
%ADD67C,0.0860*%
%ADD66C,0.0660*%
%ADD65C,0.0800*%
%ADD64C,0.0960*%
%ADD63C,0.0001*%
%ADD62C,0.0900*%
%ADD61C,0.2997*%
G54D61*X273000Y17000D03*
G54D62*X210500Y53000D03*
Y43000D03*
G54D63*G36*
X206000Y37500D02*Y28500D01*
X215000D01*
Y37500D01*
X206000D01*
G37*
G54D61*X17000Y17000D03*
G54D63*G36*
X23200Y91800D02*Y82200D01*
X32800D01*
Y91800D01*
X23200D01*
G37*
G54D64*X28000Y67000D03*
Y47000D03*
G54D63*G36*
X23200Y166800D02*Y157200D01*
X32800D01*
Y166800D01*
X23200D01*
G37*
G54D64*X28000Y142000D03*
Y122000D03*
G54D65*X51000Y107000D03*
G54D66*X15702Y194630D03*
G54D65*X221000Y107000D03*
G54D61*X273000Y273000D03*
G54D63*G36*
X241200Y271300D02*Y262700D01*
X249800D01*
Y271300D01*
X241200D01*
G37*
G54D67*X225500Y267000D03*
G54D63*G36*
X195700Y266800D02*Y257200D01*
X205300D01*
Y266800D01*
X195700D01*
G37*
G54D64*X180500Y262000D03*
G54D63*G36*
X12402Y280607D02*Y274007D01*
X19002D01*
Y280607D01*
X12402D01*
G37*
G54D66*X100348Y277307D03*
X115111D03*
X129875D03*
G54D64*X160500Y262000D03*
G54D67*X119500Y72500D03*
Y20500D03*
G54D66*X129875Y194630D03*
X100348D03*
G54D63*G36*
X268247Y241970D02*Y235464D01*
X274753D01*
Y241970D01*
X268247D01*
G37*
G36*
X258247D02*Y235464D01*
X264753D01*
Y241970D01*
X258247D01*
G37*
G36*
X248247D02*Y235464D01*
X254753D01*
Y241970D01*
X248247D01*
G37*
G36*
Y206536D02*Y200030D01*
X254753D01*
Y206536D01*
X248247D01*
G37*
G36*
X258247D02*Y200030D01*
X264753D01*
Y206536D01*
X258247D01*
G37*
G36*
X268247D02*Y200030D01*
X274753D01*
Y206536D01*
X268247D01*
G37*
G54D68*X134100Y162600D02*X137900D01*
X167100D02*X170900D01*
G54D69*X220250Y173850D02*Y172551D01*
X199750Y173850D02*Y172551D01*
G54D70*X155976Y215756D02*Y210244D01*
Y195756D02*Y190244D01*
X178024Y215756D02*Y210244D01*
Y195756D02*Y190244D01*
G54D69*X198150Y213250D02*X199449D01*
X198150Y192750D02*X199449D01*
X232551D02*X233850D01*
X232551Y213250D02*X233850D01*
G54D71*X275000Y176752D02*Y168445D01*
X255000Y176752D02*Y168445D01*
G54D68*X68100Y141400D02*X71900D01*
X68100Y162600D02*X71900D01*
X134100Y141400D02*X137900D01*
X101100D02*X104900D01*
X101100Y162600D02*X104900D01*
X167100Y141400D02*X170900D01*
G54D69*X199750Y139449D02*Y138150D01*
G54D72*X217457Y122893D02*Y122107D01*
X224543Y122893D02*Y122107D01*
X233957Y133393D02*Y132607D01*
X241043Y133393D02*Y132607D01*
G54D69*X220250Y139449D02*Y138150D01*
G54D73*X236343Y116496D02*X240280D01*
G54D74*X241746Y64521D02*Y63921D01*
X233946Y64521D02*Y63921D01*
G54D73*X236343Y98504D02*X240280D01*
G54D74*X237846Y56321D02*Y55721D01*
G54D70*X250524Y35756D02*Y30244D01*
X228476Y35756D02*Y30244D01*
G54D75*X264000Y107795D02*Y107205D01*
G54D76*X254847Y116949D02*Y114587D01*
X264001Y116949D02*Y114587D01*
Y108681D02*Y106319D01*
X254847Y108681D02*Y106319D01*
Y100413D02*Y98051D01*
X264001Y100413D02*Y98051D01*
G54D72*X257957Y133393D02*Y132607D01*
G54D76*X273154Y116949D02*Y114587D01*
Y108681D02*Y106319D01*
Y100413D02*Y98051D01*
G54D71*X265000Y151555D02*Y143248D01*
G54D72*X265043Y133393D02*Y132607D01*
X268543Y79893D02*Y79107D01*
X270905Y57755D02*Y52245D01*
X261457Y79893D02*Y79107D01*
X259095Y57755D02*Y52245D01*
X261457Y68893D02*Y68107D01*
X268543Y68893D02*Y68107D01*
M02*
