G04 start of page 12 for group -3984 idx -3984 *
G04 Title: (unknown), fab *
G04 Creator: pcb 20110918 *
G04 CreationDate: Tue 27 May 2014 02:17:58 AM GMT UTC *
G04 For: railfan *
G04 Format: Gerber/RS-274X *
G04 PCB-Dimensions: 290000 290000 *
G04 PCB-Coordinate-Origin: lower left *
%MOIN*%
%FSLAX25Y25*%
%LNFAB*%
%ADD100C,0.0100*%
%ADD99C,0.0075*%
%ADD98C,0.0060*%
%ADD97R,0.0080X0.0080*%
G54D97*X273000Y276200D02*Y269800D01*
X269800Y273000D02*X276200D01*
X271400Y274600D02*X274600D01*
X271400D02*Y271400D01*
X274600D01*
Y274600D02*Y271400D01*
X17000Y20200D02*Y13800D01*
X13800Y17000D02*X20200D01*
X15400Y18600D02*X18600D01*
X15400D02*Y15400D01*
X18600D01*
Y18600D02*Y15400D01*
X273000Y20200D02*Y13800D01*
X269800Y17000D02*X276200D01*
X271400Y18600D02*X274600D01*
X271400D02*Y15400D01*
X274600D01*
Y18600D02*Y15400D01*
X15000Y304450D02*Y298050D01*
X11800Y301250D02*X18200D01*
X13400Y302850D02*X16600D01*
X13400D02*Y299650D01*
X16600D01*
Y302850D02*Y299650D01*
G54D98*X135000Y303500D02*X136500Y300500D01*
X138000Y303500D01*
X136500Y300500D02*Y297500D01*
X139800Y300800D02*X142050D01*
X139800Y297500D02*X142800D01*
X139800Y303500D02*Y297500D01*
Y303500D02*X142800D01*
X147600D02*X148350Y302750D01*
X145350Y303500D02*X147600D01*
X144600Y302750D02*X145350Y303500D01*
X144600Y302750D02*Y301250D01*
X145350Y300500D01*
X147600D01*
X148350Y299750D01*
Y298250D01*
X147600Y297500D02*X148350Y298250D01*
X145350Y297500D02*X147600D01*
X144600Y298250D02*X145350Y297500D01*
X98000Y302750D02*X98750Y303500D01*
X100250D01*
X101000Y302750D01*
X100250Y297500D02*X101000Y298250D01*
X98750Y297500D02*X100250D01*
X98000Y298250D02*X98750Y297500D01*
Y300800D02*X100250D01*
X101000Y302750D02*Y301550D01*
Y300050D02*Y298250D01*
Y300050D02*X100250Y300800D01*
X101000Y301550D02*X100250Y300800D01*
X45000Y298250D02*X45750Y297500D01*
X45000Y302750D02*Y298250D01*
Y302750D02*X45750Y303500D01*
X47250D01*
X48000Y302750D01*
Y298250D01*
X47250Y297500D02*X48000Y298250D01*
X45750Y297500D02*X47250D01*
X45000Y299000D02*X48000Y302000D01*
X49800Y297500D02*X50550D01*
X52350Y302300D02*X53550Y303500D01*
Y297500D01*
X52350D02*X54600D01*
X56400Y302750D02*X57150Y303500D01*
X59400D01*
X60150Y302750D01*
Y301250D01*
X56400Y297500D02*X60150Y301250D01*
X56400Y297500D02*X60150D01*
X62700D02*X64950Y300500D01*
Y302750D02*Y300500D01*
X64200Y303500D02*X64950Y302750D01*
X62700Y303500D02*X64200D01*
X61950Y302750D02*X62700Y303500D01*
X61950Y302750D02*Y301250D01*
X62700Y300500D01*
X64950D01*
X28000Y162000D02*Y158800D01*
Y162000D02*X30773Y163600D01*
X28000Y162000D02*X25227Y163600D01*
X26400Y162000D02*G75*G03X29600Y162000I1600J0D01*G01*
G75*G03X26400Y162000I-1600J0D01*G01*
X28000Y142000D02*Y138800D01*
Y142000D02*X30773Y143600D01*
X28000Y142000D02*X25227Y143600D01*
X26400Y142000D02*G75*G03X29600Y142000I1600J0D01*G01*
G75*G03X26400Y142000I-1600J0D01*G01*
X28000Y122000D02*Y118800D01*
Y122000D02*X30773Y123600D01*
X28000Y122000D02*X25227Y123600D01*
X26400Y122000D02*G75*G03X29600Y122000I1600J0D01*G01*
G75*G03X26400Y122000I-1600J0D01*G01*
X200500Y262000D02*Y258800D01*
Y262000D02*X203273Y263600D01*
X200500Y262000D02*X197727Y263600D01*
X198900Y262000D02*G75*G03X202100Y262000I1600J0D01*G01*
G75*G03X198900Y262000I-1600J0D01*G01*
X180500D02*Y258800D01*
Y262000D02*X183273Y263600D01*
X180500Y262000D02*X177727Y263600D01*
X178900Y262000D02*G75*G03X182100Y262000I1600J0D01*G01*
G75*G03X178900Y262000I-1600J0D01*G01*
X160500D02*Y258800D01*
Y262000D02*X163273Y263600D01*
X160500Y262000D02*X157727Y263600D01*
X158900Y262000D02*G75*G03X162100Y262000I1600J0D01*G01*
G75*G03X158900Y262000I-1600J0D01*G01*
X28000Y87000D02*Y83800D01*
Y87000D02*X30773Y88600D01*
X28000Y87000D02*X25227Y88600D01*
X26400Y87000D02*G75*G03X29600Y87000I1600J0D01*G01*
G75*G03X26400Y87000I-1600J0D01*G01*
X28000Y67000D02*Y63800D01*
Y67000D02*X30773Y68600D01*
X28000Y67000D02*X25227Y68600D01*
X26400Y67000D02*G75*G03X29600Y67000I1600J0D01*G01*
G75*G03X26400Y67000I-1600J0D01*G01*
X28000Y47000D02*Y43800D01*
Y47000D02*X30773Y48600D01*
X28000Y47000D02*X25227Y48600D01*
X26400Y47000D02*G75*G03X29600Y47000I1600J0D01*G01*
G75*G03X26400Y47000I-1600J0D01*G01*
X15000Y316250D02*Y313050D01*
Y316250D02*X17773Y317850D01*
X15000Y316250D02*X12227Y317850D01*
X13400Y316250D02*G75*G03X16600Y316250I1600J0D01*G01*
G75*G03X13400Y316250I-1600J0D01*G01*
X135000Y318500D02*X136500Y315500D01*
X138000Y318500D01*
X136500Y315500D02*Y312500D01*
X139800Y315800D02*X142050D01*
X139800Y312500D02*X142800D01*
X139800Y318500D02*Y312500D01*
Y318500D02*X142800D01*
X147600D02*X148350Y317750D01*
X145350Y318500D02*X147600D01*
X144600Y317750D02*X145350Y318500D01*
X144600Y317750D02*Y316250D01*
X145350Y315500D01*
X147600D01*
X148350Y314750D01*
Y313250D01*
X147600Y312500D02*X148350Y313250D01*
X145350Y312500D02*X147600D01*
X144600Y313250D02*X145350Y312500D01*
X98750D02*X101000Y315500D01*
Y317750D02*Y315500D01*
X100250Y318500D02*X101000Y317750D01*
X98750Y318500D02*X100250D01*
X98000Y317750D02*X98750Y318500D01*
X98000Y317750D02*Y316250D01*
X98750Y315500D01*
X101000D01*
X45000Y313250D02*X45750Y312500D01*
X45000Y317750D02*Y313250D01*
Y317750D02*X45750Y318500D01*
X47250D01*
X48000Y317750D01*
Y313250D01*
X47250Y312500D02*X48000Y313250D01*
X45750Y312500D02*X47250D01*
X45000Y314000D02*X48000Y317000D01*
X49800Y312500D02*X50550D01*
X52350Y313250D02*X53100Y312500D01*
X52350Y317750D02*Y313250D01*
Y317750D02*X53100Y318500D01*
X54600D01*
X55350Y317750D01*
Y313250D01*
X54600Y312500D02*X55350Y313250D01*
X53100Y312500D02*X54600D01*
X52350Y314000D02*X55350Y317000D01*
X57150Y318500D02*X60150D01*
X57150D02*Y315500D01*
X57900Y316250D01*
X59400D01*
X60150Y315500D01*
Y313250D01*
X59400Y312500D02*X60150Y313250D01*
X57900Y312500D02*X59400D01*
X57150Y313250D02*X57900Y312500D01*
X61950Y318500D02*X64950D01*
X61950D02*Y315500D01*
X62700Y316250D01*
X64200D01*
X64950Y315500D01*
Y313250D01*
X64200Y312500D02*X64950Y313250D01*
X62700Y312500D02*X64200D01*
X61950Y313250D02*X62700Y312500D01*
X243900Y268600D02*X247100D01*
X243900D02*Y265400D01*
X247100D01*
Y268600D02*Y265400D01*
X223900Y268600D02*X227100D01*
X223900D02*Y265400D01*
X227100D01*
Y268600D02*Y265400D01*
X117900Y74100D02*X121100D01*
X117900D02*Y70900D01*
X121100D01*
Y74100D02*Y70900D01*
X117900Y22100D02*X121100D01*
X117900D02*Y18900D01*
X121100D01*
Y22100D02*Y18900D01*
X13400Y332850D02*X16600D01*
X13400D02*Y329650D01*
X16600D01*
Y332850D02*Y329650D01*
X135000Y333500D02*X136500Y330500D01*
X138000Y333500D01*
X136500Y330500D02*Y327500D01*
X139800Y330800D02*X142050D01*
X139800Y327500D02*X142800D01*
X139800Y333500D02*Y327500D01*
Y333500D02*X142800D01*
X147600D02*X148350Y332750D01*
X145350Y333500D02*X147600D01*
X144600Y332750D02*X145350Y333500D01*
X144600Y332750D02*Y331250D01*
X145350Y330500D01*
X147600D01*
X148350Y329750D01*
Y328250D01*
X147600Y327500D02*X148350Y328250D01*
X145350Y327500D02*X147600D01*
X144600Y328250D02*X145350Y327500D01*
X98000Y329750D02*X101000Y333500D01*
X98000Y329750D02*X101750D01*
X101000Y333500D02*Y327500D01*
X45000Y328250D02*X45750Y327500D01*
X45000Y332750D02*Y328250D01*
Y332750D02*X45750Y333500D01*
X47250D01*
X48000Y332750D01*
Y328250D01*
X47250Y327500D02*X48000Y328250D01*
X45750Y327500D02*X47250D01*
X45000Y329000D02*X48000Y332000D01*
X49800Y327500D02*X50550D01*
X52350Y328250D02*X53100Y327500D01*
X52350Y332750D02*Y328250D01*
Y332750D02*X53100Y333500D01*
X54600D01*
X55350Y332750D01*
Y328250D01*
X54600Y327500D02*X55350Y328250D01*
X53100Y327500D02*X54600D01*
X52350Y329000D02*X55350Y332000D01*
X57150Y329750D02*X60150Y333500D01*
X57150Y329750D02*X60900D01*
X60150Y333500D02*Y327500D01*
X62700Y328250D02*X63450Y327500D01*
X62700Y329450D02*Y328250D01*
Y329450D02*X63750Y330500D01*
X64650D01*
X65700Y329450D01*
Y328250D01*
X64950Y327500D02*X65700Y328250D01*
X63450Y327500D02*X64950D01*
X62700Y331550D02*X63750Y330500D01*
X62700Y332750D02*Y331550D01*
Y332750D02*X63450Y333500D01*
X64950D01*
X65700Y332750D01*
Y331550D01*
X64650Y330500D02*X65700Y331550D01*
X209700Y53000D02*G75*G03X211300Y53000I800J0D01*G01*
G75*G03X209700Y53000I-800J0D01*G01*
Y43000D02*G75*G03X211300Y43000I800J0D01*G01*
G75*G03X209700Y43000I-800J0D01*G01*
Y33000D02*G75*G03X211300Y33000I800J0D01*G01*
G75*G03X209700Y33000I-800J0D01*G01*
X14200Y346250D02*G75*G03X15800Y346250I800J0D01*G01*
G75*G03X14200Y346250I-800J0D01*G01*
X135000Y348500D02*X136500Y345500D01*
X138000Y348500D01*
X136500Y345500D02*Y342500D01*
X139800Y345800D02*X142050D01*
X139800Y342500D02*X142800D01*
X139800Y348500D02*Y342500D01*
Y348500D02*X142800D01*
X147600D02*X148350Y347750D01*
X145350Y348500D02*X147600D01*
X144600Y347750D02*X145350Y348500D01*
X144600Y347750D02*Y346250D01*
X145350Y345500D01*
X147600D01*
X148350Y344750D01*
Y343250D01*
X147600Y342500D02*X148350Y343250D01*
X145350Y342500D02*X147600D01*
X144600Y343250D02*X145350Y342500D01*
X98000Y347750D02*X98750Y348500D01*
X100250D01*
X101000Y347750D01*
X100250Y342500D02*X101000Y343250D01*
X98750Y342500D02*X100250D01*
X98000Y343250D02*X98750Y342500D01*
Y345800D02*X100250D01*
X101000Y347750D02*Y346550D01*
Y345050D02*Y343250D01*
Y345050D02*X100250Y345800D01*
X101000Y346550D02*X100250Y345800D01*
X45000Y343250D02*X45750Y342500D01*
X45000Y347750D02*Y343250D01*
Y347750D02*X45750Y348500D01*
X47250D01*
X48000Y347750D01*
Y343250D01*
X47250Y342500D02*X48000Y343250D01*
X45750Y342500D02*X47250D01*
X45000Y344000D02*X48000Y347000D01*
X49800Y342500D02*X50550D01*
X52350Y343250D02*X53100Y342500D01*
X52350Y347750D02*Y343250D01*
Y347750D02*X53100Y348500D01*
X54600D01*
X55350Y347750D01*
Y343250D01*
X54600Y342500D02*X55350Y343250D01*
X53100Y342500D02*X54600D01*
X52350Y344000D02*X55350Y347000D01*
X57150Y344750D02*X60150Y348500D01*
X57150Y344750D02*X60900D01*
X60150Y348500D02*Y342500D01*
X62700Y348500D02*X65700D01*
X62700D02*Y345500D01*
X63450Y346250D01*
X64950D01*
X65700Y345500D01*
Y343250D01*
X64950Y342500D02*X65700Y343250D01*
X63450Y342500D02*X64950D01*
X62700Y343250D02*X63450Y342500D01*
X49800Y108200D02*X52200Y105800D01*
X49800D02*X52200Y108200D01*
X219800D02*X222200Y105800D01*
X219800D02*X222200Y108200D01*
X13800Y362450D02*X16200Y360050D01*
X13800D02*X16200Y362450D01*
X135000Y363500D02*X136500Y360500D01*
X138000Y363500D01*
X136500Y360500D02*Y357500D01*
X139800Y360800D02*X142050D01*
X139800Y357500D02*X142800D01*
X139800Y363500D02*Y357500D01*
Y363500D02*X142800D01*
X147600D02*X148350Y362750D01*
X145350Y363500D02*X147600D01*
X144600Y362750D02*X145350Y363500D01*
X144600Y362750D02*Y361250D01*
X145350Y360500D01*
X147600D01*
X148350Y359750D01*
Y358250D01*
X147600Y357500D02*X148350Y358250D01*
X145350Y357500D02*X147600D01*
X144600Y358250D02*X145350Y357500D01*
X98000Y362750D02*X98750Y363500D01*
X101000D01*
X101750Y362750D01*
Y361250D01*
X98000Y357500D02*X101750Y361250D01*
X98000Y357500D02*X101750D01*
X45000Y358250D02*X45750Y357500D01*
X45000Y362750D02*Y358250D01*
Y362750D02*X45750Y363500D01*
X47250D01*
X48000Y362750D01*
Y358250D01*
X47250Y357500D02*X48000Y358250D01*
X45750Y357500D02*X47250D01*
X45000Y359000D02*X48000Y362000D01*
X49800Y357500D02*X50550D01*
X52350Y358250D02*X53100Y357500D01*
X52350Y362750D02*Y358250D01*
Y362750D02*X53100Y363500D01*
X54600D01*
X55350Y362750D01*
Y358250D01*
X54600Y357500D02*X55350Y358250D01*
X53100Y357500D02*X54600D01*
X52350Y359000D02*X55350Y362000D01*
X57150Y359750D02*X60150Y363500D01*
X57150Y359750D02*X60900D01*
X60150Y363500D02*Y357500D01*
X62700Y362750D02*X63450Y363500D01*
X65700D01*
X66450Y362750D01*
Y361250D01*
X62700Y357500D02*X66450Y361250D01*
X62700Y357500D02*X66450D01*
X15702Y278907D02*Y275707D01*
X14102Y277307D02*X17302D01*
X100348Y278907D02*Y275707D01*
X98748Y277307D02*X101948D01*
X115111Y278907D02*Y275707D01*
X113511Y277307D02*X116711D01*
X129875Y278907D02*Y275707D01*
X128275Y277307D02*X131475D01*
X129875Y196230D02*Y193030D01*
X128275Y194630D02*X131475D01*
X100348Y196230D02*Y193030D01*
X98748Y194630D02*X101948D01*
X15702Y196230D02*Y193030D01*
X14102Y194630D02*X17302D01*
X15000Y377850D02*Y374650D01*
X13400Y376250D02*X16600D01*
X135000Y378500D02*X136500Y375500D01*
X138000Y378500D01*
X136500Y375500D02*Y372500D01*
X139800Y375800D02*X142050D01*
X139800Y372500D02*X142800D01*
X139800Y378500D02*Y372500D01*
Y378500D02*X142800D01*
X147600D02*X148350Y377750D01*
X145350Y378500D02*X147600D01*
X144600Y377750D02*X145350Y378500D01*
X144600Y377750D02*Y376250D01*
X145350Y375500D01*
X147600D01*
X148350Y374750D01*
Y373250D01*
X147600Y372500D02*X148350Y373250D01*
X145350Y372500D02*X147600D01*
X144600Y373250D02*X145350Y372500D01*
X98750D02*X101750Y378500D01*
X98000D02*X101750D01*
X45000Y373250D02*X45750Y372500D01*
X45000Y377750D02*Y373250D01*
Y377750D02*X45750Y378500D01*
X47250D01*
X48000Y377750D01*
Y373250D01*
X47250Y372500D02*X48000Y373250D01*
X45750Y372500D02*X47250D01*
X45000Y374000D02*X48000Y377000D01*
X49800Y372500D02*X50550D01*
X52350Y373250D02*X53100Y372500D01*
X52350Y377750D02*Y373250D01*
Y377750D02*X53100Y378500D01*
X54600D01*
X55350Y377750D01*
Y373250D01*
X54600Y372500D02*X55350Y373250D01*
X53100Y372500D02*X54600D01*
X52350Y374000D02*X55350Y377000D01*
X57150Y377750D02*X57900Y378500D01*
X59400D01*
X60150Y377750D01*
X59400Y372500D02*X60150Y373250D01*
X57900Y372500D02*X59400D01*
X57150Y373250D02*X57900Y372500D01*
Y375800D02*X59400D01*
X60150Y377750D02*Y376550D01*
Y375050D02*Y373250D01*
Y375050D02*X59400Y375800D01*
X60150Y376550D02*X59400Y375800D01*
X61950Y373250D02*X62700Y372500D01*
X61950Y377750D02*Y373250D01*
Y377750D02*X62700Y378500D01*
X64200D01*
X64950Y377750D01*
Y373250D01*
X64200Y372500D02*X64950Y373250D01*
X62700Y372500D02*X64200D01*
X61950Y374000D02*X64950Y377000D01*
X233200Y203000D02*Y201400D01*
Y203000D02*X234587Y203800D01*
X233200Y203000D02*X231813Y203800D01*
X241000Y145500D02*Y143900D01*
Y145500D02*X242387Y146300D01*
X241000Y145500D02*X239613Y146300D01*
X241000Y141000D02*Y139400D01*
Y141000D02*X242387Y141800D01*
X241000Y141000D02*X239613Y141800D01*
X233200Y207500D02*Y205900D01*
Y207500D02*X234587Y208300D01*
X233200Y207500D02*X231813Y208300D01*
X15000Y391250D02*Y389650D01*
Y391250D02*X16387Y392050D01*
X15000Y391250D02*X13613Y392050D01*
X135000Y393500D02*X136500Y390500D01*
X138000Y393500D01*
X136500Y390500D02*Y387500D01*
X139800Y390800D02*X142050D01*
X139800Y387500D02*X142800D01*
X139800Y393500D02*Y387500D01*
Y393500D02*X142800D01*
X147600D02*X148350Y392750D01*
X145350Y393500D02*X147600D01*
X144600Y392750D02*X145350Y393500D01*
X144600Y392750D02*Y391250D01*
X145350Y390500D01*
X147600D01*
X148350Y389750D01*
Y388250D01*
X147600Y387500D02*X148350Y388250D01*
X145350Y387500D02*X147600D01*
X144600Y388250D02*X145350Y387500D01*
X98000Y389750D02*X101000Y393500D01*
X98000Y389750D02*X101750D01*
X101000Y393500D02*Y387500D01*
X45000Y388250D02*X45750Y387500D01*
X45000Y392750D02*Y388250D01*
Y392750D02*X45750Y393500D01*
X47250D01*
X48000Y392750D01*
Y388250D01*
X47250Y387500D02*X48000Y388250D01*
X45750Y387500D02*X47250D01*
X45000Y389000D02*X48000Y392000D01*
X49800Y387500D02*X50550D01*
X52350Y388250D02*X53100Y387500D01*
X52350Y392750D02*Y388250D01*
Y392750D02*X53100Y393500D01*
X54600D01*
X55350Y392750D01*
Y388250D01*
X54600Y387500D02*X55350Y388250D01*
X53100Y387500D02*X54600D01*
X52350Y389000D02*X55350Y392000D01*
X57150Y392750D02*X57900Y393500D01*
X60150D01*
X60900Y392750D01*
Y391250D01*
X57150Y387500D02*X60900Y391250D01*
X57150Y387500D02*X60900D01*
X62700Y388250D02*X63450Y387500D01*
X62700Y392750D02*Y388250D01*
Y392750D02*X63450Y393500D01*
X64950D01*
X65700Y392750D01*
Y388250D01*
X64950Y387500D02*X65700Y388250D01*
X63450Y387500D02*X64950D01*
X62700Y389000D02*X65700Y392000D01*
X3000Y408500D02*X3750Y407750D01*
X750Y408500D02*X3000D01*
X0Y407750D02*X750Y408500D01*
X0Y407750D02*Y406250D01*
X750Y405500D01*
X3000D01*
X3750Y404750D01*
Y403250D01*
X3000Y402500D02*X3750Y403250D01*
X750Y402500D02*X3000D01*
X0Y403250D02*X750Y402500D01*
X5550Y405500D02*Y403250D01*
X6300Y402500D01*
X8550Y405500D02*Y401000D01*
X7800Y400250D02*X8550Y401000D01*
X6300Y400250D02*X7800D01*
X5550Y401000D02*X6300Y400250D01*
Y402500D02*X7800D01*
X8550Y403250D01*
X11100Y404750D02*Y402500D01*
Y404750D02*X11850Y405500D01*
X12600D01*
X13350Y404750D01*
Y402500D01*
Y404750D02*X14100Y405500D01*
X14850D01*
X15600Y404750D01*
Y402500D01*
X10350Y405500D02*X11100Y404750D01*
X17400Y408500D02*Y402500D01*
Y403250D02*X18150Y402500D01*
X19650D01*
X20400Y403250D01*
Y404750D02*Y403250D01*
X19650Y405500D02*X20400Y404750D01*
X18150Y405500D02*X19650D01*
X17400Y404750D02*X18150Y405500D01*
X22200Y404750D02*Y403250D01*
Y404750D02*X22950Y405500D01*
X24450D01*
X25200Y404750D01*
Y403250D01*
X24450Y402500D02*X25200Y403250D01*
X22950Y402500D02*X24450D01*
X22200Y403250D02*X22950Y402500D01*
X27000Y408500D02*Y403250D01*
X27750Y402500D01*
X0Y399250D02*X29250D01*
X41750Y408500D02*Y402500D01*
X43700Y408500D02*X44750Y407450D01*
Y403550D01*
X43700Y402500D02*X44750Y403550D01*
X41000Y402500D02*X43700D01*
X41000Y408500D02*X43700D01*
G54D99*X46550Y407000D02*Y406850D01*
G54D98*Y404750D02*Y402500D01*
X50300Y405500D02*X51050Y404750D01*
X48800Y405500D02*X50300D01*
X48050Y404750D02*X48800Y405500D01*
X48050Y404750D02*Y403250D01*
X48800Y402500D01*
X51050Y405500D02*Y403250D01*
X51800Y402500D01*
X48800D02*X50300D01*
X51050Y403250D01*
X54350Y404750D02*Y402500D01*
Y404750D02*X55100Y405500D01*
X55850D01*
X56600Y404750D01*
Y402500D01*
Y404750D02*X57350Y405500D01*
X58100D01*
X58850Y404750D01*
Y402500D01*
X53600Y405500D02*X54350Y404750D01*
X60650Y402500D02*X61400D01*
X65900Y403250D02*X66650Y402500D01*
X65900Y407750D02*X66650Y408500D01*
X65900Y407750D02*Y403250D01*
X68450Y408500D02*X69950D01*
X69200D02*Y402500D01*
X68450D02*X69950D01*
X72500Y404750D02*Y402500D01*
Y404750D02*X73250Y405500D01*
X74000D01*
X74750Y404750D01*
Y402500D01*
X71750Y405500D02*X72500Y404750D01*
X77300Y405500D02*X79550D01*
X76550Y404750D02*X77300Y405500D01*
X76550Y404750D02*Y403250D01*
X77300Y402500D01*
X79550D01*
X81350Y408500D02*Y402500D01*
Y404750D02*X82100Y405500D01*
X83600D01*
X84350Y404750D01*
Y402500D01*
X86150Y408500D02*X86900Y407750D01*
Y403250D01*
X86150Y402500D02*X86900Y403250D01*
X41000Y399250D02*X88700D01*
X96050Y402500D02*X98000D01*
X95000Y403550D02*X96050Y402500D01*
X95000Y407450D02*Y403550D01*
Y407450D02*X96050Y408500D01*
X98000D01*
X99800Y404750D02*Y403250D01*
Y404750D02*X100550Y405500D01*
X102050D01*
X102800Y404750D01*
Y403250D01*
X102050Y402500D02*X102800Y403250D01*
X100550Y402500D02*X102050D01*
X99800Y403250D02*X100550Y402500D01*
X104600Y405500D02*Y403250D01*
X105350Y402500D01*
X106850D01*
X107600Y403250D01*
Y405500D02*Y403250D01*
X110150Y404750D02*Y402500D01*
Y404750D02*X110900Y405500D01*
X111650D01*
X112400Y404750D01*
Y402500D01*
X109400Y405500D02*X110150Y404750D01*
X114950Y408500D02*Y403250D01*
X115700Y402500D01*
X114200Y406250D02*X115700D01*
X95000Y399250D02*X117200D01*
X130750Y408500D02*Y402500D01*
X130000Y408500D02*X133000D01*
X133750Y407750D01*
Y406250D01*
X133000Y405500D02*X133750Y406250D01*
X130750Y405500D02*X133000D01*
X135550Y408500D02*Y403250D01*
X136300Y402500D01*
X140050Y405500D02*X140800Y404750D01*
X138550Y405500D02*X140050D01*
X137800Y404750D02*X138550Y405500D01*
X137800Y404750D02*Y403250D01*
X138550Y402500D01*
X140800Y405500D02*Y403250D01*
X141550Y402500D01*
X138550D02*X140050D01*
X140800Y403250D01*
X144100Y408500D02*Y403250D01*
X144850Y402500D01*
X143350Y406250D02*X144850D01*
X147100Y402500D02*X149350D01*
X146350Y403250D02*X147100Y402500D01*
X146350Y404750D02*Y403250D01*
Y404750D02*X147100Y405500D01*
X148600D01*
X149350Y404750D01*
X146350Y404000D02*X149350D01*
Y404750D02*Y404000D01*
X154150Y408500D02*Y402500D01*
X153400D02*X154150Y403250D01*
X151900Y402500D02*X153400D01*
X151150Y403250D02*X151900Y402500D01*
X151150Y404750D02*Y403250D01*
Y404750D02*X151900Y405500D01*
X153400D01*
X154150Y404750D01*
X157450Y405500D02*Y404750D01*
Y403250D02*Y402500D01*
X155950Y407750D02*Y407000D01*
Y407750D02*X156700Y408500D01*
X158200D01*
X158950Y407750D01*
Y407000D01*
X157450Y405500D02*X158950Y407000D01*
X130000Y399250D02*X160750D01*
X0Y423500D02*X3000D01*
X1500D02*Y417500D01*
X4800Y423500D02*Y417500D01*
Y419750D02*X5550Y420500D01*
X7050D01*
X7800Y419750D01*
Y417500D01*
X10350D02*X12600D01*
X9600Y418250D02*X10350Y417500D01*
X9600Y419750D02*Y418250D01*
Y419750D02*X10350Y420500D01*
X11850D01*
X12600Y419750D01*
X9600Y419000D02*X12600D01*
Y419750D02*Y419000D01*
X15150Y419750D02*Y417500D01*
Y419750D02*X15900Y420500D01*
X17400D01*
X14400D02*X15150Y419750D01*
X19950Y417500D02*X22200D01*
X19200Y418250D02*X19950Y417500D01*
X19200Y419750D02*Y418250D01*
Y419750D02*X19950Y420500D01*
X21450D01*
X22200Y419750D01*
X19200Y419000D02*X22200D01*
Y419750D02*Y419000D01*
X28950Y420500D02*X29700Y419750D01*
X27450Y420500D02*X28950D01*
X26700Y419750D02*X27450Y420500D01*
X26700Y419750D02*Y418250D01*
X27450Y417500D01*
X29700Y420500D02*Y418250D01*
X30450Y417500D01*
X27450D02*X28950D01*
X29700Y418250D01*
X33000Y419750D02*Y417500D01*
Y419750D02*X33750Y420500D01*
X35250D01*
X32250D02*X33000Y419750D01*
X37800Y417500D02*X40050D01*
X37050Y418250D02*X37800Y417500D01*
X37050Y419750D02*Y418250D01*
Y419750D02*X37800Y420500D01*
X39300D01*
X40050Y419750D01*
X37050Y419000D02*X40050D01*
Y419750D02*Y419000D01*
X45300Y417500D02*X48300Y423500D01*
X44550D02*X48300D01*
X55800D02*Y417500D01*
X55050D02*X55800Y418250D01*
X53550Y417500D02*X55050D01*
X52800Y418250D02*X53550Y417500D01*
X52800Y419750D02*Y418250D01*
Y419750D02*X53550Y420500D01*
X55050D01*
X55800Y419750D01*
G54D99*X57600Y422000D02*Y421850D01*
G54D98*Y419750D02*Y417500D01*
X59850Y422750D02*Y417500D01*
Y422750D02*X60600Y423500D01*
X61350D01*
X59100Y420500D02*X60600D01*
X63600Y422750D02*Y417500D01*
Y422750D02*X64350Y423500D01*
X65100D01*
X62850Y420500D02*X64350D01*
X67350Y417500D02*X69600D01*
X66600Y418250D02*X67350Y417500D01*
X66600Y419750D02*Y418250D01*
Y419750D02*X67350Y420500D01*
X68850D01*
X69600Y419750D01*
X66600Y419000D02*X69600D01*
Y419750D02*Y419000D01*
X72150Y419750D02*Y417500D01*
Y419750D02*X72900Y420500D01*
X74400D01*
X71400D02*X72150Y419750D01*
X76950Y417500D02*X79200D01*
X76200Y418250D02*X76950Y417500D01*
X76200Y419750D02*Y418250D01*
Y419750D02*X76950Y420500D01*
X78450D01*
X79200Y419750D01*
X76200Y419000D02*X79200D01*
Y419750D02*Y419000D01*
X81750Y419750D02*Y417500D01*
Y419750D02*X82500Y420500D01*
X83250D01*
X84000Y419750D01*
Y417500D01*
X81000Y420500D02*X81750Y419750D01*
X86550Y423500D02*Y418250D01*
X87300Y417500D01*
X85800Y421250D02*X87300D01*
X94500Y423500D02*Y417500D01*
X93750D02*X94500Y418250D01*
X92250Y417500D02*X93750D01*
X91500Y418250D02*X92250Y417500D01*
X91500Y419750D02*Y418250D01*
Y419750D02*X92250Y420500D01*
X93750D01*
X94500Y419750D01*
X97050D02*Y417500D01*
Y419750D02*X97800Y420500D01*
X99300D01*
X96300D02*X97050Y419750D01*
G54D99*X101100Y422000D02*Y421850D01*
G54D98*Y419750D02*Y417500D01*
X102600Y423500D02*Y418250D01*
X103350Y417500D01*
X104850Y423500D02*Y418250D01*
X105600Y417500D01*
X110550D02*X112800D01*
X113550Y418250D01*
X112800Y419000D02*X113550Y418250D01*
X110550Y419000D02*X112800D01*
X109800Y419750D02*X110550Y419000D01*
X109800Y419750D02*X110550Y420500D01*
X112800D01*
X113550Y419750D01*
X109800Y418250D02*X110550Y417500D01*
G54D99*X115350Y422000D02*Y421850D01*
G54D98*Y419750D02*Y417500D01*
X116850Y420500D02*X119850D01*
X116850Y417500D02*X119850Y420500D01*
X116850Y417500D02*X119850D01*
X122400D02*X124650D01*
X121650Y418250D02*X122400Y417500D01*
X121650Y419750D02*Y418250D01*
Y419750D02*X122400Y420500D01*
X123900D01*
X124650Y419750D01*
X121650Y419000D02*X124650D01*
Y419750D02*Y419000D01*
X127200Y417500D02*X129450D01*
X130200Y418250D01*
X129450Y419000D02*X130200Y418250D01*
X127200Y419000D02*X129450D01*
X126450Y419750D02*X127200Y419000D01*
X126450Y419750D02*X127200Y420500D01*
X129450D01*
X130200Y419750D01*
X126450Y418250D02*X127200Y417500D01*
X134700Y420500D02*Y418250D01*
X135450Y417500D01*
X136950D01*
X137700Y418250D01*
Y420500D02*Y418250D01*
X140250Y417500D02*X142500D01*
X143250Y418250D01*
X142500Y419000D02*X143250Y418250D01*
X140250Y419000D02*X142500D01*
X139500Y419750D02*X140250Y419000D01*
X139500Y419750D02*X140250Y420500D01*
X142500D01*
X143250Y419750D01*
X139500Y418250D02*X140250Y417500D01*
X145800D02*X148050D01*
X145050Y418250D02*X145800Y417500D01*
X145050Y419750D02*Y418250D01*
Y419750D02*X145800Y420500D01*
X147300D01*
X148050Y419750D01*
X145050Y419000D02*X148050D01*
Y419750D02*Y419000D01*
X152850Y423500D02*Y417500D01*
X152100D02*X152850Y418250D01*
X150600Y417500D02*X152100D01*
X149850Y418250D02*X150600Y417500D01*
X149850Y419750D02*Y418250D01*
Y419750D02*X150600Y420500D01*
X152100D01*
X152850Y419750D01*
G54D99*X157350Y422000D02*Y421850D01*
G54D98*Y419750D02*Y417500D01*
X159600Y419750D02*Y417500D01*
Y419750D02*X160350Y420500D01*
X161100D01*
X161850Y419750D01*
Y417500D01*
X158850Y420500D02*X159600Y419750D01*
X167100Y423500D02*Y418250D01*
X167850Y417500D01*
X166350Y421250D02*X167850D01*
X169350Y423500D02*Y417500D01*
Y419750D02*X170100Y420500D01*
X171600D01*
X172350Y419750D01*
Y417500D01*
G54D99*X174150Y422000D02*Y421850D01*
G54D98*Y419750D02*Y417500D01*
X176400D02*X178650D01*
X179400Y418250D01*
X178650Y419000D02*X179400Y418250D01*
X176400Y419000D02*X178650D01*
X175650Y419750D02*X176400Y419000D01*
X175650Y419750D02*X176400Y420500D01*
X178650D01*
X179400Y419750D01*
X175650Y418250D02*X176400Y417500D01*
X183900Y423500D02*Y418250D01*
X184650Y417500D01*
X188400Y420500D02*X189150Y419750D01*
X186900Y420500D02*X188400D01*
X186150Y419750D02*X186900Y420500D01*
X186150Y419750D02*Y418250D01*
X186900Y417500D01*
X189150Y420500D02*Y418250D01*
X189900Y417500D01*
X186900D02*X188400D01*
X189150Y418250D01*
X191700Y420500D02*Y418250D01*
X192450Y417500D01*
X194700Y420500D02*Y416000D01*
X193950Y415250D02*X194700Y416000D01*
X192450Y415250D02*X193950D01*
X191700Y416000D02*X192450Y415250D01*
Y417500D02*X193950D01*
X194700Y418250D01*
X196500Y419750D02*Y418250D01*
Y419750D02*X197250Y420500D01*
X198750D01*
X199500Y419750D01*
Y418250D01*
X198750Y417500D02*X199500Y418250D01*
X197250Y417500D02*X198750D01*
X196500Y418250D02*X197250Y417500D01*
X201300Y420500D02*Y418250D01*
X202050Y417500D01*
X203550D01*
X204300Y418250D01*
Y420500D02*Y418250D01*
X206850Y423500D02*Y418250D01*
X207600Y417500D01*
X206100Y421250D02*X207600D01*
X209100Y416000D02*X210600Y417500D01*
X215100Y422750D02*X215850Y423500D01*
X217350D01*
X218100Y422750D01*
X217350Y417500D02*X218100Y418250D01*
X215850Y417500D02*X217350D01*
X215100Y418250D02*X215850Y417500D01*
Y420800D02*X217350D01*
X218100Y422750D02*Y421550D01*
Y420050D02*Y418250D01*
Y420050D02*X217350Y420800D01*
X218100Y421550D02*X217350Y420800D01*
X219900Y422750D02*X220650Y423500D01*
X222900D01*
X223650Y422750D01*
Y421250D01*
X219900Y417500D02*X223650Y421250D01*
X219900Y417500D02*X223650D01*
X228150Y423500D02*Y417500D01*
Y419750D02*X228900Y420500D01*
X230400D01*
X231150Y419750D01*
Y417500D01*
X232950Y419750D02*Y418250D01*
Y419750D02*X233700Y420500D01*
X235200D01*
X235950Y419750D01*
Y418250D01*
X235200Y417500D02*X235950Y418250D01*
X233700Y417500D02*X235200D01*
X232950Y418250D02*X233700Y417500D01*
X237750Y423500D02*Y418250D01*
X238500Y417500D01*
X240750D02*X243000D01*
X240000Y418250D02*X240750Y417500D01*
X240000Y419750D02*Y418250D01*
Y419750D02*X240750Y420500D01*
X242250D01*
X243000Y419750D01*
X240000Y419000D02*X243000D01*
Y419750D02*Y419000D01*
X245550Y417500D02*X247800D01*
X248550Y418250D01*
X247800Y419000D02*X248550Y418250D01*
X245550Y419000D02*X247800D01*
X244800Y419750D02*X245550Y419000D01*
X244800Y419750D02*X245550Y420500D01*
X247800D01*
X248550Y419750D01*
X244800Y418250D02*X245550Y417500D01*
X253800Y423500D02*Y418250D01*
X254550Y417500D01*
X253050Y421250D02*X254550D01*
X256050Y419750D02*Y418250D01*
Y419750D02*X256800Y420500D01*
X258300D01*
X259050Y419750D01*
Y418250D01*
X258300Y417500D02*X259050Y418250D01*
X256800Y417500D02*X258300D01*
X256050Y418250D02*X256800Y417500D01*
X261600Y423500D02*Y418250D01*
X262350Y417500D01*
X260850Y421250D02*X262350D01*
X266100Y420500D02*X266850Y419750D01*
X264600Y420500D02*X266100D01*
X263850Y419750D02*X264600Y420500D01*
X263850Y419750D02*Y418250D01*
X264600Y417500D01*
X266850Y420500D02*Y418250D01*
X267600Y417500D01*
X264600D02*X266100D01*
X266850Y418250D01*
X269400Y423500D02*Y418250D01*
X270150Y417500D01*
G54D100*X0Y290000D02*X290000D01*
Y0D01*
X0D01*
Y290000D01*
G54D98*X58675Y-9500D02*X61675D01*
X62425Y-8750D01*
Y-6950D02*Y-8750D01*
X61675Y-6200D02*X62425Y-6950D01*
X59425Y-6200D02*X61675D01*
X59425Y-3500D02*Y-9500D01*
X58675Y-3500D02*X61675D01*
X62425Y-4250D01*
Y-5450D01*
X61675Y-6200D02*X62425Y-5450D01*
X64225Y-7250D02*Y-8750D01*
Y-7250D02*X64975Y-6500D01*
X66475D01*
X67225Y-7250D01*
Y-8750D01*
X66475Y-9500D02*X67225Y-8750D01*
X64975Y-9500D02*X66475D01*
X64225Y-8750D02*X64975Y-9500D01*
X71275Y-6500D02*X72025Y-7250D01*
X69775Y-6500D02*X71275D01*
X69025Y-7250D02*X69775Y-6500D01*
X69025Y-7250D02*Y-8750D01*
X69775Y-9500D01*
X72025Y-6500D02*Y-8750D01*
X72775Y-9500D01*
X69775D02*X71275D01*
X72025Y-8750D01*
X75325Y-7250D02*Y-9500D01*
Y-7250D02*X76075Y-6500D01*
X77575D01*
X74575D02*X75325Y-7250D01*
X82375Y-3500D02*Y-9500D01*
X81625D02*X82375Y-8750D01*
X80125Y-9500D02*X81625D01*
X79375Y-8750D02*X80125Y-9500D01*
X79375Y-7250D02*Y-8750D01*
Y-7250D02*X80125Y-6500D01*
X81625D01*
X82375Y-7250D01*
X86875D02*Y-8750D01*
Y-7250D02*X87625Y-6500D01*
X89125D01*
X89875Y-7250D01*
Y-8750D01*
X89125Y-9500D02*X89875Y-8750D01*
X87625Y-9500D02*X89125D01*
X86875Y-8750D02*X87625Y-9500D01*
X91675Y-6500D02*Y-8750D01*
X92425Y-9500D01*
X93925D01*
X94675Y-8750D01*
Y-6500D02*Y-8750D01*
X97225Y-3500D02*Y-8750D01*
X97975Y-9500D01*
X96475Y-5750D02*X97975D01*
X99475Y-3500D02*Y-8750D01*
X100225Y-9500D01*
G54D99*X101725Y-5000D02*Y-5150D01*
G54D98*Y-7250D02*Y-9500D01*
X103975Y-7250D02*Y-9500D01*
Y-7250D02*X104725Y-6500D01*
X105475D01*
X106225Y-7250D01*
Y-9500D01*
X103225Y-6500D02*X103975Y-7250D01*
X108775Y-9500D02*X111025D01*
X108025Y-8750D02*X108775Y-9500D01*
X108025Y-7250D02*Y-8750D01*
Y-7250D02*X108775Y-6500D01*
X110275D01*
X111025Y-7250D01*
X108025Y-8000D02*X111025D01*
Y-7250D02*Y-8000D01*
G54D99*X115525Y-5000D02*Y-5150D01*
G54D98*Y-7250D02*Y-9500D01*
X117775D02*X120025D01*
X120775Y-8750D01*
X120025Y-8000D02*X120775Y-8750D01*
X117775Y-8000D02*X120025D01*
X117025Y-7250D02*X117775Y-8000D01*
X117025Y-7250D02*X117775Y-6500D01*
X120025D01*
X120775Y-7250D01*
X117025Y-8750D02*X117775Y-9500D01*
X126025Y-3500D02*Y-8750D01*
X126775Y-9500D01*
X125275Y-5750D02*X126775D01*
X128275Y-3500D02*Y-9500D01*
Y-7250D02*X129025Y-6500D01*
X130525D01*
X131275Y-7250D01*
Y-9500D01*
X133825D02*X136075D01*
X133075Y-8750D02*X133825Y-9500D01*
X133075Y-7250D02*Y-8750D01*
Y-7250D02*X133825Y-6500D01*
X135325D01*
X136075Y-7250D01*
X133075Y-8000D02*X136075D01*
Y-7250D02*Y-8000D01*
X141325Y-6500D02*X143575D01*
X140575Y-7250D02*X141325Y-6500D01*
X140575Y-7250D02*Y-8750D01*
X141325Y-9500D01*
X143575D01*
X146125D02*X148375D01*
X145375Y-8750D02*X146125Y-9500D01*
X145375Y-7250D02*Y-8750D01*
Y-7250D02*X146125Y-6500D01*
X147625D01*
X148375Y-7250D01*
X145375Y-8000D02*X148375D01*
Y-7250D02*Y-8000D01*
X150925Y-7250D02*Y-9500D01*
Y-7250D02*X151675Y-6500D01*
X152425D01*
X153175Y-7250D01*
Y-9500D01*
X150175Y-6500D02*X150925Y-7250D01*
X155725Y-3500D02*Y-8750D01*
X156475Y-9500D01*
X154975Y-5750D02*X156475D01*
X158725Y-9500D02*X160975D01*
X157975Y-8750D02*X158725Y-9500D01*
X157975Y-7250D02*Y-8750D01*
Y-7250D02*X158725Y-6500D01*
X160225D01*
X160975Y-7250D01*
X157975Y-8000D02*X160975D01*
Y-7250D02*Y-8000D01*
X163525Y-7250D02*Y-9500D01*
Y-7250D02*X164275Y-6500D01*
X165775D01*
X162775D02*X163525Y-7250D01*
X167575Y-3500D02*Y-8750D01*
X168325Y-9500D01*
G54D99*X169825Y-5000D02*Y-5150D01*
G54D98*Y-7250D02*Y-9500D01*
X172075Y-7250D02*Y-9500D01*
Y-7250D02*X172825Y-6500D01*
X173575D01*
X174325Y-7250D01*
Y-9500D01*
X171325Y-6500D02*X172075Y-7250D01*
X176875Y-9500D02*X179125D01*
X176125Y-8750D02*X176875Y-9500D01*
X176125Y-7250D02*Y-8750D01*
Y-7250D02*X176875Y-6500D01*
X178375D01*
X179125Y-7250D01*
X176125Y-8000D02*X179125D01*
Y-7250D02*Y-8000D01*
X183625Y-7250D02*Y-8750D01*
Y-7250D02*X184375Y-6500D01*
X185875D01*
X186625Y-7250D01*
Y-8750D01*
X185875Y-9500D02*X186625Y-8750D01*
X184375Y-9500D02*X185875D01*
X183625Y-8750D02*X184375Y-9500D01*
X189175Y-4250D02*Y-9500D01*
Y-4250D02*X189925Y-3500D01*
X190675D01*
X188425Y-6500D02*X189925D01*
X195625Y-3500D02*Y-8750D01*
X196375Y-9500D01*
X194875Y-5750D02*X196375D01*
X197875Y-3500D02*Y-9500D01*
Y-7250D02*X198625Y-6500D01*
X200125D01*
X200875Y-7250D01*
Y-9500D01*
G54D99*X202675Y-5000D02*Y-5150D01*
G54D98*Y-7250D02*Y-9500D01*
X204925D02*X207175D01*
X207925Y-8750D01*
X207175Y-8000D02*X207925Y-8750D01*
X204925Y-8000D02*X207175D01*
X204175Y-7250D02*X204925Y-8000D01*
X204175Y-7250D02*X204925Y-6500D01*
X207175D01*
X207925Y-7250D01*
X204175Y-8750D02*X204925Y-9500D01*
X213175Y-7250D02*Y-11750D01*
X212425Y-6500D02*X213175Y-7250D01*
X213925Y-6500D01*
X215425D01*
X216175Y-7250D01*
Y-8750D01*
X215425Y-9500D02*X216175Y-8750D01*
X213925Y-9500D02*X215425D01*
X213175Y-8750D02*X213925Y-9500D01*
X220225Y-6500D02*X220975Y-7250D01*
X218725Y-6500D02*X220225D01*
X217975Y-7250D02*X218725Y-6500D01*
X217975Y-7250D02*Y-8750D01*
X218725Y-9500D01*
X220975Y-6500D02*Y-8750D01*
X221725Y-9500D01*
X218725D02*X220225D01*
X220975Y-8750D01*
X224275Y-3500D02*Y-8750D01*
X225025Y-9500D01*
X223525Y-5750D02*X225025D01*
X226525Y-3500D02*Y-9500D01*
Y-7250D02*X227275Y-6500D01*
X228775D01*
X229525Y-7250D01*
Y-9500D01*
X200750Y318500D02*Y312500D01*
X202700Y318500D02*X203750Y317450D01*
Y313550D01*
X202700Y312500D02*X203750Y313550D01*
X200000Y312500D02*X202700D01*
X200000Y318500D02*X202700D01*
X207800Y315500D02*X208550Y314750D01*
X206300Y315500D02*X207800D01*
X205550Y314750D02*X206300Y315500D01*
X205550Y314750D02*Y313250D01*
X206300Y312500D01*
X208550Y315500D02*Y313250D01*
X209300Y312500D01*
X206300D02*X207800D01*
X208550Y313250D01*
X211850Y318500D02*Y313250D01*
X212600Y312500D01*
X211100Y316250D02*X212600D01*
X214850Y312500D02*X217100D01*
X214100Y313250D02*X214850Y312500D01*
X214100Y314750D02*Y313250D01*
Y314750D02*X214850Y315500D01*
X216350D01*
X217100Y314750D01*
X214100Y314000D02*X217100D01*
Y314750D02*Y314000D01*
X218900Y316250D02*X219650D01*
X218900Y314750D02*X219650D01*
X224150Y318500D02*X227150D01*
X225650D02*Y312500D01*
X228950Y315500D02*Y313250D01*
X229700Y312500D01*
X231200D01*
X231950Y313250D01*
Y315500D02*Y313250D01*
X234500Y312500D02*X236750D01*
X233750Y313250D02*X234500Y312500D01*
X233750Y314750D02*Y313250D01*
Y314750D02*X234500Y315500D01*
X236000D01*
X236750Y314750D01*
X233750Y314000D02*X236750D01*
Y314750D02*Y314000D01*
X241250Y317750D02*X242000Y318500D01*
X244250D01*
X245000Y317750D01*
Y316250D01*
X241250Y312500D02*X245000Y316250D01*
X241250Y312500D02*X245000D01*
X247550D02*X250550Y318500D01*
X246800D02*X250550D01*
X255050D02*Y312500D01*
Y318500D02*X257300Y315500D01*
X259550Y318500D01*
Y312500D01*
X263600Y315500D02*X264350Y314750D01*
X262100Y315500D02*X263600D01*
X261350Y314750D02*X262100Y315500D01*
X261350Y314750D02*Y313250D01*
X262100Y312500D01*
X264350Y315500D02*Y313250D01*
X265100Y312500D01*
X262100D02*X263600D01*
X264350Y313250D01*
X266900Y315500D02*Y313250D01*
X267650Y312500D01*
X269900Y315500D02*Y311000D01*
X269150Y310250D02*X269900Y311000D01*
X267650Y310250D02*X269150D01*
X266900Y311000D02*X267650Y310250D01*
Y312500D02*X269150D01*
X269900Y313250D01*
X274400Y317750D02*X275150Y318500D01*
X277400D01*
X278150Y317750D01*
Y316250D01*
X274400Y312500D02*X278150Y316250D01*
X274400Y312500D02*X278150D01*
X279950Y313250D02*X280700Y312500D01*
X279950Y317750D02*Y313250D01*
Y317750D02*X280700Y318500D01*
X282200D01*
X282950Y317750D01*
Y313250D01*
X282200Y312500D02*X282950Y313250D01*
X280700Y312500D02*X282200D01*
X279950Y314000D02*X282950Y317000D01*
X284750Y317300D02*X285950Y318500D01*
Y312500D01*
X284750D02*X287000D01*
X288800Y314750D02*X291800Y318500D01*
X288800Y314750D02*X292550D01*
X291800Y318500D02*Y312500D01*
X297050Y313250D02*X297800Y312500D01*
X297050Y317750D02*Y313250D01*
Y317750D02*X297800Y318500D01*
X299300D01*
X300050Y317750D01*
Y313250D01*
X299300Y312500D02*X300050Y313250D01*
X297800Y312500D02*X299300D01*
X297050Y314000D02*X300050Y317000D01*
X301850Y317750D02*X302600Y318500D01*
X304850D01*
X305600Y317750D01*
Y316250D01*
X301850Y312500D02*X305600Y316250D01*
X301850Y312500D02*X305600D01*
X307400Y316250D02*X308150D01*
X307400Y314750D02*X308150D01*
X309950Y317300D02*X311150Y318500D01*
Y312500D01*
X309950D02*X312200D01*
X314750D02*X317750Y318500D01*
X314000D02*X317750D01*
X319550Y316250D02*X320300D01*
X319550Y314750D02*X320300D01*
X322100Y318500D02*X325100D01*
X322100D02*Y315500D01*
X322850Y316250D01*
X324350D01*
X325100Y315500D01*
Y313250D01*
X324350Y312500D02*X325100Y313250D01*
X322850Y312500D02*X324350D01*
X322100Y313250D02*X322850Y312500D01*
X326900Y313250D02*X327650Y312500D01*
X326900Y314450D02*Y313250D01*
Y314450D02*X327950Y315500D01*
X328850D01*
X329900Y314450D01*
Y313250D01*
X329150Y312500D02*X329900Y313250D01*
X327650Y312500D02*X329150D01*
X326900Y316550D02*X327950Y315500D01*
X326900Y317750D02*Y316550D01*
Y317750D02*X327650Y318500D01*
X329150D01*
X329900Y317750D01*
Y316550D01*
X328850Y315500D02*X329900Y316550D01*
X334400Y317000D02*Y312500D01*
Y317000D02*X335450Y318500D01*
X337100D01*
X338150Y317000D01*
Y312500D01*
X334400Y315500D02*X338150D01*
X339950Y318500D02*Y312500D01*
Y318500D02*X342200Y315500D01*
X344450Y318500D01*
Y312500D01*
X351950Y318500D02*X352700Y317750D01*
X349700Y318500D02*X351950D01*
X348950Y317750D02*X349700Y318500D01*
X348950Y317750D02*Y313250D01*
X349700Y312500D01*
X351950D01*
X352700Y313250D01*
Y314750D02*Y313250D01*
X351950Y315500D02*X352700Y314750D01*
X350450Y315500D02*X351950D01*
X354500Y318500D02*Y312500D01*
Y318500D02*X356750Y315500D01*
X359000Y318500D01*
Y312500D01*
X360800Y318500D02*X363800D01*
X362300D02*Y312500D01*
X368300Y318500D02*Y313250D01*
X369050Y312500D01*
X370550D01*
X371300Y313250D01*
Y318500D02*Y313250D01*
X373100Y318500D02*X376100D01*
X374600D02*Y312500D01*
X378950D02*X380900D01*
X377900Y313550D02*X378950Y312500D01*
X377900Y317450D02*Y313550D01*
Y317450D02*X378950Y318500D01*
X380900D01*
X200000Y332000D02*Y327500D01*
Y332000D02*X201050Y333500D01*
X202700D01*
X203750Y332000D01*
Y327500D01*
X200000Y330500D02*X203750D01*
X205550D02*Y328250D01*
X206300Y327500D01*
X207800D01*
X208550Y328250D01*
Y330500D02*Y328250D01*
X211100Y333500D02*Y328250D01*
X211850Y327500D01*
X210350Y331250D02*X211850D01*
X213350Y333500D02*Y327500D01*
Y329750D02*X214100Y330500D01*
X215600D01*
X216350Y329750D01*
Y327500D01*
X218150Y329750D02*Y328250D01*
Y329750D02*X218900Y330500D01*
X220400D01*
X221150Y329750D01*
Y328250D01*
X220400Y327500D02*X221150Y328250D01*
X218900Y327500D02*X220400D01*
X218150Y328250D02*X218900Y327500D01*
X223700Y329750D02*Y327500D01*
Y329750D02*X224450Y330500D01*
X225950D01*
X222950D02*X223700Y329750D01*
X227750Y331250D02*X228500D01*
X227750Y329750D02*X228500D01*
X233000Y333500D02*Y327500D01*
Y333500D02*X235250Y330500D01*
X237500Y333500D01*
Y327500D01*
G54D99*X239300Y332000D02*Y331850D01*
G54D98*Y329750D02*Y327500D01*
X241550Y330500D02*X243800D01*
X240800Y329750D02*X241550Y330500D01*
X240800Y329750D02*Y328250D01*
X241550Y327500D01*
X243800D01*
X245600Y333500D02*Y327500D01*
Y329750D02*X246350Y330500D01*
X247850D01*
X248600Y329750D01*
Y327500D01*
X252650Y330500D02*X253400Y329750D01*
X251150Y330500D02*X252650D01*
X250400Y329750D02*X251150Y330500D01*
X250400Y329750D02*Y328250D01*
X251150Y327500D01*
X253400Y330500D02*Y328250D01*
X254150Y327500D01*
X251150D02*X252650D01*
X253400Y328250D01*
X256700Y327500D02*X258950D01*
X255950Y328250D02*X256700Y327500D01*
X255950Y329750D02*Y328250D01*
Y329750D02*X256700Y330500D01*
X258200D01*
X258950Y329750D01*
X255950Y329000D02*X258950D01*
Y329750D02*Y329000D01*
X260750Y333500D02*Y328250D01*
X261500Y327500D01*
X266450Y333500D02*Y327500D01*
X265700Y333500D02*X268700D01*
X269450Y332750D01*
Y331250D01*
X268700Y330500D02*X269450Y331250D01*
X266450Y330500D02*X268700D01*
X272000Y327500D02*X274250D01*
X271250Y328250D02*X272000Y327500D01*
X271250Y329750D02*Y328250D01*
Y329750D02*X272000Y330500D01*
X273500D01*
X274250Y329750D01*
X271250Y329000D02*X274250D01*
Y329750D02*Y329000D01*
X276800Y333500D02*Y328250D01*
X277550Y327500D01*
X276050Y331250D02*X277550D01*
X279800Y327500D02*X282050D01*
X279050Y328250D02*X279800Y327500D01*
X279050Y329750D02*Y328250D01*
Y329750D02*X279800Y330500D01*
X281300D01*
X282050Y329750D01*
X279050Y329000D02*X282050D01*
Y329750D02*Y329000D01*
X284600Y329750D02*Y327500D01*
Y329750D02*X285350Y330500D01*
X286850D01*
X283850D02*X284600Y329750D01*
X289400Y327500D02*X291650D01*
X292400Y328250D01*
X291650Y329000D02*X292400Y328250D01*
X289400Y329000D02*X291650D01*
X288650Y329750D02*X289400Y329000D01*
X288650Y329750D02*X289400Y330500D01*
X291650D01*
X292400Y329750D01*
X288650Y328250D02*X289400Y327500D01*
X294950D02*X297200D01*
X294200Y328250D02*X294950Y327500D01*
X294200Y329750D02*Y328250D01*
Y329750D02*X294950Y330500D01*
X296450D01*
X297200Y329750D01*
X294200Y329000D02*X297200D01*
Y329750D02*Y329000D01*
X299750Y329750D02*Y327500D01*
Y329750D02*X300500Y330500D01*
X301250D01*
X302000Y329750D01*
Y327500D01*
X299000Y330500D02*X299750Y329750D01*
X200000Y348500D02*X203000D01*
X201500D02*Y342500D01*
G54D99*X204800Y347000D02*Y346850D01*
G54D98*Y344750D02*Y342500D01*
X207050Y348500D02*Y343250D01*
X207800Y342500D01*
X206300Y346250D02*X207800D01*
X209300Y348500D02*Y343250D01*
X210050Y342500D01*
X212300D02*X214550D01*
X211550Y343250D02*X212300Y342500D01*
X211550Y344750D02*Y343250D01*
Y344750D02*X212300Y345500D01*
X213800D01*
X214550Y344750D01*
X211550Y344000D02*X214550D01*
Y344750D02*Y344000D01*
X216350Y346250D02*X217100D01*
X216350Y344750D02*X217100D01*
X221600Y343250D02*X222350Y342500D01*
X221600Y347750D02*X222350Y348500D01*
X221600Y347750D02*Y343250D01*
X224150Y345500D02*Y343250D01*
X224900Y342500D01*
X226400D01*
X227150Y343250D01*
Y345500D02*Y343250D01*
X229700Y344750D02*Y342500D01*
Y344750D02*X230450Y345500D01*
X231200D01*
X231950Y344750D01*
Y342500D01*
X228950Y345500D02*X229700Y344750D01*
X233750Y348500D02*Y342500D01*
Y344750D02*X236000Y342500D01*
X233750Y344750D02*X235250Y346250D01*
X238550Y344750D02*Y342500D01*
Y344750D02*X239300Y345500D01*
X240050D01*
X240800Y344750D01*
Y342500D01*
X237800Y345500D02*X238550Y344750D01*
X242600D02*Y343250D01*
Y344750D02*X243350Y345500D01*
X244850D01*
X245600Y344750D01*
Y343250D01*
X244850Y342500D02*X245600Y343250D01*
X243350Y342500D02*X244850D01*
X242600Y343250D02*X243350Y342500D01*
X247400Y345500D02*Y343250D01*
X248150Y342500D01*
X248900D01*
X249650Y343250D01*
Y345500D02*Y343250D01*
X250400Y342500D01*
X251150D01*
X251900Y343250D01*
Y345500D02*Y343250D01*
X254450Y344750D02*Y342500D01*
Y344750D02*X255200Y345500D01*
X255950D01*
X256700Y344750D01*
Y342500D01*
X253700Y345500D02*X254450Y344750D01*
X258500Y348500D02*X259250Y347750D01*
Y343250D01*
X258500Y342500D02*X259250Y343250D01*
X263750Y345500D02*X266750D01*
X271250Y348500D02*Y342500D01*
Y348500D02*X274250D01*
X271250Y345800D02*X273500D01*
X278300Y345500D02*X279050Y344750D01*
X276800Y345500D02*X278300D01*
X276050Y344750D02*X276800Y345500D01*
X276050Y344750D02*Y343250D01*
X276800Y342500D01*
X279050Y345500D02*Y343250D01*
X279800Y342500D01*
X276800D02*X278300D01*
X279050Y343250D01*
X281600Y348500D02*Y342500D01*
Y343250D02*X282350Y342500D01*
X283850D01*
X284600Y343250D01*
Y344750D02*Y343250D01*
X283850Y345500D02*X284600Y344750D01*
X282350Y345500D02*X283850D01*
X281600Y344750D02*X282350Y345500D01*
X287150Y344750D02*Y342500D01*
Y344750D02*X287900Y345500D01*
X289400D01*
X286400D02*X287150Y344750D01*
G54D99*X291200Y347000D02*Y346850D01*
G54D98*Y344750D02*Y342500D01*
X293450Y345500D02*X295700D01*
X292700Y344750D02*X293450Y345500D01*
X292700Y344750D02*Y343250D01*
X293450Y342500D01*
X295700D01*
X299750Y345500D02*X300500Y344750D01*
X298250Y345500D02*X299750D01*
X297500Y344750D02*X298250Y345500D01*
X297500Y344750D02*Y343250D01*
X298250Y342500D01*
X300500Y345500D02*Y343250D01*
X301250Y342500D01*
X298250D02*X299750D01*
X300500Y343250D01*
X303800Y348500D02*Y343250D01*
X304550Y342500D01*
X303050Y346250D02*X304550D01*
G54D99*X306050Y347000D02*Y346850D01*
G54D98*Y344750D02*Y342500D01*
X307550Y344750D02*Y343250D01*
Y344750D02*X308300Y345500D01*
X309800D01*
X310550Y344750D01*
Y343250D01*
X309800Y342500D02*X310550Y343250D01*
X308300Y342500D02*X309800D01*
X307550Y343250D02*X308300Y342500D01*
X313100Y344750D02*Y342500D01*
Y344750D02*X313850Y345500D01*
X314600D01*
X315350Y344750D01*
Y342500D01*
X312350Y345500D02*X313100Y344750D01*
X320600Y348500D02*Y342500D01*
X322550Y348500D02*X323600Y347450D01*
Y343550D01*
X322550Y342500D02*X323600Y343550D01*
X319850Y342500D02*X322550D01*
X319850Y348500D02*X322550D01*
X326150Y344750D02*Y342500D01*
Y344750D02*X326900Y345500D01*
X328400D01*
X325400D02*X326150Y344750D01*
X332450Y345500D02*X333200Y344750D01*
X330950Y345500D02*X332450D01*
X330200Y344750D02*X330950Y345500D01*
X330200Y344750D02*Y343250D01*
X330950Y342500D01*
X333200Y345500D02*Y343250D01*
X333950Y342500D01*
X330950D02*X332450D01*
X333200Y343250D01*
X335750Y345500D02*Y343250D01*
X336500Y342500D01*
X337250D01*
X338000Y343250D01*
Y345500D02*Y343250D01*
X338750Y342500D01*
X339500D01*
X340250Y343250D01*
Y345500D02*Y343250D01*
G54D99*X342050Y347000D02*Y346850D01*
G54D98*Y344750D02*Y342500D01*
X344300Y344750D02*Y342500D01*
Y344750D02*X345050Y345500D01*
X345800D01*
X346550Y344750D01*
Y342500D01*
X343550Y345500D02*X344300Y344750D01*
X350600Y345500D02*X351350Y344750D01*
X349100Y345500D02*X350600D01*
X348350Y344750D02*X349100Y345500D01*
X348350Y344750D02*Y343250D01*
X349100Y342500D01*
X350600D01*
X351350Y343250D01*
X348350Y341000D02*X349100Y340250D01*
X350600D01*
X351350Y341000D01*
Y345500D02*Y341000D01*
M02*
