G04 start of page 9 for group -4078 idx -4078 *
G04 Title: (unknown), bottomsilk *
G04 Creator: pcb 20110918 *
G04 CreationDate: Tue 27 May 2014 02:17:58 AM GMT UTC *
G04 For: railfan *
G04 Format: Gerber/RS-274X *
G04 PCB-Dimensions: 290000 290000 *
G04 PCB-Coordinate-Origin: lower left *
%MOIN*%
%FSLAX25Y25*%
%LNBOTTOMSILK*%
%ADD87C,0.0100*%
G54D87*X500Y500D02*X289500D01*
Y289500D01*
X500D01*
Y500D01*
X112000Y93500D02*X113000D01*
X112500D02*Y97500D01*
X112000D02*X113000D01*
X114200Y96000D02*Y97000D01*
Y96000D02*X114700Y95500D01*
X115700D01*
X116200Y96000D01*
Y97000D01*
X115700Y97500D02*X116200Y97000D01*
X114700Y97500D02*X115700D01*
X114200Y97000D02*X114700Y97500D01*
X117400Y95500D02*Y97000D01*
X117900Y97500D01*
X118400D01*
X118900Y97000D01*
Y95500D02*Y97000D01*
X119400Y97500D01*
X119900D01*
X120400Y97000D01*
Y95500D02*Y97000D01*
X123100Y95500D02*X123600Y96000D01*
X122100Y95500D02*X123100D01*
X121600Y96000D02*X122100Y95500D01*
X121600Y96000D02*Y97000D01*
X122100Y97500D01*
X123600Y95500D02*Y97000D01*
X124100Y97500D01*
X122100D02*X123100D01*
X123600Y97000D01*
X129100Y93500D02*X129600Y94000D01*
X127600Y93500D02*X129100D01*
X127100Y94000D02*X127600Y93500D01*
X127100Y94000D02*Y95000D01*
X127600Y95500D01*
X129100D01*
X129600Y96000D01*
Y97000D01*
X129100Y97500D02*X129600Y97000D01*
X127600Y97500D02*X129100D01*
X127100Y97000D02*X127600Y97500D01*
X131300Y95500D02*X132800D01*
X130800Y96000D02*X131300Y95500D01*
X130800Y96000D02*Y97000D01*
X131300Y97500D01*
X132800D01*
X135500Y95500D02*X136000Y96000D01*
X134500Y95500D02*X135500D01*
X134000Y96000D02*X134500Y95500D01*
X134000Y96000D02*Y97000D01*
X134500Y97500D01*
X136000Y95500D02*Y97000D01*
X136500Y97500D01*
X134500D02*X135500D01*
X136000Y97000D01*
X137700Y93500D02*Y97000D01*
X138200Y97500D01*
X139700D02*X141200D01*
X139200Y97000D02*X139700Y97500D01*
X139200Y96000D02*Y97000D01*
Y96000D02*X139700Y95500D01*
X140700D01*
X141200Y96000D01*
X139200Y96500D02*X141200D01*
Y96000D02*Y96500D01*
X144400Y93500D02*Y97500D01*
X143900D02*X144400Y97000D01*
X142900Y97500D02*X143900D01*
X142400Y97000D02*X142900Y97500D01*
X142400Y96000D02*Y97000D01*
Y96000D02*X142900Y95500D01*
X143900D01*
X144400Y96000D01*
X147400Y95300D02*X148900D01*
X147400Y97500D02*X149400D01*
X147400Y93500D02*Y97500D01*
Y93500D02*X149400D01*
X151100Y96000D02*Y97500D01*
Y96000D02*X151600Y95500D01*
X152100D01*
X152600Y96000D01*
Y97500D01*
X150600Y95500D02*X151100Y96000D01*
X155300Y95500D02*X155800Y96000D01*
X154300Y95500D02*X155300D01*
X153800Y96000D02*X154300Y95500D01*
X153800Y96000D02*Y97000D01*
X154300Y97500D01*
X155300D01*
X155800Y97000D01*
X153800Y98500D02*X154300Y99000D01*
X155300D01*
X155800Y98500D01*
Y95500D02*Y98500D01*
X157000Y94500D02*Y94600D01*
Y96000D02*Y97500D01*
X158500Y96000D02*Y97500D01*
Y96000D02*X159000Y95500D01*
X159500D01*
X160000Y96000D01*
Y97500D01*
X158000Y95500D02*X158500Y96000D01*
X161700Y97500D02*X163200D01*
X161200Y97000D02*X161700Y97500D01*
X161200Y96000D02*Y97000D01*
Y96000D02*X161700Y95500D01*
X162700D01*
X163200Y96000D01*
X161200Y96500D02*X163200D01*
Y96000D02*Y96500D01*
X164900Y97500D02*X166400D01*
X164400Y97000D02*X164900Y97500D01*
X164400Y96000D02*Y97000D01*
Y96000D02*X164900Y95500D01*
X165900D01*
X166400Y96000D01*
X164400Y96500D02*X166400D01*
Y96000D02*Y96500D01*
X168100Y96000D02*Y97500D01*
Y96000D02*X168600Y95500D01*
X169600D01*
X167600D02*X168100Y96000D01*
X170800Y94500D02*Y94600D01*
Y96000D02*Y97500D01*
X172300Y96000D02*Y97500D01*
Y96000D02*X172800Y95500D01*
X173300D01*
X173800Y96000D01*
Y97500D01*
X171800Y95500D02*X172300Y96000D01*
X176500Y95500D02*X177000Y96000D01*
X175500Y95500D02*X176500D01*
X175000Y96000D02*X175500Y95500D01*
X175000Y96000D02*Y97000D01*
X175500Y97500D01*
X176500D01*
X177000Y97000D01*
X175000Y98500D02*X175500Y99000D01*
X176500D01*
X177000Y98500D01*
Y95500D02*Y98500D01*
X116500Y102500D02*Y106500D01*
Y105000D02*X117000Y104500D01*
X118000D01*
X118500Y105000D01*
Y106500D01*
X120200Y102500D02*Y106000D01*
X120700Y106500D01*
X119700Y104000D02*X120700D01*
X122200Y102500D02*Y106000D01*
X122700Y106500D01*
X121700Y104000D02*X122700D01*
X124200Y105000D02*Y108000D01*
X123700Y104500D02*X124200Y105000D01*
X124700Y104500D01*
X125700D01*
X126200Y105000D01*
Y106000D01*
X125700Y106500D02*X126200Y106000D01*
X124700Y106500D02*X125700D01*
X124200Y106000D02*X124700Y106500D01*
X127400Y104000D02*X127900D01*
X127400Y105000D02*X127900D01*
X129100Y106000D02*X132100Y103000D01*
X133300Y106000D02*X136300Y103000D01*
X137500Y103500D02*Y103600D01*
Y105000D02*Y106500D01*
X140000Y104500D02*X140500Y105000D01*
X139000Y104500D02*X140000D01*
X138500Y105000D02*X139000Y104500D01*
X138500Y105000D02*Y106000D01*
X139000Y106500D01*
X140500Y104500D02*Y106000D01*
X141000Y106500D01*
X139000D02*X140000D01*
X140500Y106000D01*
X142700Y106500D02*X144200D01*
X144700Y106000D01*
X144200Y105500D02*X144700Y106000D01*
X142700Y105500D02*X144200D01*
X142200Y105000D02*X142700Y105500D01*
X142200Y105000D02*X142700Y104500D01*
X144200D01*
X144700Y105000D01*
X142200Y106000D02*X142700Y106500D01*
X146400Y104500D02*X147900D01*
X145900Y105000D02*X146400Y104500D01*
X145900Y105000D02*Y106000D01*
X146400Y106500D01*
X147900D01*
X150600Y104500D02*X151100Y105000D01*
X149600Y104500D02*X150600D01*
X149100Y105000D02*X149600Y104500D01*
X149100Y105000D02*Y106000D01*
X149600Y106500D01*
X151100Y104500D02*Y106000D01*
X151600Y106500D01*
X149600D02*X150600D01*
X151100Y106000D01*
X152800Y102500D02*Y106000D01*
X153300Y106500D01*
X154800D02*X156300D01*
X154300Y106000D02*X154800Y106500D01*
X154300Y105000D02*Y106000D01*
Y105000D02*X154800Y104500D01*
X155800D01*
X156300Y105000D01*
X154300Y105500D02*X156300D01*
Y105000D02*Y105500D01*
X159500Y102500D02*Y106500D01*
X159000D02*X159500Y106000D01*
X158000Y106500D02*X159000D01*
X157500Y106000D02*X158000Y106500D01*
X157500Y105000D02*Y106000D01*
Y105000D02*X158000Y104500D01*
X159000D01*
X159500Y105000D01*
X160700Y106500D02*X161200D01*
X162900Y104500D02*X164400D01*
X162400Y105000D02*X162900Y104500D01*
X162400Y105000D02*Y106000D01*
X162900Y106500D01*
X164400D01*
X165600Y105000D02*Y106000D01*
Y105000D02*X166100Y104500D01*
X167100D01*
X167600Y105000D01*
Y106000D01*
X167100Y106500D02*X167600Y106000D01*
X166100Y106500D02*X167100D01*
X165600Y106000D02*X166100Y106500D01*
X169300Y105000D02*Y106500D01*
Y105000D02*X169800Y104500D01*
X170300D01*
X170800Y105000D01*
Y106500D01*
Y105000D02*X171300Y104500D01*
X171800D01*
X172300Y105000D01*
Y106500D01*
X168800Y104500D02*X169300Y105000D01*
X119000Y118000D02*Y122000D01*
X118500Y118000D02*X120500D01*
X121000Y118500D01*
Y119500D01*
X120500Y120000D02*X121000Y119500D01*
X119000Y120000D02*X120500D01*
X124200Y118000D02*X124700Y118500D01*
X122700Y118000D02*X124200D01*
X122200Y118500D02*X122700Y118000D01*
X122200Y118500D02*Y119500D01*
X122700Y120000D01*
X124200D01*
X124700Y120500D01*
Y121500D01*
X124200Y122000D02*X124700Y121500D01*
X122700Y122000D02*X124200D01*
X122200Y121500D02*X122700Y122000D01*
X125900Y118000D02*Y121500D01*
X126400Y122000D01*
X127400D01*
X127900Y121500D01*
Y118000D02*Y121500D01*
X129100Y120000D02*X131100D01*
X132300Y120500D02*X134300Y118000D01*
X132300Y120500D02*X134800D01*
X134300Y118000D02*Y122000D01*
X136000Y121500D02*X136500Y122000D01*
X136000Y118500D02*Y121500D01*
Y118500D02*X136500Y118000D01*
X137500D01*
X138000Y118500D01*
Y121500D01*
X137500Y122000D02*X138000Y121500D01*
X136500Y122000D02*X137500D01*
X136000Y121000D02*X138000Y119000D01*
X139200Y121500D02*X139700Y122000D01*
X139200Y118500D02*Y121500D01*
Y118500D02*X139700Y118000D01*
X140700D01*
X141200Y118500D01*
Y121500D01*
X140700Y122000D02*X141200Y121500D01*
X139700Y122000D02*X140700D01*
X139200Y121000D02*X141200Y119000D01*
X142400Y118000D02*Y120000D01*
X142900Y122000D01*
X143900Y120000D01*
X144900Y122000D01*
X145400Y120000D01*
Y118000D02*Y120000D01*
X146600D02*X148600D01*
X150300Y118000D02*Y122000D01*
X149800Y118000D02*X151800D01*
X152300Y118500D01*
Y119500D01*
X151800Y120000D02*X152300Y119500D01*
X150300Y120000D02*X151800D01*
X153500Y118000D02*X155500D01*
X156000Y118500D01*
Y119500D01*
X155500Y120000D02*X156000Y119500D01*
X154000Y120000D02*X155500D01*
X154000Y118000D02*Y122000D01*
X154800Y120000D02*X156000Y122000D01*
X157200Y119800D02*X158700D01*
X157200Y122000D02*X159200D01*
X157200Y118000D02*Y122000D01*
Y118000D02*X159200D01*
X160400D02*X162400D01*
X162900Y118500D01*
Y119500D01*
X162400Y120000D02*X162900Y119500D01*
X160900Y120000D02*X162400D01*
X160900Y118000D02*Y122000D01*
X161700Y120000D02*X162900Y122000D01*
X164100Y119800D02*X165600D01*
X164100Y122000D02*X166100D01*
X164100Y118000D02*Y122000D01*
Y118000D02*X166100D01*
X169300D02*X169800Y118500D01*
X167800Y118000D02*X169300D01*
X167300Y118500D02*X167800Y118000D01*
X167300Y118500D02*Y121500D01*
X167800Y122000D01*
X169300D01*
X169800Y121500D01*
Y120500D02*Y121500D01*
X169300Y120000D02*X169800Y120500D01*
X168300Y120000D02*X169300D01*
X139500Y133000D02*X140500Y135000D01*
X141500Y133000D02*X140500Y135000D01*
X142700Y131800D02*X143500Y131000D01*
Y135000D01*
X142700D02*X144200D01*
X145400D02*X145900D01*
X147100Y134500D02*X147600Y135000D01*
X147100Y131500D02*Y134500D01*
Y131500D02*X147600Y131000D01*
X148600D01*
X149100Y131500D01*
Y134500D01*
X148600Y135000D02*X149100Y134500D01*
X147600Y135000D02*X148600D01*
X147100Y134000D02*X149100Y132000D01*
M02*
