G04 start of page 8 for group -4079 idx -4079 *
G04 Title: (unknown), topsilk *
G04 Creator: pcb 20110918 *
G04 CreationDate: Tue 27 May 2014 02:17:58 AM GMT UTC *
G04 For: railfan *
G04 Format: Gerber/RS-274X *
G04 PCB-Dimensions: 290000 290000 *
G04 PCB-Coordinate-Origin: lower left *
%MOIN*%
%FSLAX25Y25*%
%LNTOPSILK*%
%ADD86C,0.0200*%
%ADD85C,0.0100*%
G54D85*X15702Y194630D02*X31457D01*
X15702D02*Y178858D01*
X500Y289500D02*X289500D01*
Y500D01*
X500D02*Y289500D01*
X289500Y500D02*X500D01*
X15702Y178859D02*G75*G03X31456Y194613I0J15754D01*G01*
X205000Y284500D02*X207000D01*
X206000Y285500D02*Y283500D01*
X203800Y283300D02*X203000Y282500D01*
Y286500D02*Y282500D01*
X202300Y286500D02*X203800D01*
X201100Y283000D02*X200600Y282500D01*
X199100D02*X200600D01*
X199100D02*X198600Y283000D01*
Y284000D02*Y283000D01*
X201100Y286500D02*X198600Y284000D01*
Y286500D02*X201100D01*
X197400Y282500D02*X196400Y286500D01*
X195400Y282500D01*
X183000Y286500D02*X184300D01*
X185000Y285800D02*X184300Y286500D01*
X185000Y285800D02*Y283200D01*
X184300Y282500D01*
X183000D02*X184300D01*
X181800Y286000D02*Y283000D01*
X181300Y282500D01*
X180300D02*X181300D01*
X180300D02*X179800Y283000D01*
Y286000D02*Y283000D01*
X180300Y286500D02*X179800Y286000D01*
X180300Y286500D02*X181300D01*
X181800Y286000D02*X181300Y286500D01*
X178600D02*Y282500D01*
X177100Y284500D01*
X175600Y282500D01*
Y286500D02*Y282500D01*
X165000Y284500D02*X167000D01*
X163800Y283300D02*X163000Y282500D01*
Y286500D02*Y282500D01*
X162300Y286500D02*X163800D01*
X161100Y283000D02*X160600Y282500D01*
X159100D02*X160600D01*
X159100D02*X158600Y283000D01*
Y284000D02*Y283000D01*
X161100Y286500D02*X158600Y284000D01*
Y286500D02*X161100D01*
X157400Y282500D02*X156400Y286500D01*
X155400Y282500D01*
X247000Y286500D02*Y283500D01*
X246300Y282500D01*
X245200D02*X246300D01*
X245200D02*X244500Y283500D01*
Y286500D02*Y283500D01*
Y284500D02*X247000D01*
X226000Y286500D02*Y282500D01*
Y284500D02*X224000Y282500D01*
X226000Y284500D02*X224000Y286500D01*
X5200Y164500D02*X6100Y163600D01*
Y162700D01*
X5200Y161800D01*
Y160900D01*
X6100Y160000D01*
X7500Y144500D02*Y143500D01*
X3500Y144000D02*X7500D01*
X3500Y144500D02*Y143500D01*
Y142300D02*X7500D01*
X3500Y139800D01*
X7500D01*
X5200Y124500D02*X6100Y123600D01*
Y122700D01*
X5200Y121800D01*
Y120900D01*
X6100Y120000D01*
X4000Y71000D02*X7000D01*
X7500Y70500D01*
Y69500D01*
X7000Y69000D01*
X4000D02*X7000D01*
X3500Y69500D02*X4000Y69000D01*
X3500Y70500D02*Y69500D01*
X4000Y71000D02*X3500Y70500D01*
X4000Y67800D02*X7500D01*
X4000D02*X3500Y67300D01*
Y66300D01*
X4000Y65800D01*
X7500D01*
Y64600D02*Y62600D01*
X3500Y63600D02*X7500D01*
X5200Y49500D02*X6100Y48600D01*
Y47700D01*
X5200Y46800D01*
Y45900D01*
X6100Y45000D01*
X5200Y89500D02*X6100Y88600D01*
Y87700D01*
X5200Y86800D01*
Y85900D01*
X6100Y85000D01*
X10300Y172000D02*Y112000D01*
X45700Y172000D02*Y112000D01*
X40800Y172000D02*Y112000D01*
X10300Y172000D02*X45700D01*
X10300Y112000D02*X45700D01*
G54D86*X61100Y130900D02*X78900D01*
G54D85*X81400Y137900D01*
Y172100D02*Y137900D01*
X58600Y172100D02*X81400D01*
X58600D02*Y137900D01*
X61100Y130900D01*
G54D86*X94100D02*X111900D01*
G54D85*X114400Y137900D01*
Y172100D02*Y137900D01*
X91600Y172100D02*X114400D01*
X91600D02*Y137900D01*
X94100Y130900D01*
X741Y289512D02*X145230D01*
X741D02*Y182425D01*
X145230Y289512D02*Y182425D01*
X741D02*X145230D01*
X10300Y97000D02*Y37000D01*
X45700Y97000D02*Y37000D01*
X40800Y97000D02*Y37000D01*
X10300Y97000D02*X45700D01*
X10300Y37000D02*X45700D01*
X61000Y127000D02*X211000D01*
X61000Y87000D02*X211000D01*
X61000D02*Y127000D01*
X211000Y87000D02*Y127000D01*
X276209Y121280D02*Y93720D01*
X232709Y121280D02*X276209D01*
X232709Y93720D02*X276209D01*
X232709Y121280D02*Y111700D01*
X244209D01*
X232709Y103300D02*Y93720D01*
Y103300D02*X244209D01*
Y111700D02*Y103300D01*
X55500Y14000D02*X183500D01*
X55500Y79000D02*X183500D01*
Y14000D01*
X55500Y79000D02*Y14000D01*
X220343Y62685D02*Y23315D01*
X198689Y73000D02*Y13000D01*
X204595Y62685D02*Y23315D01*
X198689Y62685D02*X220343D01*
X198689Y23315D02*X220343D01*
X193500Y83000D02*Y3000D01*
X233500D01*
Y13000D02*Y3000D01*
X198689Y13000D02*X233500D01*
X193500Y83000D02*X233500D01*
Y73000D01*
X198689D02*X233500D01*
X264607Y76745D02*X265393D01*
X264607Y82255D02*X265393D01*
X261107Y130245D02*X261893D01*
X261107Y135755D02*X261893D01*
X264607Y71255D02*X265393D01*
X264607Y65745D02*X265393D01*
X263032Y60314D02*X266968D01*
X263032Y49686D02*X266968D01*
X275870Y233795D02*Y226000D01*
Y216000D02*Y208205D01*
X247130D02*X275870D01*
X247130Y233795D02*Y208205D01*
Y233795D02*X275870D01*
Y226000D02*G75*G03X275870Y216000I0J-5000D01*G01*
G54D86*X127100Y130900D02*X144900D01*
G54D85*X147400Y137900D01*
Y172100D02*Y137900D01*
X124600Y172100D02*X147400D01*
X124600D02*Y137900D01*
X127100Y130900D01*
G54D86*X160100D02*X177900D01*
G54D85*X180400Y137900D01*
Y172100D02*Y137900D01*
X157600Y172100D02*X180400D01*
X157600D02*Y137900D01*
X160100Y130900D01*
X220607Y125255D02*X221393D01*
X220607Y119745D02*X221393D01*
X237107Y135755D02*X237893D01*
X237107Y130245D02*X237893D01*
X226000Y168500D02*Y161000D01*
Y151000D02*Y143500D01*
X194000D02*X226000D01*
X194000Y168500D02*Y143500D01*
Y168500D02*X226000D01*
Y161000D02*G75*G03X226000Y151000I0J-5000D01*G01*
X278209Y173858D02*Y146142D01*
X268200D02*X278209D01*
X251791D02*X261800D01*
X251791Y173858D02*Y146142D01*
X258200Y173858D02*X271800D01*
X265000Y164260D02*Y158260D01*
X262000Y161260D02*X268000D01*
X265000Y166260D02*G75*G03X265000Y166260I0J-5000D01*G01*
X244246Y67121D02*Y53221D01*
X231446Y67121D02*X244246D01*
X231446D02*Y53221D01*
X244246D01*
X233000Y26900D02*X246000D01*
X233000Y39100D02*X246000D01*
X160500Y219100D02*X173500D01*
X160500Y206900D02*X173500D01*
X160500Y199100D02*X173500D01*
X160500Y186900D02*X173500D01*
X203500Y219000D02*X211000D01*
X221000D02*X228500D01*
Y187000D01*
X203500D02*X228500D01*
X203500Y219000D02*Y187000D01*
X211000Y219000D02*G75*G03X221000Y219000I5000J0D01*G01*
X150500Y279700D02*X210500D01*
X150500Y244300D02*X210500D01*
X150500Y249200D02*X210500D01*
Y279700D02*Y244300D01*
X150500Y279700D02*Y244300D01*
X215500Y279800D02*X255500D01*
X215500Y249800D02*X255500D01*
X215500Y254200D02*X255500D01*
Y279800D02*Y249800D01*
X215500Y279800D02*Y249800D01*
X52500Y143300D02*Y142500D01*
X49000D02*X52500D01*
X48500Y143000D02*X49000Y142500D01*
X48500Y143500D02*Y143000D01*
X49000Y144000D02*X48500Y143500D01*
X49000Y144000D02*X49500D01*
X51700Y141300D02*X52500Y140500D01*
X48500D02*X52500D01*
X48500Y141300D02*Y139800D01*
X72500Y178500D02*Y174500D01*
X71200D02*X70500Y175200D01*
Y177800D02*Y175200D01*
X71200Y178500D02*X70500Y177800D01*
X71200Y178500D02*X73000D01*
X71200Y174500D02*X73000D01*
X69300Y175300D02*X68500Y174500D01*
Y178500D02*Y174500D01*
X67800Y178500D02*X69300D01*
X105500D02*Y174500D01*
X104200D02*X103500Y175200D01*
Y177800D02*Y175200D01*
X104200Y178500D02*X103500Y177800D01*
X104200Y178500D02*X106000D01*
X104200Y174500D02*X106000D01*
X102300Y175000D02*X101800Y174500D01*
X100300D02*X101800D01*
X100300D02*X99800Y175000D01*
Y176000D02*Y175000D01*
X102300Y178500D02*X99800Y176000D01*
Y178500D02*X102300D01*
X239922Y124207D02*X241922D01*
X239922D02*X239422Y124707D01*
Y125707D02*Y124707D01*
X239922Y126207D02*X239422Y125707D01*
X239922Y126207D02*X241422D01*
Y128207D02*Y124207D01*
X240622Y126207D02*X239422Y128207D01*
X238222Y124707D02*X237722Y124207D01*
X236722D02*X237722D01*
X236722D02*X236222Y124707D01*
X236722Y128207D02*X236222Y127707D01*
X236722Y128207D02*X237722D01*
X238222Y127707D02*X237722Y128207D01*
X236722Y126007D02*X237722D01*
X236222Y125507D02*Y124707D01*
Y127707D02*Y126507D01*
X236722Y126007D01*
X236222Y125507D02*X236722Y126007D01*
X235022Y125007D02*X234222Y124207D01*
Y128207D02*Y124207D01*
X233522Y128207D02*X235022D01*
X240779Y50446D02*Y46446D01*
X239479D02*X238779Y47146D01*
Y49746D02*Y47146D01*
X239479Y50446D02*X238779Y49746D01*
X239479Y50446D02*X241279D01*
X239479Y46446D02*X241279D01*
X237579Y47546D02*Y47446D01*
Y50446D02*Y48946D01*
X236579Y47246D02*X235779Y46446D01*
Y50446D02*Y46446D01*
X235079Y50446D02*X236579D01*
X242650Y19850D02*X244650D01*
X242650D02*X242150Y20350D01*
Y21350D02*Y20350D01*
X242650Y21850D02*X242150Y21350D01*
X242650Y21850D02*X244150D01*
Y23850D02*Y19850D01*
X243350Y21850D02*X242150Y23850D01*
X240950Y20350D02*X240450Y19850D01*
X239450D02*X240450D01*
X239450D02*X238950Y20350D01*
X239450Y23850D02*X238950Y23350D01*
X239450Y23850D02*X240450D01*
X240950Y23350D02*X240450Y23850D01*
X239450Y21650D02*X240450D01*
X238950Y21150D02*Y20350D01*
Y23350D02*Y22150D01*
X239450Y21650D01*
X238950Y21150D02*X239450Y21650D01*
X237750Y22350D02*X235750Y19850D01*
X235250Y22350D02*X237750D01*
X235750Y23850D02*Y19850D01*
X213500Y16500D02*X215500D01*
X214500Y20500D02*Y16500D01*
X211800Y20500D02*Y19000D01*
X211300Y18500D01*
X210300D02*X211300D01*
X212300D02*X211800Y19000D01*
X209100Y17600D02*Y17500D01*
Y20500D02*Y19000D01*
X208100Y17300D02*X207300Y16500D01*
Y20500D02*Y16500D01*
X206600Y20500D02*X208100D01*
X139000Y105000D02*X141000D01*
X139000D02*X138500Y105500D01*
Y106500D02*Y105500D01*
X139000Y107000D02*X138500Y106500D01*
X139000Y107000D02*X140500D01*
Y109000D02*Y105000D01*
X139700Y107000D02*X138500Y109000D01*
X137300Y105500D02*X136800Y105000D01*
X135300D02*X136800D01*
X135300D02*X134800Y105500D01*
Y106500D02*Y105500D01*
X137300Y109000D02*X134800Y106500D01*
Y109000D02*X137300D01*
X133100D02*X131600Y107000D01*
Y105500D01*
X132100Y105000D02*X131600Y105500D01*
X132100Y105000D02*X133100D01*
X133600Y105500D02*X133100Y105000D01*
X133600Y106500D02*Y105500D01*
Y106500D02*X133100Y107000D01*
X131600D02*X133100D01*
X121500Y48500D02*Y44500D01*
X119500Y48500D02*X121500D01*
X118300Y45300D02*X117500Y44500D01*
Y48500D02*Y44500D01*
X116800Y48500D02*X118300D01*
X52000Y68800D02*Y68000D01*
X48500D02*X52000D01*
X48000Y68500D02*X48500Y68000D01*
X48000Y69000D02*Y68500D01*
X48500Y69500D02*X48000Y69000D01*
X48500Y69500D02*X49000D01*
X51500Y66800D02*X52000Y66300D01*
Y64800D01*
X51500Y64300D01*
X50500D02*X51500D01*
X48000Y66800D02*X50500Y64300D01*
X48000Y66800D02*Y64300D01*
X273000Y87291D02*X275000D01*
X274000Y91291D02*Y87291D01*
X271300Y91291D02*Y89791D01*
X270800Y89291D01*
X269800D02*X270800D01*
X271800D02*X271300Y89791D01*
X268600Y88391D02*Y88291D01*
Y91291D02*Y89791D01*
X267600Y87791D02*X267100Y87291D01*
X265600D02*X267100D01*
X265600D02*X265100Y87791D01*
Y88791D02*Y87791D01*
X267600Y91291D02*X265100Y88791D01*
Y91291D02*X267600D01*
X280650Y77350D02*X282650D01*
X280650D02*X280150Y77850D01*
Y78850D02*Y77850D01*
X280650Y79350D02*X280150Y78850D01*
X280650Y79350D02*X282150D01*
Y81350D02*Y77350D01*
X281350Y79350D02*X280150Y81350D01*
X278950Y77850D02*X278450Y77350D01*
X277450D02*X278450D01*
X277450D02*X276950Y77850D01*
X277450Y81350D02*X276950Y80850D01*
X277450Y81350D02*X278450D01*
X278950Y80850D02*X278450Y81350D01*
X277450Y79150D02*X278450D01*
X276950Y78650D02*Y77850D01*
Y80850D02*Y79650D01*
X277450Y79150D01*
X276950Y78650D02*X277450Y79150D01*
X275750Y77850D02*X275250Y77350D01*
X273750D02*X275250D01*
X273750D02*X273250Y77850D01*
Y78850D02*Y77850D01*
X275750Y81350D02*X273250Y78850D01*
Y81350D02*X275750D01*
X276064Y70350D02*X277364D01*
X278064Y69650D02*X277364Y70350D01*
X278064Y69650D02*Y67050D01*
X277364Y66350D01*
X276064D02*X277364D01*
X274864Y67150D02*X274064Y66350D01*
Y70350D02*Y66350D01*
X273364Y70350D02*X274864D01*
X265650Y47350D02*X266950D01*
X267650Y46650D02*X266950Y47350D01*
X267650Y46650D02*Y44050D01*
X266950Y43350D01*
X265650D02*X266950D01*
X264450Y43850D02*X263950Y43350D01*
X262450D02*X263950D01*
X262450D02*X261950Y43850D01*
Y44850D02*Y43850D01*
X264450Y47350D02*X261950Y44850D01*
Y47350D02*X264450D01*
X264693Y124350D02*X266693D01*
X264693D02*X264193Y124850D01*
Y125850D02*Y124850D01*
X264693Y126350D02*X264193Y125850D01*
X264693Y126350D02*X266193D01*
Y128350D02*Y124350D01*
X265393Y126350D02*X264193Y128350D01*
X262993Y124850D02*X262493Y124350D01*
X261493D02*X262493D01*
X261493D02*X260993Y124850D01*
X261493Y128350D02*X260993Y127850D01*
X261493Y128350D02*X262493D01*
X262993Y127850D02*X262493Y128350D01*
X261493Y126150D02*X262493D01*
X260993Y125650D02*Y124850D01*
Y127850D02*Y126650D01*
X261493Y126150D01*
X260993Y125650D02*X261493Y126150D01*
X259793Y127850D02*X259293Y128350D01*
X259793Y127850D02*Y124850D01*
X259293Y124350D01*
X258293D02*X259293D01*
X258293D02*X257793Y124850D01*
Y127850D02*Y124850D01*
X258293Y128350D02*X257793Y127850D01*
X258293Y128350D02*X259293D01*
X259793Y127350D02*X257793Y125350D01*
X283000Y222500D02*Y219000D01*
Y222500D02*X282500Y223000D01*
X281500D02*X282500D01*
X281500D02*X281000Y222500D01*
Y219000D01*
X279800Y219800D02*X279000Y219000D01*
Y223000D02*Y219000D01*
X278300Y223000D02*X279800D01*
X223500Y127500D02*X225500D01*
X223500D02*X223000Y128000D01*
Y129000D02*Y128000D01*
X223500Y129500D02*X223000Y129000D01*
X223500Y129500D02*X225000D01*
Y131500D02*Y127500D01*
X224200Y129500D02*X223000Y131500D01*
X221800Y128000D02*X221300Y127500D01*
X220300D02*X221300D01*
X220300D02*X219800Y128000D01*
X220300Y131500D02*X219800Y131000D01*
X220300Y131500D02*X221300D01*
X221800Y131000D02*X221300Y131500D01*
X220300Y129300D02*X221300D01*
X219800Y128800D02*Y128000D01*
Y131000D02*Y129800D01*
X220300Y129300D01*
X219800Y128800D02*X220300Y129300D01*
X218600Y128000D02*X218100Y127500D01*
X217100D02*X218100D01*
X217100D02*X216600Y128000D01*
X217100Y131500D02*X216600Y131000D01*
X217100Y131500D02*X218100D01*
X218600Y131000D02*X218100Y131500D01*
X217100Y129300D02*X218100D01*
X216600Y128800D02*Y128000D01*
Y131000D02*Y129800D01*
X217100Y129300D01*
X216600Y128800D02*X217100Y129300D01*
X237050Y157950D02*Y153950D01*
X235750D02*X235050Y154650D01*
Y157250D02*Y154650D01*
X235750Y157950D02*X235050Y157250D01*
X235750Y157950D02*X237550D01*
X235750Y153950D02*X237550D01*
X233850Y154450D02*X233350Y153950D01*
X231850D02*X233350D01*
X231850D02*X231350Y154450D01*
Y155450D02*Y154450D01*
X233850Y157950D02*X231350Y155450D01*
Y157950D02*X233850D01*
X230150Y157450D02*X229650Y157950D01*
X230150Y157450D02*Y154450D01*
X229650Y153950D01*
X228650D02*X229650D01*
X228650D02*X228150Y154450D01*
Y157450D02*Y154450D01*
X228650Y157950D02*X228150Y157450D01*
X228650Y157950D02*X229650D01*
X230150Y156950D02*X228150Y154950D01*
X220000Y225000D02*Y221000D01*
X218700D02*X218000Y221700D01*
Y224300D02*Y221700D01*
X218700Y225000D02*X218000Y224300D01*
X218700Y225000D02*X220500D01*
X218700Y221000D02*X220500D01*
X216800Y221800D02*X216000Y221000D01*
Y225000D02*Y221000D01*
X215300Y225000D02*X216800D01*
X214100Y221500D02*X213600Y221000D01*
X212100D02*X213600D01*
X212100D02*X211600Y221500D01*
Y222500D02*Y221500D01*
X214100Y225000D02*X211600Y222500D01*
Y225000D02*X214100D01*
X181500Y238000D02*X182300D01*
X181500Y241500D02*Y238000D01*
X182000Y242000D02*X181500Y241500D01*
X182000Y242000D02*X182500D01*
X183000Y241500D02*X182500Y242000D01*
X183000Y241500D02*Y241000D01*
X180300Y238500D02*X179800Y238000D01*
X178800D02*X179800D01*
X178800D02*X178300Y238500D01*
X178800Y242000D02*X178300Y241500D01*
X178800Y242000D02*X179800D01*
X180300Y241500D02*X179800Y242000D01*
X178800Y239800D02*X179800D01*
X178300Y239300D02*Y238500D01*
Y241500D02*Y240300D01*
X178800Y239800D01*
X178300Y239300D02*X178800Y239800D01*
X236500Y243500D02*X237300D01*
X236500Y247000D02*Y243500D01*
X237000Y247500D02*X236500Y247000D01*
X237000Y247500D02*X237500D01*
X238000Y247000D02*X237500Y247500D01*
X238000Y247000D02*Y246500D01*
X235300Y246000D02*X233300Y243500D01*
X232800Y246000D02*X235300D01*
X233300Y247500D02*Y243500D01*
X138500Y178500D02*Y174500D01*
X137200D02*X136500Y175200D01*
Y177800D02*Y175200D01*
X137200Y178500D02*X136500Y177800D01*
X137200Y178500D02*X139000D01*
X137200Y174500D02*X139000D01*
X135300Y175000D02*X134800Y174500D01*
X133800D02*X134800D01*
X133800D02*X133300Y175000D01*
X133800Y178500D02*X133300Y178000D01*
X133800Y178500D02*X134800D01*
X135300Y178000D02*X134800Y178500D01*
X133800Y176300D02*X134800D01*
X133300Y175800D02*Y175000D01*
Y178000D02*Y176800D01*
X133800Y176300D01*
X133300Y175800D02*X133800Y176300D01*
X171500Y178500D02*Y174500D01*
X170200D02*X169500Y175200D01*
Y177800D02*Y175200D01*
X170200Y178500D02*X169500Y177800D01*
X170200Y178500D02*X172000D01*
X170200Y174500D02*X172000D01*
X168300Y177000D02*X166300Y174500D01*
X165800Y177000D02*X168300D01*
X166300Y178500D02*Y174500D01*
X188650Y217650D02*Y215650D01*
X188150Y215150D01*
X187150D02*X188150D01*
X186650Y215650D02*X187150Y215150D01*
X186650Y217150D02*Y215650D01*
X184650Y217150D02*X188650D01*
X186650Y216350D02*X184650Y215150D01*
X188150Y213950D02*X188650Y213450D01*
Y211950D01*
X188150Y211450D01*
X187150D02*X188150D01*
X184650Y213950D02*X187150Y211450D01*
X184650Y213950D02*Y211450D01*
X185150Y210250D02*X184650Y209750D01*
X185150Y210250D02*X185950D01*
X186650Y209550D01*
Y208950D01*
X185950Y208250D01*
X185150D02*X185950D01*
X184650Y208750D02*X185150Y208250D01*
X184650Y209750D02*Y208750D01*
X187350Y210250D02*X186650Y209550D01*
X187350Y210250D02*X188150D01*
X188650Y209750D01*
Y208750D01*
X188150Y208250D01*
X187350D02*X188150D01*
X186650Y208950D02*X187350Y208250D01*
X188650Y198150D02*Y196150D01*
X188150Y195650D01*
X187150D02*X188150D01*
X186650Y196150D02*X187150Y195650D01*
X186650Y197650D02*Y196150D01*
X184650Y197650D02*X188650D01*
X186650Y196850D02*X184650Y195650D01*
X188150Y194450D02*X188650Y193950D01*
Y192450D01*
X188150Y191950D01*
X187150D02*X188150D01*
X184650Y194450D02*X187150Y191950D01*
X184650Y194450D02*Y191950D01*
Y190250D02*X188650Y188250D01*
Y190750D02*Y188250D01*
X142702Y187807D02*Y184307D01*
Y187807D02*X142202Y188307D01*
X141202D02*X142202D01*
X141202D02*X140702Y187807D01*
Y184307D01*
X139502Y184807D02*X139002Y184307D01*
X137502D02*X139002D01*
X137502D02*X137002Y184807D01*
Y185807D02*Y184807D01*
X139502Y188307D02*X137002Y185807D01*
Y188307D02*X139502D01*
X267500Y180500D02*Y176500D01*
X266000D02*X268000D01*
X266000D02*X265500Y177000D01*
Y178000D02*Y177000D01*
X266000Y178500D02*X265500Y178000D01*
X266000Y178500D02*X267500D01*
X264300Y177300D02*X263500Y176500D01*
Y180500D02*Y176500D01*
X262800Y180500D02*X264300D01*
M02*
