G04 start of page 7 for group -4062 idx -4062 *
G04 Title: (unknown), soldermask *
G04 Creator: pcb 20110918 *
G04 CreationDate: Tue 27 May 2014 02:17:58 AM GMT UTC *
G04 For: railfan *
G04 Format: Gerber/RS-274X *
G04 PCB-Dimensions: 290000 290000 *
G04 PCB-Coordinate-Origin: lower left *
%MOIN*%
%FSLAX25Y25*%
%LNBOTTOMMASK*%
%ADD84C,0.0907*%
%ADD83C,0.0860*%
%ADD82C,0.0660*%
%ADD81C,0.0800*%
%ADD80C,0.0960*%
%ADD79C,0.0001*%
%ADD78C,0.0900*%
%ADD77C,0.2997*%
G54D77*X273000Y17000D03*
G54D78*X210500Y53000D03*
Y43000D03*
G54D79*G36*
X206000Y37500D02*Y28500D01*
X215000D01*
Y37500D01*
X206000D01*
G37*
G54D77*X17000Y17000D03*
G54D79*G36*
X23200Y91800D02*Y82200D01*
X32800D01*
Y91800D01*
X23200D01*
G37*
G54D80*X28000Y67000D03*
Y47000D03*
G54D79*G36*
X23200Y166800D02*Y157200D01*
X32800D01*
Y166800D01*
X23200D01*
G37*
G54D80*X28000Y142000D03*
Y122000D03*
G54D81*X51000Y107000D03*
G54D82*X15702Y194630D03*
G54D81*X221000Y107000D03*
G54D77*X273000Y273000D03*
G54D79*G36*
X241200Y271300D02*Y262700D01*
X249800D01*
Y271300D01*
X241200D01*
G37*
G54D83*X225500Y267000D03*
G54D79*G36*
X195700Y266800D02*Y257200D01*
X205300D01*
Y266800D01*
X195700D01*
G37*
G54D80*X180500Y262000D03*
G54D79*G36*
X12402Y280607D02*Y274007D01*
X19002D01*
Y280607D01*
X12402D01*
G37*
G54D82*X100348Y277307D03*
X115111D03*
X129875D03*
G54D80*X160500Y262000D03*
G54D83*X119500Y72500D03*
Y20500D03*
G54D82*X129875Y194630D03*
X100348D03*
G54D84*X206563Y43000D02*X214437D01*
X206563Y53000D02*X214437D01*
X206563Y33000D02*X214437D01*
M02*
