G04 start of page 3 for group 1 idx 1 *
G04 Title: (unknown), bottom *
G04 Creator: pcb 20110918 *
G04 CreationDate: Tue 27 May 2014 02:17:58 AM GMT UTC *
G04 For: railfan *
G04 Format: Gerber/RS-274X *
G04 PCB-Dimensions: 290000 290000 *
G04 PCB-Coordinate-Origin: lower left *
%MOIN*%
%FSLAX25Y25*%
%LNBOTTOM*%
%ADD52C,0.0480*%
%ADD51C,0.0300*%
%ADD50C,0.0420*%
%ADD49C,0.0550*%
%ADD48C,0.0450*%
%ADD47C,0.1285*%
%ADD46C,0.0200*%
%ADD45C,0.0360*%
%ADD44C,0.0740*%
%ADD43C,0.0900*%
%ADD42C,0.0001*%
%ADD41C,0.0787*%
%ADD40C,0.2937*%
%ADD39C,0.0400*%
%ADD38C,0.0600*%
%ADD37C,0.0800*%
G54D37*X159000Y33000D02*X119500Y72500D01*
X210500Y33000D02*X159000D01*
G54D38*X100348Y194630D02*Y132848D01*
X89500Y122000D01*
G54D39*X233200Y203000D02*X241000Y195200D01*
Y141000D01*
X233200Y203000D02*Y207500D01*
G54D38*X89500Y122000D02*X28000D01*
G54D40*X273000Y17000D03*
G54D41*X210500Y53000D03*
Y43000D03*
G54D42*G36*
X206563Y36937D02*Y29063D01*
X214437D01*
Y36937D01*
X206563D01*
G37*
G54D40*X17000Y17000D03*
G54D42*G36*
X23500Y91500D02*Y82500D01*
X32500D01*
Y91500D01*
X23500D01*
G37*
G54D43*X28000Y67000D03*
Y47000D03*
G54D42*G36*
X23500Y166500D02*Y157500D01*
X32500D01*
Y166500D01*
X23500D01*
G37*
G54D43*X28000Y142000D03*
Y122000D03*
G54D44*X51000Y107000D03*
G54D38*X15702Y194630D03*
G54D44*X221000Y107000D03*
G54D40*X273000Y273000D03*
G54D42*G36*
X241500Y271000D02*Y263000D01*
X249500D01*
Y271000D01*
X241500D01*
G37*
G54D37*X225500Y267000D03*
G54D42*G36*
X196000Y266500D02*Y257500D01*
X205000D01*
Y266500D01*
X196000D01*
G37*
G54D43*X180500Y262000D03*
G54D42*G36*
X12702Y280307D02*Y274307D01*
X18702D01*
Y280307D01*
X12702D01*
G37*
G54D38*X100348Y277307D03*
X115111D03*
X129875D03*
G54D43*X160500Y262000D03*
G54D37*X119500Y72500D03*
Y20500D03*
G54D38*X129875Y194630D03*
X100348D03*
G54D41*X206563Y43000D02*X214437D01*
X206563Y53000D02*X214437D01*
X206563Y33000D02*X214437D01*
G54D45*X233200Y203000D03*
X241000Y145500D03*
Y141000D03*
X233200Y207500D03*
G54D46*G54D47*G54D48*G54D47*G54D49*G54D50*G54D51*G54D50*G54D47*G54D52*G54D49*G54D51*G54D49*G54D52*G54D51*M02*
