M48
INCH
T60C0.020
T59C0.048
T58C0.030
T57C0.042
T56C0.055
T55C0.045
T54C0.129
%
T60
X023320Y020300
X024100Y014550
X024100Y014100
X023320Y020750
T58
X001570Y019463
X001570Y027731
X010035Y027731
X011511Y027731
X012988Y027731
X012988Y019463
X010035Y019463
T57
X005100Y010700
X022100Y010700
T55
X021050Y005300
X021050Y004300
X021050Y003300
T59
X024550Y026700
X022550Y026700
X011950Y007250
X011950Y002050
T56
X002800Y008700
X002800Y006700
X002800Y004700
X002800Y016200
X002800Y014200
X002800Y012200
X020050Y026200
X018050Y026200
X016050Y026200
T54
X027300Y001700
X001700Y001700
X027300Y027300
M30
