G04 start of page 7 for group -4062 idx -4062 *
G04 Title: (unknown), soldermask *
G04 Creator: pcb 20110918 *
G04 CreationDate: Sun 21 Dec 2014 03:27:12 AM GMT UTC *
G04 For: petersen *
G04 Format: Gerber/RS-274X *
G04 PCB-Dimensions: 290000 290000 *
G04 PCB-Coordinate-Origin: lower left *
%MOIN*%
%FSLAX25Y25*%
%LNBOTTOMMASK*%
%ADD87C,0.0907*%
%ADD86C,0.0900*%
%ADD85C,0.2997*%
%ADD84C,0.0860*%
%ADD83C,0.0660*%
%ADD82C,0.0800*%
%ADD81C,0.0960*%
%ADD80C,0.0001*%
G54D80*G36*
X23200Y166800D02*Y157200D01*
X32800D01*
Y166800D01*
X23200D01*
G37*
G54D81*X28000Y142000D03*
Y122000D03*
G54D82*X51000Y107000D03*
G54D83*X56202Y194630D03*
G54D84*X119500Y72500D03*
G54D83*X170375Y194630D03*
X140848D03*
G54D84*X119500Y20500D03*
G54D85*X17000Y17000D03*
G54D80*G36*
X23200Y91800D02*Y82200D01*
X32800D01*
Y91800D01*
X23200D01*
G37*
G54D81*X28000Y67000D03*
Y47000D03*
G54D85*X17000Y273000D03*
G54D80*G36*
X52902Y280607D02*Y274007D01*
X59502D01*
Y280607D01*
X52902D01*
G37*
G54D83*X140848Y277307D03*
X155611D03*
X170375D03*
G54D82*X221000Y107000D03*
G54D85*X273000Y273000D03*
G54D80*G36*
X242200Y278300D02*Y271700D01*
X248800D01*
Y278300D01*
X242200D01*
G37*
G54D83*X235500Y275000D03*
X225500D03*
G54D85*X273000Y17000D03*
G54D86*X210500Y53000D03*
Y43000D03*
G54D80*G36*
X206000Y37500D02*Y28500D01*
X215000D01*
Y37500D01*
X206000D01*
G37*
G54D83*X215500Y275000D03*
X205500D03*
G54D87*X206563Y43000D02*X214437D01*
X206563Y33000D02*X214437D01*
X206563Y53000D02*X214437D01*
M02*
