G04 start of page 10 for group -4015 idx -4015 *
G04 Title: (unknown), toppaste *
G04 Creator: pcb 20110918 *
G04 CreationDate: Sun 21 Dec 2014 03:27:12 AM GMT UTC *
G04 For: petersen *
G04 Format: Gerber/RS-274X *
G04 PCB-Dimensions: 290000 290000 *
G04 PCB-Coordinate-Origin: lower left *
%MOIN*%
%FSLAX25Y25*%
%LNTOPPASTE*%
%ADD98R,0.0669X0.0669*%
%ADD97R,0.0469X0.0469*%
%ADD96R,0.0400X0.0400*%
%ADD95R,0.0551X0.0551*%
%ADD94R,0.0709X0.0709*%
%ADD93R,0.0340X0.0340*%
%ADD92R,0.0470X0.0470*%
%ADD91R,0.0512X0.0512*%
%ADD90C,0.0001*%
G54D90*G36*
X268547Y241670D02*Y235764D01*
X274453D01*
Y241670D01*
X268547D01*
G37*
G36*
X258547D02*Y235764D01*
X264453D01*
Y241670D01*
X258547D01*
G37*
G36*
X248547D02*Y235764D01*
X254453D01*
Y241670D01*
X248547D01*
G37*
G36*
Y206236D02*Y200330D01*
X254453D01*
Y206236D01*
X248547D01*
G37*
G36*
X258547D02*Y200330D01*
X264453D01*
Y206236D01*
X258547D01*
G37*
G36*
X268547D02*Y200330D01*
X274453D01*
Y206236D01*
X268547D01*
G37*
G54D91*X217457Y122893D02*Y122107D01*
X224543Y122893D02*Y122107D01*
X233957Y133393D02*Y132607D01*
X241043Y133393D02*Y132607D01*
G54D92*X220250Y173850D02*Y172551D01*
X199750Y173850D02*Y172551D01*
Y139449D02*Y138150D01*
X220250Y139449D02*Y138150D01*
X198150Y213250D02*X199449D01*
X198150Y192750D02*X199449D01*
X232551D02*X233850D01*
X232551Y213250D02*X233850D01*
G54D93*X241746Y64521D02*Y63921D01*
X233946Y64521D02*Y63921D01*
X237846Y56321D02*Y55721D01*
G54D94*X250524Y35756D02*Y30244D01*
X228476Y35756D02*Y30244D01*
G54D95*X268220Y98004D02*X272157D01*
X268220Y115996D02*X272157D01*
G54D96*X253653Y99913D02*Y97551D01*
Y108181D02*Y105819D01*
Y116449D02*Y114087D01*
X244499Y99913D02*Y97551D01*
Y108181D02*Y105819D01*
Y116449D02*Y114087D01*
X235346Y99913D02*Y97551D01*
Y108181D02*Y105819D01*
Y116449D02*Y114087D01*
G54D91*X268543Y79893D02*Y79107D01*
X261457Y79893D02*Y79107D01*
Y68893D02*Y68107D01*
X268543Y68893D02*Y68107D01*
X259095Y57755D02*Y52245D01*
X270905Y57755D02*Y52245D01*
G54D97*X275000Y176752D02*Y168445D01*
X255000Y176752D02*Y168445D01*
X265000Y151555D02*Y143248D01*
G54D91*X265043Y133393D02*Y132607D01*
X257957Y133393D02*Y132607D01*
G54D98*X133000Y159449D02*Y156299D01*
Y143701D02*Y140551D01*
X89000Y159449D02*Y156299D01*
Y143701D02*Y140551D01*
X111000Y159449D02*Y156299D01*
Y143701D02*Y140551D01*
X67000Y159449D02*Y156299D01*
Y143701D02*Y140551D01*
G54D94*X155244Y140476D02*X160756D01*
X155244Y162524D02*X160756D01*
X175244Y140476D02*X180756D01*
X175244Y162524D02*X180756D01*
M02*
