G04 start of page 3 for group 1 idx 1 *
G04 Title: (unknown), bottom *
G04 Creator: pcb 20110918 *
G04 CreationDate: Sun 21 Dec 2014 03:27:12 AM GMT UTC *
G04 For: petersen *
G04 Format: Gerber/RS-274X *
G04 PCB-Dimensions: 290000 290000 *
G04 PCB-Coordinate-Origin: lower left *
%MOIN*%
%FSLAX25Y25*%
%LNBOTTOM*%
%ADD54C,0.0450*%
%ADD53C,0.0380*%
%ADD52C,0.1285*%
%ADD51C,0.0480*%
%ADD50C,0.0420*%
%ADD49C,0.0550*%
%ADD48C,0.0200*%
%ADD47C,0.0360*%
%ADD46C,0.0787*%
%ADD45C,0.2937*%
%ADD44C,0.0600*%
%ADD43C,0.0740*%
%ADD42C,0.0900*%
%ADD41C,0.0001*%
%ADD40C,0.0400*%
%ADD39C,0.0800*%
%ADD38C,0.0300*%
G54D38*X270500Y121500D02*Y110500D01*
X261500Y101500D01*
Y85000D01*
G54D39*X210500Y43000D02*X149000D01*
G54D40*X233200Y203000D02*X241000Y195200D01*
Y141000D01*
X233200Y203000D02*Y207500D01*
X170375Y194630D02*X218120D01*
X220000Y192750D01*
X224500D01*
G54D39*X149000Y43000D02*X119500Y72500D01*
G54D40*X51000Y107000D02*X84500Y140500D01*
X168000D01*
X140848Y194630D02*Y140500D01*
G54D41*G36*
X23500Y166500D02*Y157500D01*
X32500D01*
Y166500D01*
X23500D01*
G37*
G54D42*X28000Y142000D03*
Y122000D03*
G54D43*X51000Y107000D03*
G54D44*X56202Y194630D03*
G54D39*X119500Y72500D03*
G54D44*X170375Y194630D03*
X140848D03*
G54D39*X119500Y20500D03*
G54D45*X17000Y17000D03*
G54D41*G36*
X23500Y91500D02*Y82500D01*
X32500D01*
Y91500D01*
X23500D01*
G37*
G54D42*X28000Y67000D03*
Y47000D03*
G54D45*X17000Y273000D03*
G54D41*G36*
X53202Y280307D02*Y274307D01*
X59202D01*
Y280307D01*
X53202D01*
G37*
G54D44*X140848Y277307D03*
X155611D03*
X170375D03*
G54D43*X221000Y107000D03*
G54D45*X273000Y273000D03*
G54D41*G36*
X242500Y278000D02*Y272000D01*
X248500D01*
Y278000D01*
X242500D01*
G37*
G54D44*X235500Y275000D03*
X225500D03*
G54D45*X273000Y17000D03*
G54D46*X210500Y53000D03*
Y43000D03*
G54D41*G36*
X206563Y36937D02*Y29063D01*
X214437D01*
Y36937D01*
X206563D01*
G37*
G54D44*X215500Y275000D03*
X205500D03*
G54D46*X206563Y43000D02*X214437D01*
X206563Y33000D02*X214437D01*
X206563Y53000D02*X214437D01*
G54D47*X241000Y145500D03*
Y141000D03*
X270500Y110500D03*
Y121500D03*
X261500Y85000D03*
Y89500D03*
X233200Y203000D03*
Y207500D03*
X168000Y140500D03*
X220000Y192750D03*
X224500D03*
G54D48*G54D49*G54D50*G54D38*G54D51*G54D38*G54D51*G54D52*G54D49*G54D52*G54D38*G54D50*G54D52*G54D53*G54D52*G54D54*G54D53*M02*
