M48
INCH
T63C0.020
T62C0.045
T61C0.038
T60C0.129
T59C0.048
T58C0.030
T57C0.042
T56C0.055
%
T63
X024100Y014550
X024100Y014100
X027050Y011050
X027050Y012150
X026150Y008500
X026150Y008950
X023320Y020300
X023320Y020750
X016800Y014050
X022000Y019275
X022450Y019275
T58
X005620Y019463
X017038Y019463
X014085Y019463
X005620Y027731
X014085Y027731
X015561Y027731
X017038Y027731
T61
X024550Y027500
X023550Y027500
X022550Y027500
X021550Y027500
X020550Y027500
T57
X005100Y010700
X022100Y010700
T62
X021050Y005300
X021050Y004300
X021050Y003300
T59
X011950Y007250
X011950Y002050
T56
X002800Y016200
X002800Y014200
X002800Y012200
X002800Y008700
X002800Y006700
X002800Y004700
T60
X001700Y001700
X001700Y027300
X027300Y027300
X027300Y001700
M30
