G04 start of page 2 for group 0 idx 0 *
G04 Title: (unknown), top *
G04 Creator: pcb 20110918 *
G04 CreationDate: Sun 21 Dec 2014 03:27:12 AM GMT UTC *
G04 For: petersen *
G04 Format: Gerber/RS-274X *
G04 PCB-Dimensions: 290000 290000 *
G04 PCB-Coordinate-Origin: lower left *
%MOIN*%
%FSLAX25Y25*%
%LNTOP*%
%ADD37C,0.0450*%
%ADD36C,0.0380*%
%ADD35C,0.1285*%
%ADD34C,0.0480*%
%ADD33C,0.0420*%
%ADD32C,0.0550*%
%ADD31C,0.0360*%
%ADD30R,0.0340X0.0340*%
%ADD29R,0.2264X0.2264*%
%ADD28R,0.0551X0.0551*%
%ADD27R,0.0400X0.0400*%
%ADD26R,0.0469X0.0469*%
%ADD25R,0.0709X0.0709*%
%ADD24R,0.0669X0.0669*%
%ADD23R,0.0470X0.0470*%
%ADD22R,0.0512X0.0512*%
%ADD21C,0.0787*%
%ADD20C,0.2937*%
%ADD19C,0.0740*%
%ADD18C,0.0900*%
%ADD17C,0.0001*%
%ADD16C,0.0300*%
%ADD15C,0.0500*%
%ADD14C,0.0400*%
%ADD13C,0.0200*%
%ADD12C,0.0800*%
%ADD11C,0.0600*%
G54D11*X28000Y122000D02*Y87000D01*
G54D12*Y47000D02*X93000D01*
G54D11*X51000Y107000D02*X28000D01*
G54D12*X82500Y98000D02*X67000Y113500D01*
X93000Y47000D02*X119500Y20500D01*
X128500Y98000D02*X82500D01*
X128500D02*X193500Y33000D01*
G54D13*X220250Y173201D02*X236700D01*
X199750D02*X207700D01*
X216500Y182000D01*
X236500D02*X216500D01*
G54D14*X233200Y192750D02*X220000D01*
X199750Y138800D02*Y149250D01*
Y138800D02*Y128750D01*
X206000Y122500D01*
X217457D01*
Y110543D01*
X221000Y107000D01*
X199750Y149250D02*X206500Y156000D01*
X248500D01*
X265000Y147402D02*X270902D01*
X275000Y151500D01*
X220250Y138800D02*X228157D01*
X233957Y133000D01*
X241000Y145500D02*Y133000D01*
X257957D01*
X248500Y156000D02*X255000Y162500D01*
Y172598D01*
X275000Y151500D02*Y172598D01*
X265000Y147402D02*Y133000D01*
X257957D02*Y125043D01*
X260500Y122500D01*
G54D15*X205000Y242000D02*X157000D01*
X166500Y252000D02*X201000D01*
G54D13*X240000Y246500D02*X235500Y251000D01*
Y275000D01*
G54D15*X225500D02*Y262500D01*
X205000Y242000D02*X225500Y262500D01*
X215500Y275000D02*Y266500D01*
X201000Y252000D01*
X205500Y275000D02*Y270000D01*
X197500Y262000D01*
X176000D02*X197500D01*
X170375Y277307D02*Y267625D01*
X176000Y262000D01*
X155611Y277307D02*Y262889D01*
X166500Y252000D01*
X140848Y277307D02*Y258152D01*
X157000Y242000D01*
G54D14*X270905Y55000D02*Y47405D01*
X256500Y33000D01*
X239500Y40500D02*X254000Y55000D01*
X259095D01*
X256500Y33000D02*X250524D01*
X223000Y20500D02*X236000D01*
X239500Y24000D01*
Y40500D01*
X261457Y68500D02*X259095Y66138D01*
G54D16*X241746Y64221D02*X257025Y79500D01*
X261457D01*
G54D14*X259095Y66138D02*Y55000D01*
X268543Y68500D02*Y97957D01*
X260500Y106000D01*
Y122500D02*Y106000D01*
G54D16*X261500Y89500D02*Y79500D01*
X270500Y121500D02*Y110500D01*
X233946Y64221D02*X241746D01*
X210500Y53000D02*X216500D01*
X219521Y56021D01*
X237846D01*
G54D14*X224543Y122500D02*X229000D01*
X244500Y107000D01*
G54D12*X193500Y33000D02*X210500D01*
G54D14*X228476D02*X218476Y43000D01*
X210500D01*
Y33000D02*X223000Y20500D01*
G54D13*X261500Y203283D02*Y198000D01*
X236700Y173201D01*
X251500Y203283D02*Y197000D01*
X236500Y182000D01*
G54D14*X233200Y213250D02*Y203000D01*
G54D13*X271500Y238717D02*Y245000D01*
X264500Y252000D01*
X261500Y238717D02*Y243500D01*
X258500Y246500D01*
X264500Y252000D02*X249500D01*
X245500Y256000D01*
Y275000D01*
X258500Y246500D02*X240000D01*
G54D12*X67000Y113500D02*Y142126D01*
X47874D01*
G54D14*X89000D02*X111000D01*
X199750Y128750D02*X146376D01*
X133000Y142126D01*
X178000Y140476D02*X158000D01*
G54D12*X47874Y142126D02*X28000Y162000D01*
G54D11*X38500Y172500D01*
G54D14*X67000Y157874D02*X89000D01*
X111000D02*X133000D01*
G54D11*X38500Y172500D02*X148245D01*
X170375Y194630D01*
G54D14*X158000Y162524D02*X181000Y185524D01*
Y204500D01*
X189750Y213250D01*
X190000Y183951D02*Y174524D01*
X178000Y162524D01*
X189750Y213250D02*X198800D01*
Y192750D02*X190000Y183951D01*
G54D17*G36*
X23500Y166500D02*Y157500D01*
X32500D01*
Y166500D01*
X23500D01*
G37*
G54D18*X28000Y142000D03*
Y122000D03*
G54D19*X51000Y107000D03*
G54D11*X56202Y194630D03*
G54D12*X119500Y72500D03*
G54D11*X170375Y194630D03*
X140848D03*
G54D12*X119500Y20500D03*
G54D20*X17000Y17000D03*
G54D17*G36*
X23500Y91500D02*Y82500D01*
X32500D01*
Y91500D01*
X23500D01*
G37*
G54D18*X28000Y67000D03*
Y47000D03*
G54D20*X17000Y273000D03*
G54D17*G36*
X53202Y280307D02*Y274307D01*
X59202D01*
Y280307D01*
X53202D01*
G37*
G54D11*X140848Y277307D03*
X155611D03*
X170375D03*
G54D19*X221000Y107000D03*
G54D20*X273000Y273000D03*
G54D17*G36*
X242500Y278000D02*Y272000D01*
X248500D01*
Y278000D01*
X242500D01*
G37*
G54D11*X235500Y275000D03*
X225500D03*
G54D20*X273000Y17000D03*
G54D21*X210500Y53000D03*
Y43000D03*
G54D17*G36*
X206563Y36937D02*Y29063D01*
X214437D01*
Y36937D01*
X206563D01*
G37*
G54D11*X215500Y275000D03*
X205500D03*
G54D22*X217457Y122893D02*Y122107D01*
X224543Y122893D02*Y122107D01*
X233957Y133393D02*Y132607D01*
G54D23*X199750Y139449D02*Y138150D01*
X220250Y139449D02*Y138150D01*
G54D24*X133000Y159449D02*Y156299D01*
X111000Y159449D02*Y156299D01*
X67000Y159449D02*Y156299D01*
G54D25*X155244Y162524D02*X160756D01*
X175244D02*X180756D01*
G54D24*X133000Y143701D02*Y140551D01*
X111000Y143701D02*Y140551D01*
X67000Y143701D02*Y140551D01*
G54D25*X155244Y140476D02*X160756D01*
X175244D02*X180756D01*
G54D24*X89000Y159449D02*Y156299D01*
Y143701D02*Y140551D01*
G54D17*G36*
X268547Y241670D02*Y235764D01*
X274453D01*
Y241670D01*
X268547D01*
G37*
G36*
X258547D02*Y235764D01*
X264453D01*
Y241670D01*
X258547D01*
G37*
G36*
X248547D02*Y235764D01*
X254453D01*
Y241670D01*
X248547D01*
G37*
G36*
Y206236D02*Y200330D01*
X254453D01*
Y206236D01*
X248547D01*
G37*
G36*
X258547D02*Y200330D01*
X264453D01*
Y206236D01*
X258547D01*
G37*
G36*
X268547D02*Y200330D01*
X274453D01*
Y206236D01*
X268547D01*
G37*
G54D23*X220250Y173850D02*Y172551D01*
X199750Y173850D02*Y172551D01*
X198150Y213250D02*X199449D01*
X198150Y192750D02*X199449D01*
X232551D02*X233850D01*
X232551Y213250D02*X233850D01*
G54D26*X275000Y176752D02*Y168445D01*
X255000Y176752D02*Y168445D01*
G54D22*X241043Y133393D02*Y132607D01*
G54D27*X244499Y99913D02*Y97551D01*
Y108181D02*Y105819D01*
Y116449D02*Y114087D01*
G54D28*X268220Y98004D02*X272157D01*
X268220Y115996D02*X272157D01*
G54D29*X244500Y107295D02*Y106705D01*
G54D27*X253653Y99913D02*Y97551D01*
Y108181D02*Y105819D01*
Y116449D02*Y114087D01*
X235346Y99913D02*Y97551D01*
Y108181D02*Y105819D01*
Y116449D02*Y114087D01*
G54D26*X265000Y151555D02*Y143248D01*
G54D22*X265043Y133393D02*Y132607D01*
X257957Y133393D02*Y132607D01*
G54D30*X241746Y64521D02*Y63921D01*
X233946Y64521D02*Y63921D01*
X237846Y56321D02*Y55721D01*
G54D25*X250524Y35756D02*Y30244D01*
X228476Y35756D02*Y30244D01*
G54D22*X259095Y57755D02*Y52245D01*
X268543Y79893D02*Y79107D01*
X261457Y79893D02*Y79107D01*
Y68893D02*Y68107D01*
X268543Y68893D02*Y68107D01*
X270905Y57755D02*Y52245D01*
G54D31*X241000Y145500D03*
Y141000D03*
X270500Y110500D03*
Y121500D03*
X261500Y85000D03*
Y89500D03*
X233200Y203000D03*
Y207500D03*
X168000Y140500D03*
X220000Y192750D03*
X224500D03*
G54D13*G54D32*G54D33*G54D16*G54D34*G54D16*G54D34*G54D35*G54D32*G54D35*G54D16*G54D33*G54D35*G54D36*G54D35*G54D37*G54D36*M02*
