G04 start of page 12 for group -3984 idx -3984 *
G04 Title: (unknown), fab *
G04 Creator: pcb 20110918 *
G04 CreationDate: Sun 21 Dec 2014 03:27:12 AM GMT UTC *
G04 For: petersen *
G04 Format: Gerber/RS-274X *
G04 PCB-Dimensions: 290000 290000 *
G04 PCB-Coordinate-Origin: lower left *
%MOIN*%
%FSLAX25Y25*%
%LNFAB*%
%ADD103C,0.0100*%
%ADD102C,0.0075*%
%ADD101C,0.0060*%
%ADD100R,0.0080X0.0080*%
%ADD99C,0.0001*%
G54D99*G36*
X270600Y275966D02*X275966Y270600D01*
X275400Y270034D01*
X270034Y275400D01*
X270600Y275966D01*
G37*
G36*
X270034Y270600D02*X275400Y275966D01*
X275966Y275400D01*
X270600Y270034D01*
X270034Y270600D01*
G37*
G54D100*X271400Y274600D02*X274600D01*
X271400D02*Y271400D01*
X274600D01*
Y274600D02*Y271400D01*
G54D99*G36*
X14600Y19966D02*X19966Y14600D01*
X19400Y14034D01*
X14034Y19400D01*
X14600Y19966D01*
G37*
G36*
X14034Y14600D02*X19400Y19966D01*
X19966Y19400D01*
X14600Y14034D01*
X14034Y14600D01*
G37*
G54D100*X15400Y18600D02*X18600D01*
X15400D02*Y15400D01*
X18600D01*
Y18600D02*Y15400D01*
G54D99*G36*
X270600Y19966D02*X275966Y14600D01*
X275400Y14034D01*
X270034Y19400D01*
X270600Y19966D01*
G37*
G36*
X270034Y14600D02*X275400Y19966D01*
X275966Y19400D01*
X270600Y14034D01*
X270034Y14600D01*
G37*
G54D100*X271400Y18600D02*X274600D01*
X271400D02*Y15400D01*
X274600D01*
Y18600D02*Y15400D01*
G54D99*G36*
X14600Y275966D02*X19966Y270600D01*
X19400Y270034D01*
X14034Y275400D01*
X14600Y275966D01*
G37*
G36*
X14034Y270600D02*X19400Y275966D01*
X19966Y275400D01*
X14600Y270034D01*
X14034Y270600D01*
G37*
G54D100*X15400Y274600D02*X18600D01*
X15400D02*Y271400D01*
X18600D01*
Y274600D02*Y271400D01*
G54D99*G36*
X12600Y304216D02*X17966Y298850D01*
X17400Y298284D01*
X12034Y303650D01*
X12600Y304216D01*
G37*
G36*
X12034Y298850D02*X17400Y304216D01*
X17966Y303650D01*
X12600Y298284D01*
X12034Y298850D01*
G37*
G54D100*X13400Y302850D02*X16600D01*
X13400D02*Y299650D01*
X16600D01*
Y302850D02*Y299650D01*
G54D101*X135000Y303500D02*X136500Y300500D01*
X138000Y303500D01*
X136500Y300500D02*Y297500D01*
X139800Y300800D02*X142050D01*
X139800Y297500D02*X142800D01*
X139800Y303500D02*Y297500D01*
Y303500D02*X142800D01*
X147600D02*X148350Y302750D01*
X145350Y303500D02*X147600D01*
X144600Y302750D02*X145350Y303500D01*
X144600Y302750D02*Y301250D01*
X145350Y300500D01*
X147600D01*
X148350Y299750D01*
Y298250D01*
X147600Y297500D02*X148350Y298250D01*
X145350Y297500D02*X147600D01*
X144600Y298250D02*X145350Y297500D01*
X98000Y299750D02*X101000Y303500D01*
X98000Y299750D02*X101750D01*
X101000Y303500D02*Y297500D01*
X45000Y298250D02*X45750Y297500D01*
X45000Y302750D02*Y298250D01*
Y302750D02*X45750Y303500D01*
X47250D01*
X48000Y302750D01*
Y298250D01*
X47250Y297500D02*X48000Y298250D01*
X45750Y297500D02*X47250D01*
X45000Y299000D02*X48000Y302000D01*
X49800Y297500D02*X50550D01*
X52350Y302300D02*X53550Y303500D01*
Y297500D01*
X52350D02*X54600D01*
X56400Y302750D02*X57150Y303500D01*
X59400D01*
X60150Y302750D01*
Y301250D01*
X56400Y297500D02*X60150Y301250D01*
X56400Y297500D02*X60150D01*
X62700D02*X64950Y300500D01*
Y302750D02*Y300500D01*
X64200Y303500D02*X64950Y302750D01*
X62700Y303500D02*X64200D01*
X61950Y302750D02*X62700Y303500D01*
X61950Y302750D02*Y301250D01*
X62700Y300500D01*
X64950D01*
X28000Y165200D02*Y158800D01*
X24800Y162000D02*X31200D01*
X26400Y163600D02*X29600D01*
X26400D02*Y160400D01*
X29600D01*
Y163600D02*Y160400D01*
X28000Y145200D02*Y138800D01*
X24800Y142000D02*X31200D01*
X26400Y143600D02*X29600D01*
X26400D02*Y140400D01*
X29600D01*
Y143600D02*Y140400D01*
X28000Y125200D02*Y118800D01*
X24800Y122000D02*X31200D01*
X26400Y123600D02*X29600D01*
X26400D02*Y120400D01*
X29600D01*
Y123600D02*Y120400D01*
X28000Y90200D02*Y83800D01*
X24800Y87000D02*X31200D01*
X26400Y88600D02*X29600D01*
X26400D02*Y85400D01*
X29600D01*
Y88600D02*Y85400D01*
X28000Y70200D02*Y63800D01*
X24800Y67000D02*X31200D01*
X26400Y68600D02*X29600D01*
X26400D02*Y65400D01*
X29600D01*
Y68600D02*Y65400D01*
X28000Y50200D02*Y43800D01*
X24800Y47000D02*X31200D01*
X26400Y48600D02*X29600D01*
X26400D02*Y45400D01*
X29600D01*
Y48600D02*Y45400D01*
X15000Y319450D02*Y313050D01*
X11800Y316250D02*X18200D01*
X13400Y317850D02*X16600D01*
X13400D02*Y314650D01*
X16600D01*
Y317850D02*Y314650D01*
X135000Y318500D02*X136500Y315500D01*
X138000Y318500D01*
X136500Y315500D02*Y312500D01*
X139800Y315800D02*X142050D01*
X139800Y312500D02*X142800D01*
X139800Y318500D02*Y312500D01*
Y318500D02*X142800D01*
X147600D02*X148350Y317750D01*
X145350Y318500D02*X147600D01*
X144600Y317750D02*X145350Y318500D01*
X144600Y317750D02*Y316250D01*
X145350Y315500D01*
X147600D01*
X148350Y314750D01*
Y313250D01*
X147600Y312500D02*X148350Y313250D01*
X145350Y312500D02*X147600D01*
X144600Y313250D02*X145350Y312500D01*
X100250Y318500D02*X101000Y317750D01*
X98750Y318500D02*X100250D01*
X98000Y317750D02*X98750Y318500D01*
X98000Y317750D02*Y313250D01*
X98750Y312500D01*
X100250Y315800D02*X101000Y315050D01*
X98000Y315800D02*X100250D01*
X98750Y312500D02*X100250D01*
X101000Y313250D01*
Y315050D02*Y313250D01*
X45000D02*X45750Y312500D01*
X45000Y317750D02*Y313250D01*
Y317750D02*X45750Y318500D01*
X47250D01*
X48000Y317750D01*
Y313250D01*
X47250Y312500D02*X48000Y313250D01*
X45750Y312500D02*X47250D01*
X45000Y314000D02*X48000Y317000D01*
X49800Y312500D02*X50550D01*
X52350Y313250D02*X53100Y312500D01*
X52350Y317750D02*Y313250D01*
Y317750D02*X53100Y318500D01*
X54600D01*
X55350Y317750D01*
Y313250D01*
X54600Y312500D02*X55350Y313250D01*
X53100Y312500D02*X54600D01*
X52350Y314000D02*X55350Y317000D01*
X57150Y318500D02*X60150D01*
X57150D02*Y315500D01*
X57900Y316250D01*
X59400D01*
X60150Y315500D01*
Y313250D01*
X59400Y312500D02*X60150Y313250D01*
X57900Y312500D02*X59400D01*
X57150Y313250D02*X57900Y312500D01*
X61950Y318500D02*X64950D01*
X61950D02*Y315500D01*
X62700Y316250D01*
X64200D01*
X64950Y315500D01*
Y313250D01*
X64200Y312500D02*X64950Y313250D01*
X62700Y312500D02*X64200D01*
X61950Y313250D02*X62700Y312500D01*
X119500Y72500D02*Y69300D01*
Y72500D02*X122273Y74100D01*
X119500Y72500D02*X116727Y74100D01*
X117900Y72500D02*G75*G03X121100Y72500I1600J0D01*G01*
G75*G03X117900Y72500I-1600J0D01*G01*
X119500Y20500D02*Y17300D01*
Y20500D02*X122273Y22100D01*
X119500Y20500D02*X116727Y22100D01*
X117900Y20500D02*G75*G03X121100Y20500I1600J0D01*G01*
G75*G03X117900Y20500I-1600J0D01*G01*
X15000Y331250D02*Y328050D01*
Y331250D02*X17773Y332850D01*
X15000Y331250D02*X12227Y332850D01*
X13400Y331250D02*G75*G03X16600Y331250I1600J0D01*G01*
G75*G03X13400Y331250I-1600J0D01*G01*
X135000Y333500D02*X136500Y330500D01*
X138000Y333500D01*
X136500Y330500D02*Y327500D01*
X139800Y330800D02*X142050D01*
X139800Y327500D02*X142800D01*
X139800Y333500D02*Y327500D01*
Y333500D02*X142800D01*
X147600D02*X148350Y332750D01*
X145350Y333500D02*X147600D01*
X144600Y332750D02*X145350Y333500D01*
X144600Y332750D02*Y331250D01*
X145350Y330500D01*
X147600D01*
X148350Y329750D01*
Y328250D01*
X147600Y327500D02*X148350Y328250D01*
X145350Y327500D02*X147600D01*
X144600Y328250D02*X145350Y327500D01*
X98000Y332750D02*X98750Y333500D01*
X101000D01*
X101750Y332750D01*
Y331250D01*
X98000Y327500D02*X101750Y331250D01*
X98000Y327500D02*X101750D01*
X45000Y328250D02*X45750Y327500D01*
X45000Y332750D02*Y328250D01*
Y332750D02*X45750Y333500D01*
X47250D01*
X48000Y332750D01*
Y328250D01*
X47250Y327500D02*X48000Y328250D01*
X45750Y327500D02*X47250D01*
X45000Y329000D02*X48000Y332000D01*
X49800Y327500D02*X50550D01*
X52350Y328250D02*X53100Y327500D01*
X52350Y332750D02*Y328250D01*
Y332750D02*X53100Y333500D01*
X54600D01*
X55350Y332750D01*
Y328250D01*
X54600Y327500D02*X55350Y328250D01*
X53100Y327500D02*X54600D01*
X52350Y329000D02*X55350Y332000D01*
X57150Y329750D02*X60150Y333500D01*
X57150Y329750D02*X60900D01*
X60150Y333500D02*Y327500D01*
X62700Y328250D02*X63450Y327500D01*
X62700Y329450D02*Y328250D01*
Y329450D02*X63750Y330500D01*
X64650D01*
X65700Y329450D01*
Y328250D01*
X64950Y327500D02*X65700Y328250D01*
X63450Y327500D02*X64950D01*
X62700Y331550D02*X63750Y330500D01*
X62700Y332750D02*Y331550D01*
Y332750D02*X63450Y333500D01*
X64950D01*
X65700Y332750D01*
Y331550D01*
X64650Y330500D02*X65700Y331550D01*
X208900Y54600D02*X212100D01*
X208900D02*Y51400D01*
X212100D01*
Y54600D02*Y51400D01*
X208900Y44600D02*X212100D01*
X208900D02*Y41400D01*
X212100D01*
Y44600D02*Y41400D01*
X208900Y34600D02*X212100D01*
X208900D02*Y31400D01*
X212100D01*
Y34600D02*Y31400D01*
X13400Y347850D02*X16600D01*
X13400D02*Y344650D01*
X16600D01*
Y347850D02*Y344650D01*
X135000Y348500D02*X136500Y345500D01*
X138000Y348500D01*
X136500Y345500D02*Y342500D01*
X139800Y345800D02*X142050D01*
X139800Y342500D02*X142800D01*
X139800Y348500D02*Y342500D01*
Y348500D02*X142800D01*
X147600D02*X148350Y347750D01*
X145350Y348500D02*X147600D01*
X144600Y347750D02*X145350Y348500D01*
X144600Y347750D02*Y346250D01*
X145350Y345500D01*
X147600D01*
X148350Y344750D01*
Y343250D01*
X147600Y342500D02*X148350Y343250D01*
X145350Y342500D02*X147600D01*
X144600Y343250D02*X145350Y342500D01*
X98000Y347750D02*X98750Y348500D01*
X100250D01*
X101000Y347750D01*
X100250Y342500D02*X101000Y343250D01*
X98750Y342500D02*X100250D01*
X98000Y343250D02*X98750Y342500D01*
Y345800D02*X100250D01*
X101000Y347750D02*Y346550D01*
Y345050D02*Y343250D01*
Y345050D02*X100250Y345800D01*
X101000Y346550D02*X100250Y345800D01*
X45000Y343250D02*X45750Y342500D01*
X45000Y347750D02*Y343250D01*
Y347750D02*X45750Y348500D01*
X47250D01*
X48000Y347750D01*
Y343250D01*
X47250Y342500D02*X48000Y343250D01*
X45750Y342500D02*X47250D01*
X45000Y344000D02*X48000Y347000D01*
X49800Y342500D02*X50550D01*
X52350Y343250D02*X53100Y342500D01*
X52350Y347750D02*Y343250D01*
Y347750D02*X53100Y348500D01*
X54600D01*
X55350Y347750D01*
Y343250D01*
X54600Y342500D02*X55350Y343250D01*
X53100Y342500D02*X54600D01*
X52350Y344000D02*X55350Y347000D01*
X57150Y344750D02*X60150Y348500D01*
X57150Y344750D02*X60900D01*
X60150Y348500D02*Y342500D01*
X62700Y348500D02*X65700D01*
X62700D02*Y345500D01*
X63450Y346250D01*
X64950D01*
X65700Y345500D01*
Y343250D01*
X64950Y342500D02*X65700Y343250D01*
X63450Y342500D02*X64950D01*
X62700Y343250D02*X63450Y342500D01*
X50200Y107000D02*G75*G03X51800Y107000I800J0D01*G01*
G75*G03X50200Y107000I-800J0D01*G01*
X220200D02*G75*G03X221800Y107000I800J0D01*G01*
G75*G03X220200Y107000I-800J0D01*G01*
X14200Y361250D02*G75*G03X15800Y361250I800J0D01*G01*
G75*G03X14200Y361250I-800J0D01*G01*
X135000Y363500D02*X136500Y360500D01*
X138000Y363500D01*
X136500Y360500D02*Y357500D01*
X139800Y360800D02*X142050D01*
X139800Y357500D02*X142800D01*
X139800Y363500D02*Y357500D01*
Y363500D02*X142800D01*
X147600D02*X148350Y362750D01*
X145350Y363500D02*X147600D01*
X144600Y362750D02*X145350Y363500D01*
X144600Y362750D02*Y361250D01*
X145350Y360500D01*
X147600D01*
X148350Y359750D01*
Y358250D01*
X147600Y357500D02*X148350Y358250D01*
X145350Y357500D02*X147600D01*
X144600Y358250D02*X145350Y357500D01*
X98000Y362750D02*X98750Y363500D01*
X101000D01*
X101750Y362750D01*
Y361250D01*
X98000Y357500D02*X101750Y361250D01*
X98000Y357500D02*X101750D01*
X45000Y358250D02*X45750Y357500D01*
X45000Y362750D02*Y358250D01*
Y362750D02*X45750Y363500D01*
X47250D01*
X48000Y362750D01*
Y358250D01*
X47250Y357500D02*X48000Y358250D01*
X45750Y357500D02*X47250D01*
X45000Y359000D02*X48000Y362000D01*
X49800Y357500D02*X50550D01*
X52350Y358250D02*X53100Y357500D01*
X52350Y362750D02*Y358250D01*
Y362750D02*X53100Y363500D01*
X54600D01*
X55350Y362750D01*
Y358250D01*
X54600Y357500D02*X55350Y358250D01*
X53100Y357500D02*X54600D01*
X52350Y359000D02*X55350Y362000D01*
X57150Y359750D02*X60150Y363500D01*
X57150Y359750D02*X60900D01*
X60150Y363500D02*Y357500D01*
X62700Y362750D02*X63450Y363500D01*
X65700D01*
X66450Y362750D01*
Y361250D01*
X62700Y357500D02*X66450Y361250D01*
X62700Y357500D02*X66450D01*
X244300Y276200D02*X246700Y273800D01*
X244300D02*X246700Y276200D01*
X234300D02*X236700Y273800D01*
X234300D02*X236700Y276200D01*
X224300D02*X226700Y273800D01*
X224300D02*X226700Y276200D01*
X214300D02*X216700Y273800D01*
X214300D02*X216700Y276200D01*
X204300D02*X206700Y273800D01*
X204300D02*X206700Y276200D01*
X13800Y377450D02*X16200Y375050D01*
X13800D02*X16200Y377450D01*
X135000Y378500D02*X136500Y375500D01*
X138000Y378500D01*
X136500Y375500D02*Y372500D01*
X139800Y375800D02*X142050D01*
X139800Y372500D02*X142800D01*
X139800Y378500D02*Y372500D01*
Y378500D02*X142800D01*
X147600D02*X148350Y377750D01*
X145350Y378500D02*X147600D01*
X144600Y377750D02*X145350Y378500D01*
X144600Y377750D02*Y376250D01*
X145350Y375500D01*
X147600D01*
X148350Y374750D01*
Y373250D01*
X147600Y372500D02*X148350Y373250D01*
X145350Y372500D02*X147600D01*
X144600Y373250D02*X145350Y372500D01*
X98000Y378500D02*X101000D01*
X98000D02*Y375500D01*
X98750Y376250D01*
X100250D01*
X101000Y375500D01*
Y373250D01*
X100250Y372500D02*X101000Y373250D01*
X98750Y372500D02*X100250D01*
X98000Y373250D02*X98750Y372500D01*
X45000Y373250D02*X45750Y372500D01*
X45000Y377750D02*Y373250D01*
Y377750D02*X45750Y378500D01*
X47250D01*
X48000Y377750D01*
Y373250D01*
X47250Y372500D02*X48000Y373250D01*
X45750Y372500D02*X47250D01*
X45000Y374000D02*X48000Y377000D01*
X49800Y372500D02*X50550D01*
X52350Y373250D02*X53100Y372500D01*
X52350Y377750D02*Y373250D01*
Y377750D02*X53100Y378500D01*
X54600D01*
X55350Y377750D01*
Y373250D01*
X54600Y372500D02*X55350Y373250D01*
X53100Y372500D02*X54600D01*
X52350Y374000D02*X55350Y377000D01*
X57150Y377750D02*X57900Y378500D01*
X59400D01*
X60150Y377750D01*
X59400Y372500D02*X60150Y373250D01*
X57900Y372500D02*X59400D01*
X57150Y373250D02*X57900Y372500D01*
Y375800D02*X59400D01*
X60150Y377750D02*Y376550D01*
Y375050D02*Y373250D01*
Y375050D02*X59400Y375800D01*
X60150Y376550D02*X59400Y375800D01*
X61950Y373250D02*X62700Y372500D01*
X61950Y374450D02*Y373250D01*
Y374450D02*X63000Y375500D01*
X63900D01*
X64950Y374450D01*
Y373250D01*
X64200Y372500D02*X64950Y373250D01*
X62700Y372500D02*X64200D01*
X61950Y376550D02*X63000Y375500D01*
X61950Y377750D02*Y376550D01*
Y377750D02*X62700Y378500D01*
X64200D01*
X64950Y377750D01*
Y376550D01*
X63900Y375500D02*X64950Y376550D01*
X56202Y278907D02*Y275707D01*
X54602Y277307D02*X57802D01*
X140848Y278907D02*Y275707D01*
X139248Y277307D02*X142448D01*
X155611Y278907D02*Y275707D01*
X154011Y277307D02*X157211D01*
X170375Y278907D02*Y275707D01*
X168775Y277307D02*X171975D01*
X170375Y196230D02*Y193030D01*
X168775Y194630D02*X171975D01*
X140848Y196230D02*Y193030D01*
X139248Y194630D02*X142448D01*
X56202Y196230D02*Y193030D01*
X54602Y194630D02*X57802D01*
X15000Y392850D02*Y389650D01*
X13400Y391250D02*X16600D01*
X135000Y393500D02*X136500Y390500D01*
X138000Y393500D01*
X136500Y390500D02*Y387500D01*
X139800Y390800D02*X142050D01*
X139800Y387500D02*X142800D01*
X139800Y393500D02*Y387500D01*
Y393500D02*X142800D01*
X147600D02*X148350Y392750D01*
X145350Y393500D02*X147600D01*
X144600Y392750D02*X145350Y393500D01*
X144600Y392750D02*Y391250D01*
X145350Y390500D01*
X147600D01*
X148350Y389750D01*
Y388250D01*
X147600Y387500D02*X148350Y388250D01*
X145350Y387500D02*X147600D01*
X144600Y388250D02*X145350Y387500D01*
X98750D02*X101750Y393500D01*
X98000D02*X101750D01*
X45000Y388250D02*X45750Y387500D01*
X45000Y392750D02*Y388250D01*
Y392750D02*X45750Y393500D01*
X47250D01*
X48000Y392750D01*
Y388250D01*
X47250Y387500D02*X48000Y388250D01*
X45750Y387500D02*X47250D01*
X45000Y389000D02*X48000Y392000D01*
X49800Y387500D02*X50550D01*
X52350Y388250D02*X53100Y387500D01*
X52350Y392750D02*Y388250D01*
Y392750D02*X53100Y393500D01*
X54600D01*
X55350Y392750D01*
Y388250D01*
X54600Y387500D02*X55350Y388250D01*
X53100Y387500D02*X54600D01*
X52350Y389000D02*X55350Y392000D01*
X57150Y392750D02*X57900Y393500D01*
X59400D01*
X60150Y392750D01*
X59400Y387500D02*X60150Y388250D01*
X57900Y387500D02*X59400D01*
X57150Y388250D02*X57900Y387500D01*
Y390800D02*X59400D01*
X60150Y392750D02*Y391550D01*
Y390050D02*Y388250D01*
Y390050D02*X59400Y390800D01*
X60150Y391550D02*X59400Y390800D01*
X61950Y388250D02*X62700Y387500D01*
X61950Y392750D02*Y388250D01*
Y392750D02*X62700Y393500D01*
X64200D01*
X64950Y392750D01*
Y388250D01*
X64200Y387500D02*X64950Y388250D01*
X62700Y387500D02*X64200D01*
X61950Y389000D02*X64950Y392000D01*
X233200Y203000D02*Y201400D01*
Y203000D02*X234587Y203800D01*
X233200Y203000D02*X231813Y203800D01*
X241000Y145500D02*Y143900D01*
Y145500D02*X242387Y146300D01*
X241000Y145500D02*X239613Y146300D01*
X241000Y141000D02*Y139400D01*
Y141000D02*X242387Y141800D01*
X241000Y141000D02*X239613Y141800D01*
X233200Y207500D02*Y205900D01*
Y207500D02*X234587Y208300D01*
X233200Y207500D02*X231813Y208300D01*
X270500Y110500D02*Y108900D01*
Y110500D02*X271887Y111300D01*
X270500Y110500D02*X269113Y111300D01*
X270500Y121500D02*Y119900D01*
Y121500D02*X271887Y122300D01*
X270500Y121500D02*X269113Y122300D01*
X261500Y85000D02*Y83400D01*
Y85000D02*X262887Y85800D01*
X261500Y85000D02*X260113Y85800D01*
X261500Y89500D02*Y87900D01*
Y89500D02*X262887Y90300D01*
X261500Y89500D02*X260113Y90300D01*
X168000Y140500D02*Y138900D01*
Y140500D02*X169387Y141300D01*
X168000Y140500D02*X166613Y141300D01*
X220000Y192750D02*Y191150D01*
Y192750D02*X221387Y193550D01*
X220000Y192750D02*X218613Y193550D01*
X224500Y192750D02*Y191150D01*
Y192750D02*X225887Y193550D01*
X224500Y192750D02*X223113Y193550D01*
X15000Y406250D02*Y404650D01*
Y406250D02*X16387Y407050D01*
X15000Y406250D02*X13613Y407050D01*
X135000Y408500D02*X136500Y405500D01*
X138000Y408500D01*
X136500Y405500D02*Y402500D01*
X139800Y405800D02*X142050D01*
X139800Y402500D02*X142800D01*
X139800Y408500D02*Y402500D01*
Y408500D02*X142800D01*
X147600D02*X148350Y407750D01*
X145350Y408500D02*X147600D01*
X144600Y407750D02*X145350Y408500D01*
X144600Y407750D02*Y406250D01*
X145350Y405500D01*
X147600D01*
X148350Y404750D01*
Y403250D01*
X147600Y402500D02*X148350Y403250D01*
X145350Y402500D02*X147600D01*
X144600Y403250D02*X145350Y402500D01*
X98000Y407300D02*X99200Y408500D01*
Y402500D01*
X98000D02*X100250D01*
X102050Y407300D02*X103250Y408500D01*
Y402500D01*
X102050D02*X104300D01*
X45000Y403250D02*X45750Y402500D01*
X45000Y407750D02*Y403250D01*
Y407750D02*X45750Y408500D01*
X47250D01*
X48000Y407750D01*
Y403250D01*
X47250Y402500D02*X48000Y403250D01*
X45750Y402500D02*X47250D01*
X45000Y404000D02*X48000Y407000D01*
X49800Y402500D02*X50550D01*
X52350Y403250D02*X53100Y402500D01*
X52350Y407750D02*Y403250D01*
Y407750D02*X53100Y408500D01*
X54600D01*
X55350Y407750D01*
Y403250D01*
X54600Y402500D02*X55350Y403250D01*
X53100Y402500D02*X54600D01*
X52350Y404000D02*X55350Y407000D01*
X57150Y407750D02*X57900Y408500D01*
X60150D01*
X60900Y407750D01*
Y406250D01*
X57150Y402500D02*X60900Y406250D01*
X57150Y402500D02*X60900D01*
X62700Y403250D02*X63450Y402500D01*
X62700Y407750D02*Y403250D01*
Y407750D02*X63450Y408500D01*
X64950D01*
X65700Y407750D01*
Y403250D01*
X64950Y402500D02*X65700Y403250D01*
X63450Y402500D02*X64950D01*
X62700Y404000D02*X65700Y407000D01*
X3000Y423500D02*X3750Y422750D01*
X750Y423500D02*X3000D01*
X0Y422750D02*X750Y423500D01*
X0Y422750D02*Y421250D01*
X750Y420500D01*
X3000D01*
X3750Y419750D01*
Y418250D01*
X3000Y417500D02*X3750Y418250D01*
X750Y417500D02*X3000D01*
X0Y418250D02*X750Y417500D01*
X5550Y420500D02*Y418250D01*
X6300Y417500D01*
X8550Y420500D02*Y416000D01*
X7800Y415250D02*X8550Y416000D01*
X6300Y415250D02*X7800D01*
X5550Y416000D02*X6300Y415250D01*
Y417500D02*X7800D01*
X8550Y418250D01*
X11100Y419750D02*Y417500D01*
Y419750D02*X11850Y420500D01*
X12600D01*
X13350Y419750D01*
Y417500D01*
Y419750D02*X14100Y420500D01*
X14850D01*
X15600Y419750D01*
Y417500D01*
X10350Y420500D02*X11100Y419750D01*
X17400Y423500D02*Y417500D01*
Y418250D02*X18150Y417500D01*
X19650D01*
X20400Y418250D01*
Y419750D02*Y418250D01*
X19650Y420500D02*X20400Y419750D01*
X18150Y420500D02*X19650D01*
X17400Y419750D02*X18150Y420500D01*
X22200Y419750D02*Y418250D01*
Y419750D02*X22950Y420500D01*
X24450D01*
X25200Y419750D01*
Y418250D01*
X24450Y417500D02*X25200Y418250D01*
X22950Y417500D02*X24450D01*
X22200Y418250D02*X22950Y417500D01*
X27000Y423500D02*Y418250D01*
X27750Y417500D01*
X0Y414250D02*X29250D01*
X41750Y423500D02*Y417500D01*
X43700Y423500D02*X44750Y422450D01*
Y418550D01*
X43700Y417500D02*X44750Y418550D01*
X41000Y417500D02*X43700D01*
X41000Y423500D02*X43700D01*
G54D102*X46550Y422000D02*Y421850D01*
G54D101*Y419750D02*Y417500D01*
X50300Y420500D02*X51050Y419750D01*
X48800Y420500D02*X50300D01*
X48050Y419750D02*X48800Y420500D01*
X48050Y419750D02*Y418250D01*
X48800Y417500D01*
X51050Y420500D02*Y418250D01*
X51800Y417500D01*
X48800D02*X50300D01*
X51050Y418250D01*
X54350Y419750D02*Y417500D01*
Y419750D02*X55100Y420500D01*
X55850D01*
X56600Y419750D01*
Y417500D01*
Y419750D02*X57350Y420500D01*
X58100D01*
X58850Y419750D01*
Y417500D01*
X53600Y420500D02*X54350Y419750D01*
X60650Y417500D02*X61400D01*
X65900Y418250D02*X66650Y417500D01*
X65900Y422750D02*X66650Y423500D01*
X65900Y422750D02*Y418250D01*
X68450Y423500D02*X69950D01*
X69200D02*Y417500D01*
X68450D02*X69950D01*
X72500Y419750D02*Y417500D01*
Y419750D02*X73250Y420500D01*
X74000D01*
X74750Y419750D01*
Y417500D01*
X71750Y420500D02*X72500Y419750D01*
X77300Y420500D02*X79550D01*
X76550Y419750D02*X77300Y420500D01*
X76550Y419750D02*Y418250D01*
X77300Y417500D01*
X79550D01*
X81350Y423500D02*Y417500D01*
Y419750D02*X82100Y420500D01*
X83600D01*
X84350Y419750D01*
Y417500D01*
X86150Y423500D02*X86900Y422750D01*
Y418250D01*
X86150Y417500D02*X86900Y418250D01*
X41000Y414250D02*X88700D01*
X96050Y417500D02*X98000D01*
X95000Y418550D02*X96050Y417500D01*
X95000Y422450D02*Y418550D01*
Y422450D02*X96050Y423500D01*
X98000D01*
X99800Y419750D02*Y418250D01*
Y419750D02*X100550Y420500D01*
X102050D01*
X102800Y419750D01*
Y418250D01*
X102050Y417500D02*X102800Y418250D01*
X100550Y417500D02*X102050D01*
X99800Y418250D02*X100550Y417500D01*
X104600Y420500D02*Y418250D01*
X105350Y417500D01*
X106850D01*
X107600Y418250D01*
Y420500D02*Y418250D01*
X110150Y419750D02*Y417500D01*
Y419750D02*X110900Y420500D01*
X111650D01*
X112400Y419750D01*
Y417500D01*
X109400Y420500D02*X110150Y419750D01*
X114950Y423500D02*Y418250D01*
X115700Y417500D01*
X114200Y421250D02*X115700D01*
X95000Y414250D02*X117200D01*
X130750Y423500D02*Y417500D01*
X130000Y423500D02*X133000D01*
X133750Y422750D01*
Y421250D01*
X133000Y420500D02*X133750Y421250D01*
X130750Y420500D02*X133000D01*
X135550Y423500D02*Y418250D01*
X136300Y417500D01*
X140050Y420500D02*X140800Y419750D01*
X138550Y420500D02*X140050D01*
X137800Y419750D02*X138550Y420500D01*
X137800Y419750D02*Y418250D01*
X138550Y417500D01*
X140800Y420500D02*Y418250D01*
X141550Y417500D01*
X138550D02*X140050D01*
X140800Y418250D01*
X144100Y423500D02*Y418250D01*
X144850Y417500D01*
X143350Y421250D02*X144850D01*
X147100Y417500D02*X149350D01*
X146350Y418250D02*X147100Y417500D01*
X146350Y419750D02*Y418250D01*
Y419750D02*X147100Y420500D01*
X148600D01*
X149350Y419750D01*
X146350Y419000D02*X149350D01*
Y419750D02*Y419000D01*
X154150Y423500D02*Y417500D01*
X153400D02*X154150Y418250D01*
X151900Y417500D02*X153400D01*
X151150Y418250D02*X151900Y417500D01*
X151150Y419750D02*Y418250D01*
Y419750D02*X151900Y420500D01*
X153400D01*
X154150Y419750D01*
X157450Y420500D02*Y419750D01*
Y418250D02*Y417500D01*
X155950Y422750D02*Y422000D01*
Y422750D02*X156700Y423500D01*
X158200D01*
X158950Y422750D01*
Y422000D01*
X157450Y420500D02*X158950Y422000D01*
X130000Y414250D02*X160750D01*
X0Y438500D02*X3000D01*
X1500D02*Y432500D01*
X4800Y438500D02*Y432500D01*
Y434750D02*X5550Y435500D01*
X7050D01*
X7800Y434750D01*
Y432500D01*
X10350D02*X12600D01*
X9600Y433250D02*X10350Y432500D01*
X9600Y434750D02*Y433250D01*
Y434750D02*X10350Y435500D01*
X11850D01*
X12600Y434750D01*
X9600Y434000D02*X12600D01*
Y434750D02*Y434000D01*
X15150Y434750D02*Y432500D01*
Y434750D02*X15900Y435500D01*
X17400D01*
X14400D02*X15150Y434750D01*
X19950Y432500D02*X22200D01*
X19200Y433250D02*X19950Y432500D01*
X19200Y434750D02*Y433250D01*
Y434750D02*X19950Y435500D01*
X21450D01*
X22200Y434750D01*
X19200Y434000D02*X22200D01*
Y434750D02*Y434000D01*
X28950Y435500D02*X29700Y434750D01*
X27450Y435500D02*X28950D01*
X26700Y434750D02*X27450Y435500D01*
X26700Y434750D02*Y433250D01*
X27450Y432500D01*
X29700Y435500D02*Y433250D01*
X30450Y432500D01*
X27450D02*X28950D01*
X29700Y433250D01*
X33000Y434750D02*Y432500D01*
Y434750D02*X33750Y435500D01*
X35250D01*
X32250D02*X33000Y434750D01*
X37800Y432500D02*X40050D01*
X37050Y433250D02*X37800Y432500D01*
X37050Y434750D02*Y433250D01*
Y434750D02*X37800Y435500D01*
X39300D01*
X40050Y434750D01*
X37050Y434000D02*X40050D01*
Y434750D02*Y434000D01*
X44550Y433250D02*X45300Y432500D01*
X44550Y434450D02*Y433250D01*
Y434450D02*X45600Y435500D01*
X46500D01*
X47550Y434450D01*
Y433250D01*
X46800Y432500D02*X47550Y433250D01*
X45300Y432500D02*X46800D01*
X44550Y436550D02*X45600Y435500D01*
X44550Y437750D02*Y436550D01*
Y437750D02*X45300Y438500D01*
X46800D01*
X47550Y437750D01*
Y436550D01*
X46500Y435500D02*X47550Y436550D01*
X55050Y438500D02*Y432500D01*
X54300D02*X55050Y433250D01*
X52800Y432500D02*X54300D01*
X52050Y433250D02*X52800Y432500D01*
X52050Y434750D02*Y433250D01*
Y434750D02*X52800Y435500D01*
X54300D01*
X55050Y434750D01*
G54D102*X56850Y437000D02*Y436850D01*
G54D101*Y434750D02*Y432500D01*
X59100Y437750D02*Y432500D01*
Y437750D02*X59850Y438500D01*
X60600D01*
X58350Y435500D02*X59850D01*
X62850Y437750D02*Y432500D01*
Y437750D02*X63600Y438500D01*
X64350D01*
X62100Y435500D02*X63600D01*
X66600Y432500D02*X68850D01*
X65850Y433250D02*X66600Y432500D01*
X65850Y434750D02*Y433250D01*
Y434750D02*X66600Y435500D01*
X68100D01*
X68850Y434750D01*
X65850Y434000D02*X68850D01*
Y434750D02*Y434000D01*
X71400Y434750D02*Y432500D01*
Y434750D02*X72150Y435500D01*
X73650D01*
X70650D02*X71400Y434750D01*
X76200Y432500D02*X78450D01*
X75450Y433250D02*X76200Y432500D01*
X75450Y434750D02*Y433250D01*
Y434750D02*X76200Y435500D01*
X77700D01*
X78450Y434750D01*
X75450Y434000D02*X78450D01*
Y434750D02*Y434000D01*
X81000Y434750D02*Y432500D01*
Y434750D02*X81750Y435500D01*
X82500D01*
X83250Y434750D01*
Y432500D01*
X80250Y435500D02*X81000Y434750D01*
X85800Y438500D02*Y433250D01*
X86550Y432500D01*
X85050Y436250D02*X86550D01*
X93750Y438500D02*Y432500D01*
X93000D02*X93750Y433250D01*
X91500Y432500D02*X93000D01*
X90750Y433250D02*X91500Y432500D01*
X90750Y434750D02*Y433250D01*
Y434750D02*X91500Y435500D01*
X93000D01*
X93750Y434750D01*
X96300D02*Y432500D01*
Y434750D02*X97050Y435500D01*
X98550D01*
X95550D02*X96300Y434750D01*
G54D102*X100350Y437000D02*Y436850D01*
G54D101*Y434750D02*Y432500D01*
X101850Y438500D02*Y433250D01*
X102600Y432500D01*
X104100Y438500D02*Y433250D01*
X104850Y432500D01*
X109800D02*X112050D01*
X112800Y433250D01*
X112050Y434000D02*X112800Y433250D01*
X109800Y434000D02*X112050D01*
X109050Y434750D02*X109800Y434000D01*
X109050Y434750D02*X109800Y435500D01*
X112050D01*
X112800Y434750D01*
X109050Y433250D02*X109800Y432500D01*
G54D102*X114600Y437000D02*Y436850D01*
G54D101*Y434750D02*Y432500D01*
X116100Y435500D02*X119100D01*
X116100Y432500D02*X119100Y435500D01*
X116100Y432500D02*X119100D01*
X121650D02*X123900D01*
X120900Y433250D02*X121650Y432500D01*
X120900Y434750D02*Y433250D01*
Y434750D02*X121650Y435500D01*
X123150D01*
X123900Y434750D01*
X120900Y434000D02*X123900D01*
Y434750D02*Y434000D01*
X126450Y432500D02*X128700D01*
X129450Y433250D01*
X128700Y434000D02*X129450Y433250D01*
X126450Y434000D02*X128700D01*
X125700Y434750D02*X126450Y434000D01*
X125700Y434750D02*X126450Y435500D01*
X128700D01*
X129450Y434750D01*
X125700Y433250D02*X126450Y432500D01*
X133950Y435500D02*Y433250D01*
X134700Y432500D01*
X136200D01*
X136950Y433250D01*
Y435500D02*Y433250D01*
X139500Y432500D02*X141750D01*
X142500Y433250D01*
X141750Y434000D02*X142500Y433250D01*
X139500Y434000D02*X141750D01*
X138750Y434750D02*X139500Y434000D01*
X138750Y434750D02*X139500Y435500D01*
X141750D01*
X142500Y434750D01*
X138750Y433250D02*X139500Y432500D01*
X145050D02*X147300D01*
X144300Y433250D02*X145050Y432500D01*
X144300Y434750D02*Y433250D01*
Y434750D02*X145050Y435500D01*
X146550D01*
X147300Y434750D01*
X144300Y434000D02*X147300D01*
Y434750D02*Y434000D01*
X152100Y438500D02*Y432500D01*
X151350D02*X152100Y433250D01*
X149850Y432500D02*X151350D01*
X149100Y433250D02*X149850Y432500D01*
X149100Y434750D02*Y433250D01*
Y434750D02*X149850Y435500D01*
X151350D01*
X152100Y434750D01*
G54D102*X156600Y437000D02*Y436850D01*
G54D101*Y434750D02*Y432500D01*
X158850Y434750D02*Y432500D01*
Y434750D02*X159600Y435500D01*
X160350D01*
X161100Y434750D01*
Y432500D01*
X158100Y435500D02*X158850Y434750D01*
X166350Y438500D02*Y433250D01*
X167100Y432500D01*
X165600Y436250D02*X167100D01*
X168600Y438500D02*Y432500D01*
Y434750D02*X169350Y435500D01*
X170850D01*
X171600Y434750D01*
Y432500D01*
G54D102*X173400Y437000D02*Y436850D01*
G54D101*Y434750D02*Y432500D01*
X175650D02*X177900D01*
X178650Y433250D01*
X177900Y434000D02*X178650Y433250D01*
X175650Y434000D02*X177900D01*
X174900Y434750D02*X175650Y434000D01*
X174900Y434750D02*X175650Y435500D01*
X177900D01*
X178650Y434750D01*
X174900Y433250D02*X175650Y432500D01*
X183150Y438500D02*Y433250D01*
X183900Y432500D01*
X187650Y435500D02*X188400Y434750D01*
X186150Y435500D02*X187650D01*
X185400Y434750D02*X186150Y435500D01*
X185400Y434750D02*Y433250D01*
X186150Y432500D01*
X188400Y435500D02*Y433250D01*
X189150Y432500D01*
X186150D02*X187650D01*
X188400Y433250D01*
X190950Y435500D02*Y433250D01*
X191700Y432500D01*
X193950Y435500D02*Y431000D01*
X193200Y430250D02*X193950Y431000D01*
X191700Y430250D02*X193200D01*
X190950Y431000D02*X191700Y430250D01*
Y432500D02*X193200D01*
X193950Y433250D01*
X195750Y434750D02*Y433250D01*
Y434750D02*X196500Y435500D01*
X198000D01*
X198750Y434750D01*
Y433250D01*
X198000Y432500D02*X198750Y433250D01*
X196500Y432500D02*X198000D01*
X195750Y433250D02*X196500Y432500D01*
X200550Y435500D02*Y433250D01*
X201300Y432500D01*
X202800D01*
X203550Y433250D01*
Y435500D02*Y433250D01*
X206100Y438500D02*Y433250D01*
X206850Y432500D01*
X205350Y436250D02*X206850D01*
X208350Y431000D02*X209850Y432500D01*
X214350Y434750D02*X217350Y438500D01*
X214350Y434750D02*X218100D01*
X217350Y438500D02*Y432500D01*
X219900Y433250D02*X220650Y432500D01*
X219900Y437750D02*Y433250D01*
Y437750D02*X220650Y438500D01*
X222150D01*
X222900Y437750D01*
Y433250D01*
X222150Y432500D02*X222900Y433250D01*
X220650Y432500D02*X222150D01*
X219900Y434000D02*X222900Y437000D01*
X227400Y438500D02*Y432500D01*
Y434750D02*X228150Y435500D01*
X229650D01*
X230400Y434750D01*
Y432500D01*
X232200Y434750D02*Y433250D01*
Y434750D02*X232950Y435500D01*
X234450D01*
X235200Y434750D01*
Y433250D01*
X234450Y432500D02*X235200Y433250D01*
X232950Y432500D02*X234450D01*
X232200Y433250D02*X232950Y432500D01*
X237000Y438500D02*Y433250D01*
X237750Y432500D01*
X240000D02*X242250D01*
X239250Y433250D02*X240000Y432500D01*
X239250Y434750D02*Y433250D01*
Y434750D02*X240000Y435500D01*
X241500D01*
X242250Y434750D01*
X239250Y434000D02*X242250D01*
Y434750D02*Y434000D01*
X244800Y432500D02*X247050D01*
X247800Y433250D01*
X247050Y434000D02*X247800Y433250D01*
X244800Y434000D02*X247050D01*
X244050Y434750D02*X244800Y434000D01*
X244050Y434750D02*X244800Y435500D01*
X247050D01*
X247800Y434750D01*
X244050Y433250D02*X244800Y432500D01*
X253050Y438500D02*Y433250D01*
X253800Y432500D01*
X252300Y436250D02*X253800D01*
X255300Y434750D02*Y433250D01*
Y434750D02*X256050Y435500D01*
X257550D01*
X258300Y434750D01*
Y433250D01*
X257550Y432500D02*X258300Y433250D01*
X256050Y432500D02*X257550D01*
X255300Y433250D02*X256050Y432500D01*
X260850Y438500D02*Y433250D01*
X261600Y432500D01*
X260100Y436250D02*X261600D01*
X265350Y435500D02*X266100Y434750D01*
X263850Y435500D02*X265350D01*
X263100Y434750D02*X263850Y435500D01*
X263100Y434750D02*Y433250D01*
X263850Y432500D01*
X266100Y435500D02*Y433250D01*
X266850Y432500D01*
X263850D02*X265350D01*
X266100Y433250D01*
X268650Y438500D02*Y433250D01*
X269400Y432500D01*
G54D103*X0Y290000D02*X290000D01*
Y0D01*
X0D01*
Y290000D01*
G54D101*X58675Y-9500D02*X61675D01*
X62425Y-8750D01*
Y-6950D02*Y-8750D01*
X61675Y-6200D02*X62425Y-6950D01*
X59425Y-6200D02*X61675D01*
X59425Y-3500D02*Y-9500D01*
X58675Y-3500D02*X61675D01*
X62425Y-4250D01*
Y-5450D01*
X61675Y-6200D02*X62425Y-5450D01*
X64225Y-7250D02*Y-8750D01*
Y-7250D02*X64975Y-6500D01*
X66475D01*
X67225Y-7250D01*
Y-8750D01*
X66475Y-9500D02*X67225Y-8750D01*
X64975Y-9500D02*X66475D01*
X64225Y-8750D02*X64975Y-9500D01*
X71275Y-6500D02*X72025Y-7250D01*
X69775Y-6500D02*X71275D01*
X69025Y-7250D02*X69775Y-6500D01*
X69025Y-7250D02*Y-8750D01*
X69775Y-9500D01*
X72025Y-6500D02*Y-8750D01*
X72775Y-9500D01*
X69775D02*X71275D01*
X72025Y-8750D01*
X75325Y-7250D02*Y-9500D01*
Y-7250D02*X76075Y-6500D01*
X77575D01*
X74575D02*X75325Y-7250D01*
X82375Y-3500D02*Y-9500D01*
X81625D02*X82375Y-8750D01*
X80125Y-9500D02*X81625D01*
X79375Y-8750D02*X80125Y-9500D01*
X79375Y-7250D02*Y-8750D01*
Y-7250D02*X80125Y-6500D01*
X81625D01*
X82375Y-7250D01*
X86875D02*Y-8750D01*
Y-7250D02*X87625Y-6500D01*
X89125D01*
X89875Y-7250D01*
Y-8750D01*
X89125Y-9500D02*X89875Y-8750D01*
X87625Y-9500D02*X89125D01*
X86875Y-8750D02*X87625Y-9500D01*
X91675Y-6500D02*Y-8750D01*
X92425Y-9500D01*
X93925D01*
X94675Y-8750D01*
Y-6500D02*Y-8750D01*
X97225Y-3500D02*Y-8750D01*
X97975Y-9500D01*
X96475Y-5750D02*X97975D01*
X99475Y-3500D02*Y-8750D01*
X100225Y-9500D01*
G54D102*X101725Y-5000D02*Y-5150D01*
G54D101*Y-7250D02*Y-9500D01*
X103975Y-7250D02*Y-9500D01*
Y-7250D02*X104725Y-6500D01*
X105475D01*
X106225Y-7250D01*
Y-9500D01*
X103225Y-6500D02*X103975Y-7250D01*
X108775Y-9500D02*X111025D01*
X108025Y-8750D02*X108775Y-9500D01*
X108025Y-7250D02*Y-8750D01*
Y-7250D02*X108775Y-6500D01*
X110275D01*
X111025Y-7250D01*
X108025Y-8000D02*X111025D01*
Y-7250D02*Y-8000D01*
G54D102*X115525Y-5000D02*Y-5150D01*
G54D101*Y-7250D02*Y-9500D01*
X117775D02*X120025D01*
X120775Y-8750D01*
X120025Y-8000D02*X120775Y-8750D01*
X117775Y-8000D02*X120025D01*
X117025Y-7250D02*X117775Y-8000D01*
X117025Y-7250D02*X117775Y-6500D01*
X120025D01*
X120775Y-7250D01*
X117025Y-8750D02*X117775Y-9500D01*
X126025Y-3500D02*Y-8750D01*
X126775Y-9500D01*
X125275Y-5750D02*X126775D01*
X128275Y-3500D02*Y-9500D01*
Y-7250D02*X129025Y-6500D01*
X130525D01*
X131275Y-7250D01*
Y-9500D01*
X133825D02*X136075D01*
X133075Y-8750D02*X133825Y-9500D01*
X133075Y-7250D02*Y-8750D01*
Y-7250D02*X133825Y-6500D01*
X135325D01*
X136075Y-7250D01*
X133075Y-8000D02*X136075D01*
Y-7250D02*Y-8000D01*
X141325Y-6500D02*X143575D01*
X140575Y-7250D02*X141325Y-6500D01*
X140575Y-7250D02*Y-8750D01*
X141325Y-9500D01*
X143575D01*
X146125D02*X148375D01*
X145375Y-8750D02*X146125Y-9500D01*
X145375Y-7250D02*Y-8750D01*
Y-7250D02*X146125Y-6500D01*
X147625D01*
X148375Y-7250D01*
X145375Y-8000D02*X148375D01*
Y-7250D02*Y-8000D01*
X150925Y-7250D02*Y-9500D01*
Y-7250D02*X151675Y-6500D01*
X152425D01*
X153175Y-7250D01*
Y-9500D01*
X150175Y-6500D02*X150925Y-7250D01*
X155725Y-3500D02*Y-8750D01*
X156475Y-9500D01*
X154975Y-5750D02*X156475D01*
X158725Y-9500D02*X160975D01*
X157975Y-8750D02*X158725Y-9500D01*
X157975Y-7250D02*Y-8750D01*
Y-7250D02*X158725Y-6500D01*
X160225D01*
X160975Y-7250D01*
X157975Y-8000D02*X160975D01*
Y-7250D02*Y-8000D01*
X163525Y-7250D02*Y-9500D01*
Y-7250D02*X164275Y-6500D01*
X165775D01*
X162775D02*X163525Y-7250D01*
X167575Y-3500D02*Y-8750D01*
X168325Y-9500D01*
G54D102*X169825Y-5000D02*Y-5150D01*
G54D101*Y-7250D02*Y-9500D01*
X172075Y-7250D02*Y-9500D01*
Y-7250D02*X172825Y-6500D01*
X173575D01*
X174325Y-7250D01*
Y-9500D01*
X171325Y-6500D02*X172075Y-7250D01*
X176875Y-9500D02*X179125D01*
X176125Y-8750D02*X176875Y-9500D01*
X176125Y-7250D02*Y-8750D01*
Y-7250D02*X176875Y-6500D01*
X178375D01*
X179125Y-7250D01*
X176125Y-8000D02*X179125D01*
Y-7250D02*Y-8000D01*
X183625Y-7250D02*Y-8750D01*
Y-7250D02*X184375Y-6500D01*
X185875D01*
X186625Y-7250D01*
Y-8750D01*
X185875Y-9500D02*X186625Y-8750D01*
X184375Y-9500D02*X185875D01*
X183625Y-8750D02*X184375Y-9500D01*
X189175Y-4250D02*Y-9500D01*
Y-4250D02*X189925Y-3500D01*
X190675D01*
X188425Y-6500D02*X189925D01*
X195625Y-3500D02*Y-8750D01*
X196375Y-9500D01*
X194875Y-5750D02*X196375D01*
X197875Y-3500D02*Y-9500D01*
Y-7250D02*X198625Y-6500D01*
X200125D01*
X200875Y-7250D01*
Y-9500D01*
G54D102*X202675Y-5000D02*Y-5150D01*
G54D101*Y-7250D02*Y-9500D01*
X204925D02*X207175D01*
X207925Y-8750D01*
X207175Y-8000D02*X207925Y-8750D01*
X204925Y-8000D02*X207175D01*
X204175Y-7250D02*X204925Y-8000D01*
X204175Y-7250D02*X204925Y-6500D01*
X207175D01*
X207925Y-7250D01*
X204175Y-8750D02*X204925Y-9500D01*
X213175Y-7250D02*Y-11750D01*
X212425Y-6500D02*X213175Y-7250D01*
X213925Y-6500D01*
X215425D01*
X216175Y-7250D01*
Y-8750D01*
X215425Y-9500D02*X216175Y-8750D01*
X213925Y-9500D02*X215425D01*
X213175Y-8750D02*X213925Y-9500D01*
X220225Y-6500D02*X220975Y-7250D01*
X218725Y-6500D02*X220225D01*
X217975Y-7250D02*X218725Y-6500D01*
X217975Y-7250D02*Y-8750D01*
X218725Y-9500D01*
X220975Y-6500D02*Y-8750D01*
X221725Y-9500D01*
X218725D02*X220225D01*
X220975Y-8750D01*
X224275Y-3500D02*Y-8750D01*
X225025Y-9500D01*
X223525Y-5750D02*X225025D01*
X226525Y-3500D02*Y-9500D01*
Y-7250D02*X227275Y-6500D01*
X228775D01*
X229525Y-7250D01*
Y-9500D01*
X200750Y318500D02*Y312500D01*
X202700Y318500D02*X203750Y317450D01*
Y313550D01*
X202700Y312500D02*X203750Y313550D01*
X200000Y312500D02*X202700D01*
X200000Y318500D02*X202700D01*
X207800Y315500D02*X208550Y314750D01*
X206300Y315500D02*X207800D01*
X205550Y314750D02*X206300Y315500D01*
X205550Y314750D02*Y313250D01*
X206300Y312500D01*
X208550Y315500D02*Y313250D01*
X209300Y312500D01*
X206300D02*X207800D01*
X208550Y313250D01*
X211850Y318500D02*Y313250D01*
X212600Y312500D01*
X211100Y316250D02*X212600D01*
X214850Y312500D02*X217100D01*
X214100Y313250D02*X214850Y312500D01*
X214100Y314750D02*Y313250D01*
Y314750D02*X214850Y315500D01*
X216350D01*
X217100Y314750D01*
X214100Y314000D02*X217100D01*
Y314750D02*Y314000D01*
X218900Y316250D02*X219650D01*
X218900Y314750D02*X219650D01*
X227150Y318500D02*X227900Y317750D01*
X224900Y318500D02*X227150D01*
X224150Y317750D02*X224900Y318500D01*
X224150Y317750D02*Y316250D01*
X224900Y315500D01*
X227150D01*
X227900Y314750D01*
Y313250D01*
X227150Y312500D02*X227900Y313250D01*
X224900Y312500D02*X227150D01*
X224150Y313250D02*X224900Y312500D01*
X229700Y315500D02*Y313250D01*
X230450Y312500D01*
X231950D01*
X232700Y313250D01*
Y315500D02*Y313250D01*
X235250Y314750D02*Y312500D01*
Y314750D02*X236000Y315500D01*
X236750D01*
X237500Y314750D01*
Y312500D01*
X234500Y315500D02*X235250Y314750D01*
X242000Y317750D02*X242750Y318500D01*
X245000D01*
X245750Y317750D01*
Y316250D01*
X242000Y312500D02*X245750Y316250D01*
X242000Y312500D02*X245750D01*
X247550Y317300D02*X248750Y318500D01*
Y312500D01*
X247550D02*X249800D01*
X255050Y318500D02*Y312500D01*
X257000Y318500D02*X258050Y317450D01*
Y313550D01*
X257000Y312500D02*X258050Y313550D01*
X254300Y312500D02*X257000D01*
X254300Y318500D02*X257000D01*
X260600Y312500D02*X262850D01*
X259850Y313250D02*X260600Y312500D01*
X259850Y314750D02*Y313250D01*
Y314750D02*X260600Y315500D01*
X262100D01*
X262850Y314750D01*
X259850Y314000D02*X262850D01*
Y314750D02*Y314000D01*
X265400Y315500D02*X267650D01*
X264650Y314750D02*X265400Y315500D01*
X264650Y314750D02*Y313250D01*
X265400Y312500D01*
X267650D01*
X272150Y317750D02*X272900Y318500D01*
X275150D01*
X275900Y317750D01*
Y316250D01*
X272150Y312500D02*X275900Y316250D01*
X272150Y312500D02*X275900D01*
X277700Y313250D02*X278450Y312500D01*
X277700Y317750D02*Y313250D01*
Y317750D02*X278450Y318500D01*
X279950D01*
X280700Y317750D01*
Y313250D01*
X279950Y312500D02*X280700Y313250D01*
X278450Y312500D02*X279950D01*
X277700Y314000D02*X280700Y317000D01*
X282500Y317300D02*X283700Y318500D01*
Y312500D01*
X282500D02*X284750D01*
X286550Y314750D02*X289550Y318500D01*
X286550Y314750D02*X290300D01*
X289550Y318500D02*Y312500D01*
X294800Y313250D02*X295550Y312500D01*
X294800Y317750D02*Y313250D01*
Y317750D02*X295550Y318500D01*
X297050D01*
X297800Y317750D01*
Y313250D01*
X297050Y312500D02*X297800Y313250D01*
X295550Y312500D02*X297050D01*
X294800Y314000D02*X297800Y317000D01*
X299600Y317750D02*X300350Y318500D01*
X301850D01*
X302600Y317750D01*
X301850Y312500D02*X302600Y313250D01*
X300350Y312500D02*X301850D01*
X299600Y313250D02*X300350Y312500D01*
Y315800D02*X301850D01*
X302600Y317750D02*Y316550D01*
Y315050D02*Y313250D01*
Y315050D02*X301850Y315800D01*
X302600Y316550D02*X301850Y315800D01*
X304400Y316250D02*X305150D01*
X304400Y314750D02*X305150D01*
X306950Y317750D02*X307700Y318500D01*
X309950D01*
X310700Y317750D01*
Y316250D01*
X306950Y312500D02*X310700Y316250D01*
X306950Y312500D02*X310700D01*
X313250D02*X316250Y318500D01*
X312500D02*X316250D01*
X318050Y316250D02*X318800D01*
X318050Y314750D02*X318800D01*
X320600Y317300D02*X321800Y318500D01*
Y312500D01*
X320600D02*X322850D01*
X324650Y317750D02*X325400Y318500D01*
X327650D01*
X328400Y317750D01*
Y316250D01*
X324650Y312500D02*X328400Y316250D01*
X324650Y312500D02*X328400D01*
X332900Y317000D02*Y312500D01*
Y317000D02*X333950Y318500D01*
X335600D01*
X336650Y317000D01*
Y312500D01*
X332900Y315500D02*X336650D01*
X338450Y318500D02*Y312500D01*
Y318500D02*X340700Y315500D01*
X342950Y318500D01*
Y312500D01*
X350450Y318500D02*X351200Y317750D01*
X348200Y318500D02*X350450D01*
X347450Y317750D02*X348200Y318500D01*
X347450Y317750D02*Y313250D01*
X348200Y312500D01*
X350450D01*
X351200Y313250D01*
Y314750D02*Y313250D01*
X350450Y315500D02*X351200Y314750D01*
X348950Y315500D02*X350450D01*
X353000Y318500D02*Y312500D01*
Y318500D02*X355250Y315500D01*
X357500Y318500D01*
Y312500D01*
X359300Y318500D02*X362300D01*
X360800D02*Y312500D01*
X366800Y318500D02*Y313250D01*
X367550Y312500D01*
X369050D01*
X369800Y313250D01*
Y318500D02*Y313250D01*
X371600Y318500D02*X374600D01*
X373100D02*Y312500D01*
X377450D02*X379400D01*
X376400Y313550D02*X377450Y312500D01*
X376400Y317450D02*Y313550D01*
Y317450D02*X377450Y318500D01*
X379400D01*
X200000Y332000D02*Y327500D01*
Y332000D02*X201050Y333500D01*
X202700D01*
X203750Y332000D01*
Y327500D01*
X200000Y330500D02*X203750D01*
X205550D02*Y328250D01*
X206300Y327500D01*
X207800D01*
X208550Y328250D01*
Y330500D02*Y328250D01*
X211100Y333500D02*Y328250D01*
X211850Y327500D01*
X210350Y331250D02*X211850D01*
X213350Y333500D02*Y327500D01*
Y329750D02*X214100Y330500D01*
X215600D01*
X216350Y329750D01*
Y327500D01*
X218150Y329750D02*Y328250D01*
Y329750D02*X218900Y330500D01*
X220400D01*
X221150Y329750D01*
Y328250D01*
X220400Y327500D02*X221150Y328250D01*
X218900Y327500D02*X220400D01*
X218150Y328250D02*X218900Y327500D01*
X223700Y329750D02*Y327500D01*
Y329750D02*X224450Y330500D01*
X225950D01*
X222950D02*X223700Y329750D01*
X227750Y331250D02*X228500D01*
X227750Y329750D02*X228500D01*
X233000Y333500D02*Y327500D01*
Y333500D02*X235250Y330500D01*
X237500Y333500D01*
Y327500D01*
G54D102*X239300Y332000D02*Y331850D01*
G54D101*Y329750D02*Y327500D01*
X241550Y330500D02*X243800D01*
X240800Y329750D02*X241550Y330500D01*
X240800Y329750D02*Y328250D01*
X241550Y327500D01*
X243800D01*
X245600Y333500D02*Y327500D01*
Y329750D02*X246350Y330500D01*
X247850D01*
X248600Y329750D01*
Y327500D01*
X252650Y330500D02*X253400Y329750D01*
X251150Y330500D02*X252650D01*
X250400Y329750D02*X251150Y330500D01*
X250400Y329750D02*Y328250D01*
X251150Y327500D01*
X253400Y330500D02*Y328250D01*
X254150Y327500D01*
X251150D02*X252650D01*
X253400Y328250D01*
X256700Y327500D02*X258950D01*
X255950Y328250D02*X256700Y327500D01*
X255950Y329750D02*Y328250D01*
Y329750D02*X256700Y330500D01*
X258200D01*
X258950Y329750D01*
X255950Y329000D02*X258950D01*
Y329750D02*Y329000D01*
X260750Y333500D02*Y328250D01*
X261500Y327500D01*
X266450Y333500D02*Y327500D01*
X265700Y333500D02*X268700D01*
X269450Y332750D01*
Y331250D01*
X268700Y330500D02*X269450Y331250D01*
X266450Y330500D02*X268700D01*
X272000Y327500D02*X274250D01*
X271250Y328250D02*X272000Y327500D01*
X271250Y329750D02*Y328250D01*
Y329750D02*X272000Y330500D01*
X273500D01*
X274250Y329750D01*
X271250Y329000D02*X274250D01*
Y329750D02*Y329000D01*
X276800Y333500D02*Y328250D01*
X277550Y327500D01*
X276050Y331250D02*X277550D01*
X279800Y327500D02*X282050D01*
X279050Y328250D02*X279800Y327500D01*
X279050Y329750D02*Y328250D01*
Y329750D02*X279800Y330500D01*
X281300D01*
X282050Y329750D01*
X279050Y329000D02*X282050D01*
Y329750D02*Y329000D01*
X284600Y329750D02*Y327500D01*
Y329750D02*X285350Y330500D01*
X286850D01*
X283850D02*X284600Y329750D01*
X289400Y327500D02*X291650D01*
X292400Y328250D01*
X291650Y329000D02*X292400Y328250D01*
X289400Y329000D02*X291650D01*
X288650Y329750D02*X289400Y329000D01*
X288650Y329750D02*X289400Y330500D01*
X291650D01*
X292400Y329750D01*
X288650Y328250D02*X289400Y327500D01*
X294950D02*X297200D01*
X294200Y328250D02*X294950Y327500D01*
X294200Y329750D02*Y328250D01*
Y329750D02*X294950Y330500D01*
X296450D01*
X297200Y329750D01*
X294200Y329000D02*X297200D01*
Y329750D02*Y329000D01*
X299750Y329750D02*Y327500D01*
Y329750D02*X300500Y330500D01*
X301250D01*
X302000Y329750D01*
Y327500D01*
X299000Y330500D02*X299750Y329750D01*
X200000Y348500D02*X203000D01*
X201500D02*Y342500D01*
G54D102*X204800Y347000D02*Y346850D01*
G54D101*Y344750D02*Y342500D01*
X207050Y348500D02*Y343250D01*
X207800Y342500D01*
X206300Y346250D02*X207800D01*
X209300Y348500D02*Y343250D01*
X210050Y342500D01*
X212300D02*X214550D01*
X211550Y343250D02*X212300Y342500D01*
X211550Y344750D02*Y343250D01*
Y344750D02*X212300Y345500D01*
X213800D01*
X214550Y344750D01*
X211550Y344000D02*X214550D01*
Y344750D02*Y344000D01*
X216350Y346250D02*X217100D01*
X216350Y344750D02*X217100D01*
X221600Y343250D02*X222350Y342500D01*
X221600Y347750D02*X222350Y348500D01*
X221600Y347750D02*Y343250D01*
X224150Y345500D02*Y343250D01*
X224900Y342500D01*
X226400D01*
X227150Y343250D01*
Y345500D02*Y343250D01*
X229700Y344750D02*Y342500D01*
Y344750D02*X230450Y345500D01*
X231200D01*
X231950Y344750D01*
Y342500D01*
X228950Y345500D02*X229700Y344750D01*
X233750Y348500D02*Y342500D01*
Y344750D02*X236000Y342500D01*
X233750Y344750D02*X235250Y346250D01*
X238550Y344750D02*Y342500D01*
Y344750D02*X239300Y345500D01*
X240050D01*
X240800Y344750D01*
Y342500D01*
X237800Y345500D02*X238550Y344750D01*
X242600D02*Y343250D01*
Y344750D02*X243350Y345500D01*
X244850D01*
X245600Y344750D01*
Y343250D01*
X244850Y342500D02*X245600Y343250D01*
X243350Y342500D02*X244850D01*
X242600Y343250D02*X243350Y342500D01*
X247400Y345500D02*Y343250D01*
X248150Y342500D01*
X248900D01*
X249650Y343250D01*
Y345500D02*Y343250D01*
X250400Y342500D01*
X251150D01*
X251900Y343250D01*
Y345500D02*Y343250D01*
X254450Y344750D02*Y342500D01*
Y344750D02*X255200Y345500D01*
X255950D01*
X256700Y344750D01*
Y342500D01*
X253700Y345500D02*X254450Y344750D01*
X258500Y348500D02*X259250Y347750D01*
Y343250D01*
X258500Y342500D02*X259250Y343250D01*
X263750Y345500D02*X266750D01*
X271250Y348500D02*Y342500D01*
Y348500D02*X274250D01*
X271250Y345800D02*X273500D01*
X278300Y345500D02*X279050Y344750D01*
X276800Y345500D02*X278300D01*
X276050Y344750D02*X276800Y345500D01*
X276050Y344750D02*Y343250D01*
X276800Y342500D01*
X279050Y345500D02*Y343250D01*
X279800Y342500D01*
X276800D02*X278300D01*
X279050Y343250D01*
X281600Y348500D02*Y342500D01*
Y343250D02*X282350Y342500D01*
X283850D01*
X284600Y343250D01*
Y344750D02*Y343250D01*
X283850Y345500D02*X284600Y344750D01*
X282350Y345500D02*X283850D01*
X281600Y344750D02*X282350Y345500D01*
X287150Y344750D02*Y342500D01*
Y344750D02*X287900Y345500D01*
X289400D01*
X286400D02*X287150Y344750D01*
G54D102*X291200Y347000D02*Y346850D01*
G54D101*Y344750D02*Y342500D01*
X293450Y345500D02*X295700D01*
X292700Y344750D02*X293450Y345500D01*
X292700Y344750D02*Y343250D01*
X293450Y342500D01*
X295700D01*
X299750Y345500D02*X300500Y344750D01*
X298250Y345500D02*X299750D01*
X297500Y344750D02*X298250Y345500D01*
X297500Y344750D02*Y343250D01*
X298250Y342500D01*
X300500Y345500D02*Y343250D01*
X301250Y342500D01*
X298250D02*X299750D01*
X300500Y343250D01*
X303800Y348500D02*Y343250D01*
X304550Y342500D01*
X303050Y346250D02*X304550D01*
G54D102*X306050Y347000D02*Y346850D01*
G54D101*Y344750D02*Y342500D01*
X307550Y344750D02*Y343250D01*
Y344750D02*X308300Y345500D01*
X309800D01*
X310550Y344750D01*
Y343250D01*
X309800Y342500D02*X310550Y343250D01*
X308300Y342500D02*X309800D01*
X307550Y343250D02*X308300Y342500D01*
X313100Y344750D02*Y342500D01*
Y344750D02*X313850Y345500D01*
X314600D01*
X315350Y344750D01*
Y342500D01*
X312350Y345500D02*X313100Y344750D01*
X320600Y348500D02*Y342500D01*
X322550Y348500D02*X323600Y347450D01*
Y343550D01*
X322550Y342500D02*X323600Y343550D01*
X319850Y342500D02*X322550D01*
X319850Y348500D02*X322550D01*
X326150Y344750D02*Y342500D01*
Y344750D02*X326900Y345500D01*
X328400D01*
X325400D02*X326150Y344750D01*
X332450Y345500D02*X333200Y344750D01*
X330950Y345500D02*X332450D01*
X330200Y344750D02*X330950Y345500D01*
X330200Y344750D02*Y343250D01*
X330950Y342500D01*
X333200Y345500D02*Y343250D01*
X333950Y342500D01*
X330950D02*X332450D01*
X333200Y343250D01*
X335750Y345500D02*Y343250D01*
X336500Y342500D01*
X337250D01*
X338000Y343250D01*
Y345500D02*Y343250D01*
X338750Y342500D01*
X339500D01*
X340250Y343250D01*
Y345500D02*Y343250D01*
G54D102*X342050Y347000D02*Y346850D01*
G54D101*Y344750D02*Y342500D01*
X344300Y344750D02*Y342500D01*
Y344750D02*X345050Y345500D01*
X345800D01*
X346550Y344750D01*
Y342500D01*
X343550Y345500D02*X344300Y344750D01*
X350600Y345500D02*X351350Y344750D01*
X349100Y345500D02*X350600D01*
X348350Y344750D02*X349100Y345500D01*
X348350Y344750D02*Y343250D01*
X349100Y342500D01*
X350600D01*
X351350Y343250D01*
X348350Y341000D02*X349100Y340250D01*
X350600D01*
X351350Y341000D01*
Y345500D02*Y341000D01*
M02*
